<?xml version="1.0" encoding="utf-8"?>
<!-- Generator: Adobe Illustrator 24.0.2, SVG Export Plug-In . SVG Version: 6.00 Build 0)  -->
<svg version="1.1" id="object" xmlns="http://www.w3.org/2000/svg" xmlns:xlink="http://www.w3.org/1999/xlink" x="0px" y="0px"
	 viewBox="0 0 915 490" enable-background="new 0 0 915 490" xml:space="preserve">
<g>
	<defs>
		<rect id="SVGID_1_" width="915" height="490"/>
	</defs>
	<clipPath id="SVGID_2_">
		<use xlink:href="#SVGID_1_"  overflow="visible"/>
	</clipPath>
	<g opacity="0.1" clip-path="url(#SVGID_2_)">
		<g>
			<g>
				<polygon fill="#B97262" points="609.5,160 610.8,151.2 607.1,150.5 604.8,156.3 603.2,155.1 603,162.8 606.8,164.1 				"/>
			</g>
			<g>
				<polygon fill="#96BFEE" points="553,205.7 586.7,196.9 602.2,160.2 609.6,163.1 600.8,210.5 562.1,230.5 				"/>
			</g>
		</g>
		<polygon fill="#587BC9" points="264.6,201.8 296.5,225.1 324.3,213.1 328.3,220.6 307.3,234.9 295.5,239.3 264.6,224.4 		"/>
		<g>
			<path fill="#3B455A" d="M242.6,56.5L145,64.6c-9,0.8-15.7,8.7-15,17.7l5.2,62.9c0.7,9,8.6,15.7,17.6,15l15.7-1.2l20,23.6
				c0.6,0.7,1.7,0.2,1.6-0.7l-1.7-24.6l62.1-5.3c9-0.8,15.7-8.7,15-17.7l-5.2-62.9C259.6,62.4,251.7,55.7,242.6,56.5z"/>
			<g>
				
					<rect x="163.8" y="78.9" transform="matrix(0.9964 -8.499385e-02 8.499385e-02 0.9964 -6.1115 17.5421)" fill="#FFFFEE" width="78.2" height="3.3"/>
				
					<rect x="150.9" y="104.3" transform="matrix(0.9964 -8.499325e-02 8.499325e-02 0.9964 -8.2905 17.175)" fill="#FFFFEE" width="93.3" height="3.3"/>
				
					<rect x="153" y="129.1" transform="matrix(0.9964 -8.499325e-02 8.499325e-02 0.9964 -10.3879 17.4442)" fill="#FFFFEE" width="93.3" height="3.3"/>
			</g>
		</g>
		<g>
			<g>
				<polygon fill="#7DB5DB" points="315,311.7 313.2,355.1 318.7,428.9 326.9,429.5 336.8,362.5 350.6,305.8 				"/>
				<polygon fill="#3B455A" points="326.6,432.9 317.4,436.7 313.3,432 318,427.8 326.9,428.5 				"/>
			</g>
			<g>
				<polygon fill="#7DB5DB" points="373.1,296.4 374.9,329.2 369.6,426.7 361.4,427.1 349.1,363.1 338.2,293 				"/>
				<polygon fill="#3B455A" points="361.6,430.5 370.7,434.5 374.9,429.9 370.2,425.7 361.4,426.1 				"/>
			</g>
			<g>
				<path fill="#D7E8F4" d="M325.4,199.8L351,197c0,0,14.3,1.5,23.9,35.4c5.4,18.8,7,48.5,7.4,71.2c-0.6,3.2-4.1,17.4-19,15
					c-25.5-4.1-39.1-8.2-50.3-6.2c-9.5,2.1-8.7-11-7.6-20.9l3.8-30.8L325.4,199.8z"/>
			</g>
			<g>
				<path fill="#B97262" d="M330.3,167.9c6.5-1.4,13.1-2.7,19.6-1.4c1.4,0.3,2.9,0.8,3.7,2c0.3,0.5,0.5,1,0.6,1.6
					c1.6,6.1,3.7,15.1-0.3,20.7c-0.8,1.1-1.8,1.9-2.9,2.6c-1.5,0.9-3.1,1.5-4.8,1.9c0.3,1.5,0.8,3,1.4,4.4c-1.5,2.2-8.4,2.5-9.7,0.4
					c-0.1-1.9-0.1-3.7-0.2-5.6c-0.8-0.3-1.7-0.8-2.4-1.3c-2.9-1.9-4.9-4.9-6-8.2c-1.2-3.6-3-7-4.1-10.7c-0.4-1.3-0.7-2.9,0-4.1
					c0.7-1.3,2.4-1.7,3.8-2C329.5,168.1,329.9,168,330.3,167.9z"/>
				<path fill="#292949" d="M351.8,171.3c-3.2-2.1-8-2.9-11-2.7c-9.1,0.7-12.4,7.3-12.9,15.7c-2.5-3.2-7.2-7.2-7.5-11.3
					c-0.2-3.3,0.2-7.9,2.1-10.8c1.8-2.7,6.2-4.2,8.9-5.8c2.5-1.5,5-3,7.5-4.4c0.5-0.3,1.1-0.6,1.7-0.7c0.7-0.1,1.4,0.1,2.1,0.2
					c5.9,1.5,11.9,3.1,17.8,4.6c1.1,0.3,2.4,0.7,2.9,1.8c0.3,0.7,0.1,1.4,0,2.1c-0.7,3.1-2,6.2-2.3,9.4c-0.4,1.8-1.4,11.1-4.7,10.1
					c-0.9-1.5-1.1-3.4-1.8-5.1C354.1,173.2,353.1,172.2,351.8,171.3z"/>
			</g>
			<polygon fill="#D7E8F4" points="351,197 360.5,199.9 395.1,236.2 397.1,248.1 380.6,275.4 376.1,265.4 383.1,245.2 372,237.4 
				357.2,204 			"/>
		</g>
		<g>
			<polygon fill="#305399" points="408.6,421.3 408,426.5 417.7,433.1 423.6,428.5 419,422.6 409.3,416.1 			"/>
			<g>
				<polygon fill="#292949" points="408.3,419.6 415.8,353.2 406.8,278.9 408.8,263.1 449.2,261.6 450.6,287.3 443.9,353.3 
					418.4,423 				"/>
			</g>
			<polygon fill="#305399" points="453,188.1 473.3,193.7 496.7,235.3 485.6,245.6 470,227 			"/>
			<g>
				<polygon fill="#292949" points="478.8,269 478.9,336 465.4,422.2 455.7,422.1 450.4,342.4 437.9,262.6 				"/>
				<polygon fill="#305399" points="455.7,426.2 466.2,431.5 471.5,426.3 466.3,421 455.8,420.9 				"/>
			</g>
			<g>
				<path fill="#305399" d="M402.6,291.8c0.1-2.9,0.3-5.3,0.3-6.2c0.2-7.8,0.9-15.6,1.9-23.3c0.9-6.9,2-24.1,3.2-31
					c1-5.7,4.4-19.9,6.9-25.1c6.1-13.1,4.2-14.3,31.2-18.2c11.8-1.7,14.6,5.6,24.2,14.1c1,0.8,0.9,5.8,1.1,7.1
					c0.4,2.3,0.8,4.6,1.3,6.9c0.4,1.8,0.8,3.6,1.3,5.4l0,0c0,0,8.1,36.9,13.5,44.7c5.4,7.8,16.4,18.8-2.1,25.4
					c-3.3,1.1-6.6,2.1-10,2.6c0,0-15.1-1.7-22.9-1.6c-7.2,0.1-14.4,0.8-21.4,2c-4.7,0.8-9.5,1.9-13.7,4.1c-4,2.1-6.9,5.2-11,7.4
					c-0.4,0.2-0.8,0.4-1.2,0.4C402.5,306.1,402.4,297.9,402.6,291.8z"/>
			</g>
			<path fill="#EFBFA5" d="M420.7,121.4c0,0,3.9-1.9,3.8-2.4c0-0.5-0.7-7.5-0.7-7.5l-2.5-1.4l-1.1-3c0,0,2.9-5.1,2.4-6.5
				c-0.5-1.5-4.4,5.1-4.4,5.1l-1.4,4l-0.4,6.5L420.7,121.4z"/>
			<polygon fill="#EFBFA5" points="461.8,221.1 453.9,215.1 456.3,211.6 462.6,214.5 463,212.3 469.1,218.3 467.1,222.3 			"/>
			<g>
				<polygon fill="#305399" points="462.8,223.2 469.1,214.9 490.9,228.1 485.5,245.6 				"/>
			</g>
			<g>
				<path fill="#EFBFA5" d="M446,191.6c-1.4,0.7-4.6,0.9-7.9-0.4c-0.7-0.3-1.1-0.9-1.1-1.6c0-2,0.2-4.1,0.5-6.1
					c-2.5-0.9-5.4-2.2-5.8-4.8c-0.1-0.8,0-1.7,0.1-2.5c0.6-3.4,1.2-6.8,1.8-10.2c0.2-1.2,0.4-2.4,1.1-3.4c1.1-1.8,3.3-2.6,5.4-2.9
					c5.3-0.9,11,0.2,15.1,3.7c1.1,0.9,2.1,2,2.6,3.4c0.7,2.1,0.2,4.4-0.4,6.5c-0.5,2-1,3.9-1.5,5.9c-0.6,2.3-1.4,4.8-3.6,5.7
					c-1.2,0.4-2.5,0.3-3.6,1C446.7,186.9,446.9,189.7,446,191.6z"/>
				<path fill="#3B455A" d="M476.5,157.6c0.5-0.9,1.1-1.7,1.7-2.4c1.4-1.7,3-3.1,4.1-5c1.1-1.9,1.5-4.4,0.2-6.1
					c-0.8-1.1-2.2-1.7-3.5-2c-4.4-1.3-9.1-1.4-13.6-0.3c-4.2,1.1-8,2.9-12.2,1.3c-4-1.5-6.9-0.9-11,0.6c-4.5,1.6-10.6,2-14.7,4.3
					c-1.7,0.9-3.1,2.4-4.1,4.1c-3.7,5.7-3.7,13.5,0,19.2c0.8,1.3,1.8,2.4,2.8,3.6c2.1,2.3,4.7,5.2,7.6,6c0.1-2.6-2.3-10.9-0.3-13
					c3.2-3.4,10.4-2.2,14.4-1.4c4.3,0.9,8.2,4,12.5,4.6c3.1,0.5,7-1,9.6-2.6C473.1,166.4,474.6,160.7,476.5,157.6z"/>
			</g>
			<polygon fill="#305399" points="431,190.5 410.3,179.6 424.5,121.4 414.7,116.1 389.9,179.6 416.4,211.6 			"/>
		</g>
		<g>
			<g>
				<g>
					<polygon fill="#3B455A" points="583.4,425.2 583.8,429.6 575.5,434.9 570.6,430.9 574.6,426 582.9,420.7 					"/>
					<polygon fill="#305399" points="583.7,290.8 585.1,304.1 573.1,363.9 583.7,423.7 575.1,426.3 547.5,355.3 545.9,333.5 
						549.7,288.6 					"/>
				</g>
				<g>
					<polygon fill="#305399" points="518.8,295.3 518.5,351.8 529.7,424.6 537.9,424.6 542.6,357.3 553.3,290 					"/>
					<polygon fill="#3B455A" points="537.8,428 529,432.5 524.6,428.1 529,423.7 537.8,423.6 					"/>
				</g>
			</g>
			<g>
				<path fill="#96BFEE" d="M511.9,287c5.9-18.3,6.5-37.5,8.3-56.6c0.5-5.6,1.1-11.4,3.4-16.5c2.7-5.9,7.1-9,12.3-10.7
					c6.6-2.2,14.4-2,21.2-2.5c6.5-0.2,12.3,24.2,18.9,36.1c4.1,7.3,8.3,13.7,11,21.6c2.6,7.6,5.2,15.3,6.7,23.2
					c2.3,11.9,8.2,20.3,2.6,24.3c-0.5,0.2-1,0.3-1.5,0.5c-9.3,3.3-18.8,5.8-28.6,7.1c-8.7,1.1-17.4,1.4-26.1,0.5
					c-11.9-1.2-23.4-2.9-33.9-9.1C508,299,510,293,511.9,287z"/>
			</g>
			<g>
				<path fill="#B97262" d="M560.3,182.5c-3.7-11.2-20-15.1-23.8-2.1c-1.1,3.9-1.8,8-1.1,12c0.8,4,3.2,7.8,6.9,9.5c0,0,0,0,0.1,0
					c-0.1,1-0.3,2.1-0.4,3.1c0,0.2-0.1,0.5,0.1,0.7c0.1,0.2,0.4,0.3,0.7,0.3c1.2,0.2,2.5,0.4,3.7,0.6c0.6,0.1,1.3,0.2,1.8,0
					c1.3-0.4,1.8-2,1.9-3.3c0-0.3,0-0.7,0-1C557.5,199.8,562.7,189.8,560.3,182.5z"/>
				<g>
					<path fill="#292949" d="M540.4,163.4c-3-0.4-5.5,2.5-8.3,4c-2.3,1.3-4.9,1.6-7.3,2.7c-2.4,1-4.7,3.2-4.8,6
						c-2.4-1.3-5-2.5-7.7-2c-2.7,0.5-5.2,3.7-4.1,6.4c1,2.4,4.1,2.9,5.1,5.3c1.6,3.7-2.8,9.5,0.2,11.9c0.7,0.6,1.7,0.7,2.4,1.3
						c0.9,0.8,1.2,2.1,1.6,3.2c1.8,5.2,7.1,8.6,12.3,7.9c3.2-1.5,5.8-4.6,7-8.2c1.4-4.3-0.9-5.8-1.3-9.9c-0.4-4.4,1-9.1,3.8-12.6
						c1.8-2.2,4.4-4.2,7.2-4.4c1.1-0.1,0.8,0.8,2,0c0.5-0.4,1.3-1.8,1.4-2.4C546.8,170.1,544.3,164,540.4,163.4z"/>
					<path fill="#292949" d="M572.7,169.2c1.5,0.4,3.2,0.4,4.7,1c2.2,1,2.1,3.3,2.7,5.2c0.7,2.2,1.7,5.2,3.1,6.9
						c1,1.2,2.5,1.9,3.8,2.9c1.3,1,2.4,2.4,2.4,4.1c0,1.6-1.1,3.1-1.3,4.7c-0.2,2.4,0.2,3.7-0.5,6.1c-0.4,1.3-0.8,2.6-1.8,3.5
						c-1.3,1.1-3.1,1.1-4.6,0.9c-1.6-0.3-3.2-0.7-4.8-0.2c-3.4,1.1-2.7,4.6-3.6,7.4c-1.4,4.4-6.4,6.9-10.3,5.4
						c-3.3-1.3-5.2-5.1-5-8.9c0.1-1.9,0.8-3.6,0.9-5.5c0.1-1.8-1-4.3,0.7-5.8c0.4-0.4,0.9-0.5,1.3-0.9c0.3-0.3,0.5-0.8,0.6-1.2
						c0.4-1.5,0-3.1-0.9-4.3c-0.6-0.8-1.5-1.4-1.9-2.4c-0.4-1.1-0.1-2.5,0-3.7c0.2-3.1-1.5-6-4-7.2c-1.7-0.8-3.2-1.2-4.6-2.4
						c-0.2-0.2-3.6-3.1-3.6-2.5c0.1-1.1,0.8-2.1,1.5-3c1.1-1.5,2.3-2.9,3.8-3.8c4.9-2.8,5.1,3.7,9.1,2.9c0.9-0.2,1.7-1.1,2.5-1.6
						c1.6-1,3.6-0.6,5.2,0.1C569.5,167.6,571,168.7,572.7,169.2z"/>
				</g>
			</g>
		</g>
		<g>
			<g>
				<polygon fill="#305399" points="251.2,315.9 215.2,303.9 224.3,366.1 221.4,424.2 221.4,424.2 221.4,424.2 221.4,424.2 
					228,424.2 228,424.2 228,424.2 243.2,372.6 250.1,321.2 250.1,321.2 				"/>
				<polygon fill="#3B455A" points="228.4,423.4 221.1,423.5 219.4,429.7 219.6,429.7 219.5,429.7 231.8,436.5 237.5,437 
					238.1,430.4 236.5,429.3 				"/>
			</g>
			<g>
				<polygon fill="#305399" points="279.2,316.3 271.3,427.1 265.1,427.8 255.8,366.5 241.9,309.4 				"/>
				<polygon fill="#3B455A" points="271.6,426 281.1,431 280.4,435.4 263.6,433.4 264.4,427 				"/>
			</g>
			<g>
				<path fill="#587BC9" d="M205.4,333.9c-0.8-18.1,15.4-75.7,15.4-75.7l0,0c1.7-5.4,3-10.9,3.8-16.4c0.6-3.9,12.3-48.6,11.6-48.6
					c8.1,0.6,23.8-1.3,29.8,4.4c0.2,0.2,0.3,0.3,0.5,0.5c4.7,5.3,7.1,16.2,9.3,22.8c2.9,8.7,5.1,17.7,6.7,26.8
					c1.3,7.9,2.1,16,2.7,24c0.5,6.9,0.1,13.8,0.3,20.6c0.3,7.5,2.5,15.7,4.2,23c1.7,7.4,3.8,14.7,6.8,21.6c-8.1,3.6-17,4.5-25.8,4.6
					c-8.8,0-17.6-0.8-26.4-0.7c-7.4,0.1-15,0.9-22.3-0.6C216.1,339,210.8,336.4,205.4,333.9L205.4,333.9z"/>
			</g>
			<g>
				<path fill="#3B455A" d="M263.9,174.2c3.7,1.8,7.6,6.5,7.3,10.9c-0.1,2.1-1.3,3.8-1.3,6c-0.1,4.5-6.9,9.1-2.7,13.5
					c2.1,2.2,5.5,2.6,8.5,3c0.4,0,0.8,0.1,1.1-0.1c0.6-0.2,0.8-0.9,0.8-1.5c0-0.6-0.2-1.2-0.4-1.8c-1.9-6.1,1-13.3,1.3-19.5
					c0.3-6.2-1.1-12.9-6.2-17c-3.4,1-6,2.5-7.6,5.6L263.9,174.2z"/>
				<path fill="#EFBFA5" d="M261.6,200.7c4.2-0.5,7.8-3.6,9.8-7.4c2-3.8,2.5-8.1,2.5-12.4c0.1-14.1-17.4-15.1-24.5-5
					C243.3,184.7,249.4,202.3,261.6,200.7z"/>
				<path fill="#3B455A" d="M240.4,202.4c2.2-0.6,4.3-1.3,6-3.1c2.7-3,3.5-8.6,4.8-12.2c1.3-3.9,2.9-8.1,6.5-10.2
					c2.3-1.4,4.6-1.3,7.2-0.8c1.7,0.3,1.7,1,3.3,0.3c1.3-0.5,2.6-2.4,3.1-3.6c0.8-2,0.4-4.4-0.6-6.3c-1.6-2.9-3.9-4.7-7.1-5.4
					c-11.2-2.5-21,2.6-26.3,12.9c-2.6,5-2.6,11.1-5.2,15.9c-1.6,2.9-4,4.6-5.5,7.8c-3.8,8.3-10.8,18.4-12.2,27.5
					c-0.1,0.3-0.1,0.7,0.1,1c0.4,0.5,1.3,0.2,1.8-0.3c3.2-2.5,6.3-5,9.5-7.5c1.2-1,2.5-2,3.4-3.3c2.3-3.2,2.4-7.9,5.5-10.3
					C236.4,203.5,238.4,203,240.4,202.4z"/>
			</g>
			<g>
				<g>
					<path fill="#EFBFA5" d="M187.9,185.3c-2.1,0.4-7.6-1.1-8.9-3c-2.9-4.5,4-3.1,6.5-3.2c-0.3-0.9-0.6-1.7-0.7-2.6
						c-0.1-0.8,7.4,1.3,8.1,2.1c1.7,1.9,0.9,3.3,0.8,5.7C191.7,184.6,189.8,184.9,187.9,185.3z"/>
				</g>
				<polygon fill="#587BC9" points="246.5,230.5 205.8,223.7 187,185.7 194.5,179.6 214.3,205.9 235.1,205 254.3,205.8 				"/>
			</g>
		</g>
		<g>
			<g>
				<g>
					<polygon fill="#EFBFA5" points="655.3,313.6 691,300.5 683.6,362.9 687.9,416.8 688,417.1 687.9,417.2 688.2,420.7 
						681.9,421.9 681.9,421.9 681.9,421.9 664.9,370 656.6,318.9 656.6,318.9 					"/>
					<polygon fill="#305399" points="681.2,420.4 688.5,420.2 690.4,426.4 690.2,426.4 690.3,426.4 678.2,433.6 672.5,434.2 
						671.7,427.7 673.3,426.5 					"/>
				</g>
				<g>
					<polygon fill="#EFBFA5" points="631,314.7 642.1,424.8 648.2,426.3 655.9,364.2 668.2,306.7 					"/>
					<polygon fill="#305399" points="641.8,424 632.4,429.3 633.3,433.8 650,431.2 649,424.9 					"/>
				</g>
				<g>
					<g>
						<path fill="#587BC9" d="M614.3,341.5c-2.3-1.6-2.3-4.3-2.3-7c0-5.1,0.9-10.4,2.1-15.4c2.2-9.3,4.8-20.6,5.9-32.7
							c2.9-31.3,12.8-52.3,12.8-52.3l3.2-8.5c0.6-1.1,1.3-2.2,2-3.3c4-6.3,10.9-16.9,18.3-18.6c0.2,0,0.3-0.1,0.5-0.1
							c7.8-1.7,17.7-0.9,24.8,2.9c1.3,0.7,2.5,1.7,3.7,2.6c3.4,2.8,6.2,4.3,7.7,8.5c1.3,3.7,1.6,7.7,2.3,11.5
							c1.4,7.7,2.3,15.5,3.5,23.3c2.2,14.6,4,29.2,6.3,43.7c1.2,7.5,2.4,15,2.9,22.6c0.5,6.7,6.5,13.5,9.9,19.5
							c1.2,2.1-15.8,7.5-17.3,7.8c-7,1.6-14.5,1.2-21.8,1.3c-15.9,0.1-31.8-0.4-47.6-1.5c-5.3-0.3-11.8-1.4-16.4-4
							C614.6,341.7,614.5,341.6,614.3,341.5z"/>
					</g>
					<path fill="#D7E8F4" d="M665.5,202.7c0,0,8.9-2.4,10.2,17.8c1.2,20.2,3.3,71.3,6.2,85.3c2.9,14,7.2,41.5,7.2,41.5l-27.4,1
						l-31.3-2.5c0,0,10.7-19.8,12.4-33.8c1.6-14-1.2-66.7,5.8-86.5S656.9,203.1,665.5,202.7z"/>
					<g>
						<polygon fill="#587BC9" points="625,247.7 622.9,250.2 615.5,239.9 645.2,206.9 656.3,203.6 650.9,218 						"/>
					</g>
					<polygon fill="#EFBFA5" points="649.8,239.2 656.3,234.2 654.3,231.3 649.1,233.7 648.7,231.9 643.7,236.9 645.4,240.1 					
						"/>
					<g>
						<polygon fill="#587BC9" points="624.3,237.9 624.5,238.5 644.8,234.6 647.8,241.3 622.9,250.2 						"/>
					</g>
				</g>
				<g>
					<g>
						<path fill="#3B455A" d="M653,186.7c-1.4,4.1,0.6,8.4,2.3,12.1c1.5,3.3,2.1,5.4-1.8,6.3c-2.2,0.5-6.1,1.4-8-0.2
							c-1.4-1.3-0.6-5.2,0.1-6.7c0.5-1.2,2-1.8,2.5-3c0.2-0.5,0.2-1,0.2-1.6c0-2.2-0.3-4.4-0.9-6.5c-0.4-1.4-1-2.8-1.1-4.3
							c-0.2-2.1,1.3-4.7,2.1-6.6c1.5-3.7,6.7-8.6,11-5.7c1,0.7,1.6,1.8,2,2.9c0.3,0.6,0.6,1.3,0.6,2c0,2.8-2.5,3.3-4.3,4.6
							C655.5,181.7,653.8,184.2,653,186.7z"/>
						<path fill="#EFBFA5" d="M661.2,202.6c-3.8-0.9-6.7-4-8.1-7.6c-1.4-3.6-1.5-7.6-1.1-11.4c1.3-12.8,17.2-12,22.6-2.2
							C679.3,189.9,672.1,205.2,661.2,202.6z"/>
					</g>
					<path fill="#EFBFA5" d="M661.2,201.2c0.1,1.5,0.1,2.9,0.2,4.4c0,0.2,0,0.4,0.2,0.6c0.2,0.2,0.4,0.2,0.7,0.2
						c1.2,0,2.4-0.1,3.6-0.1c0.6,0,1.2,0,1.7-0.3c1.1-0.6,1.4-2.1,1.2-3.4c-0.2-1.3-0.6-2.6-0.4-3.8c-2.4,1.2-4.8-1.5-7.2-0.3
						L661.2,201.2z"/>
				</g>
				<path fill="#3B455A" d="M666.3,161.4c4.2,1.4,6.9,5.6,10.9,7.3c2.3,1,5.1,1.1,7,2.8c4.3,3.7,0.8,11.5,4.3,16
					c0.7,0.9,1.7,1.6,2.4,2.5c1.6,2,1.8,4.7,1.9,7.2c0,0.6,0,1.2-0.1,1.8c-0.5,5.9-9.1,5.5-12.4,5.1c-3.7-0.4-2.5-2.5-2.5-2.5
					l0.1-0.2c0.4-2.4-0.6-4.9-2.5-6.4c-0.7-0.6-1.5-1-2-1.8c-1.1-1.7,0-3.9-0.2-5.9c-0.6-8-14.2-6.3-18-12
					C650.8,168.3,658.5,158.7,666.3,161.4z"/>
			</g>
		</g>
		<g>
			<path fill="#305399" d="M622.2,50.3l116.3,9.4c0.4,0,0.8,0.5,0.7,0.9l-7.3,86.6c0,0.5-0.4,0.8-0.9,0.8l-26.3-2.1l-20.1,23.4
				c-0.6,0.7-1.7,0.2-1.7-0.7l1.7-24.4l-45.5-3.7c-13.9-1.1-24.2-14.1-23-29l5.1-60.5C621.3,50.6,621.7,50.2,622.2,50.3z"/>
			<g>
				<polygon fill="#FFFFEE" points="635.1,68.8 707.6,74.7 707.8,71.8 635.4,65.9 				"/>
				<polygon fill="#FFFFEE" points="633.2,91.4 719.6,98.5 719.9,95.5 633.5,88.5 				"/>
				<polygon fill="#FFFFEE" points="631.3,114 717.7,121 718,118.1 631.6,111.1 				"/>
			</g>
		</g>
		<g>
			<g>
				<path fill="#305399" d="M387.8,80c0-25.1-28.8-45.4-64.3-45.4S259.1,54.9,259.1,80s28.8,45.4,64.3,45.4c1.4,0,2.8,0,4.2-0.1
					c0.6,0,1.1,0.5,1,1.2l-5.1,28c-0.2,1,1,1.6,1.7,0.8l33.5-37.2c0.1-0.1,0.2-0.2,0.3-0.2C376.3,109.7,387.8,95.8,387.8,80z"/>
				<g>
					<path fill="#ECE9DE" d="M296,85.5c3.7,0,3.7-5.8,0-5.8C292.3,79.8,292.3,85.5,296,85.5z"/>
					<path fill="#ECE9DE" d="M322,85.5c3.7,0,3.7-5.8,0-5.8C318.3,79.8,318.3,85.5,322,85.5z"/>
					<path fill="#ECE9DE" d="M354.4,85.5c3.7,0,3.7-5.8,0-5.8C350.7,79.8,350.7,85.5,354.4,85.5z"/>
				</g>
			</g>
		</g>
		<g>
			<g>
				<polygon fill="#EFBFA5" points="710.3,147.2 707.8,138.6 704.1,139.5 704.5,145.7 702.6,145.3 705.6,152.4 709.5,152 				"/>
			</g>
			<g>
				<polygon fill="#587BC9" points="677.7,212.1 704.7,190.3 703.7,150.4 711.7,150 723.2,196.8 696.1,231 				"/>
			</g>
		</g>
		<polygon fill="#D7E8F4" points="330.8,202 313.2,182.9 317.3,131.3 309.6,127.9 299.1,180.3 302.3,193.3 322,220.6 		"/>
		<polygon fill="#B97262" points="309.6,127.9 309.6,116.1 315,113 317.6,117.8 317.6,122.6 320.4,123.7 317.3,131.3 		"/>
		<g>
			<g>
				<path fill="#3B455A" d="M496.2,16.4L402,16.2c-8.7,0-15.8,7-15.8,15.8l-0.1,60.7c0,8.7,7,15.7,15.7,15.8l15.1,0.1l17.2,24.2
					c0.5,0.7,1.6,0.4,1.6-0.5l0.4-23.7l59.9,0c8.7,0,15.8-7.1,15.8-15.8l0.1-60.7C512,23.5,504.9,16.4,496.2,16.4z"/>
				<g>
					<rect x="418.6" y="34.7" fill="#FFFFEF" width="75.2" height="3.1"/>
					<rect x="404.1" y="58.6" fill="#FFFFEF" width="89.7" height="3.1"/>
					<rect x="404.1" y="82.5" fill="#FFFFEF" width="89.7" height="3.1"/>
				</g>
			</g>
		</g>
		<g>
			<g>
				<path fill="#7DB5DB" d="M498.1,98.2c0.2-12,10-21.6,22-21.5c0-0.4,0-0.8,0-1.1c0.2-14.7,12.3-26.4,27-26.1
					c8,0.1,15.1,3.8,19.9,9.4c4.6-5.1,11.2-8.2,18.6-8.1c13.1,0.2,23.6,10.7,24.1,23.6c0.6,0,1.1-0.1,1.7,0
					c12.1,0.2,21.7,10.2,21.5,22.3c-0.2,9.7-6.6,17.9-15.5,20.6c1.1,2.6,1.6,5.4,1.6,8.4c-0.2,11.7-9.8,21-21.5,20.8
					c-0.9,0-1.8-0.1-2.6-0.2l-0.4,22.7c0,1-1.3,1.4-1.6,0.8l-14-20.4c-3.4,2.2-7.4,3.4-11.8,3.3c-7.8-0.1-14.6-4.5-18.2-10.9
					c-3.7,2.2-8,3.5-12.6,3.4c-13.1-0.2-23.5-11-23.3-24.1c0-0.6,0-1.1,0.1-1.7C504.2,116.4,497.9,108,498.1,98.2z"/>
				<g>
					<path fill="#ECE9DE" d="M539.8,101.2c3.2,0.1,3.2,5.1-0.1,5C536.5,106.2,536.5,101.2,539.8,101.2z"/>
					<path fill="#ECE9DE" d="M562.4,101.6c3.2,0.1,3.2,5.1-0.1,5C559.1,106.6,559.2,101.6,562.4,101.6z"/>
					<path fill="#ECE9DE" d="M590.7,102.1c3.2,0.1,3.2,5.1-0.1,5C587.4,107.1,587.4,102,590.7,102.1z"/>
				</g>
			</g>
		</g>
		<g>
			<g>
				<polygon fill="#B97262" points="519.9,140.4 524.8,132.9 528.1,134.9 525.9,140.7 527.8,140.9 522.9,146.8 519.2,145.2 				"/>
			</g>
			<g>
				<polygon fill="#96BFEE" points="535.9,206.8 512.3,183.1 525.2,145.3 517.8,142.6 492.7,183.8 525,223.9 				"/>
			</g>
		</g>
	</g>
	<g clip-path="url(#SVGID_2_)">
		<g>
			<g>
				<polygon fill="#B97262" points="244.5,324.6 242.7,312.7 247.8,311.8 250.8,319.6 253,318.1 253.3,328.4 248.1,330.2 				"/>
			</g>
			<g>
				<polygon fill="#96BFEE" points="321,386.5 275.4,374.7 254.3,324.9 244.4,328.8 256.2,393.1 308.7,420.1 				"/>
			</g>
		</g>
		<polygon fill="#587BC9" points="711.6,381.3 668.4,412.8 630.8,396.6 625.3,406.7 653.8,426.1 669.7,432.1 711.6,412 		"/>
		<g>
			<path fill="#3B455A" d="M741.3,184.5l132.2,11c12.2,1,21.3,11.8,20.3,24l-7.1,85.2c-1,12.2-11.7,21.3-23.9,20.3l-21.3-1.6l-27,32
				c-0.8,0.9-2.3,0.3-2.2-0.9l2.3-33.3l-84.1-7.2c-12.2-1-21.3-11.8-20.3-24l7.1-85.1C718.3,192.5,729.1,183.5,741.3,184.5z"/>
			<g>
				
					<rect x="792.8" y="164.1" transform="matrix(8.499385e-02 -0.9964 0.9964 8.499385e-02 511.169 990.7915)" fill="#FFFFEE" width="4.4" height="106"/>
				
					<rect x="800.1" y="188.3" transform="matrix(8.499325e-02 -0.9964 0.9964 8.499325e-02 483.576 1029.5592)" fill="#FFFFEE" width="4.4" height="126.4"/>
				
					<rect x="797.3" y="221.8" transform="matrix(8.499325e-02 -0.9964 0.9964 8.499325e-02 447.5398 1057.3977)" fill="#FFFFEE" width="4.4" height="126.4"/>
			</g>
		</g>
		<g>
			<g>
				<path fill="#D7E8F4" d="M629.3,378.5l-34.7-3.7c0,0-19.3,2.1-32.4,47.9c-7.3,25.5-9.5,65.7-10,96.4c0.8,4.4,5.6,23.5,25.7,20.3
					c34.6-5.6,53-11.2,68.1-8.4c12.8,2.8,11.7-14.9,10.3-28.4l-5.1-41.7L629.3,378.5z"/>
			</g>
			<g>
				<path fill="#B97262" d="M622.6,335.3c-8.7-1.9-17.8-3.7-26.5-1.9c-1.9,0.4-4,1-5,2.7c-0.4,0.6-0.6,1.4-0.8,2.1
					c-2.2,8.2-5,20.4,0.4,28c1,1.4,2.4,2.6,3.9,3.5c2,1.2,4.2,2.1,6.5,2.5c-0.5,2-1.1,4-2,6c2,3,11.3,3.4,13.1,0.5
					c0.1-2.5,0.2-5,0.3-7.5c1.1-0.5,2.2-1,3.3-1.7c4-2.6,6.6-6.6,8.2-11.1c1.7-4.9,4-9.5,5.5-14.4c0.6-1.8,1-3.9,0-5.5
					c-1-1.7-3.2-2.3-5.2-2.8C623.7,335.6,623.1,335.5,622.6,335.3z"/>
				<path fill="#292949" d="M593.5,340c4.3-2.8,10.8-4,14.9-3.7c12.3,0.9,16.8,9.9,17.5,21.2c3.4-4.3,9.7-9.7,10.1-15.3
					c0.3-4.5-0.3-10.7-2.9-14.6c-2.4-3.7-8.5-5.7-12.1-7.8c-3.4-2-6.8-4-10.2-6c-0.7-0.4-1.4-0.8-2.2-1c-1-0.2-1.9,0.1-2.9,0.3
					c-8.1,2.1-16.1,4.2-24.2,6.2c-1.5,0.4-3.3,1-3.9,2.5c-0.3,0.9-0.1,1.9,0.1,2.9c0.9,4.2,2.7,8.5,3.1,12.7
					c0.5,2.5,2,15.1,6.3,13.6c1.3-2.1,1.5-4.7,2.5-6.9C590.3,342.6,591.7,341.2,593.5,340z"/>
			</g>
			<polygon fill="#D7E8F4" points="594.6,374.8 581.7,378.7 534.9,427.8 532.1,444 554.5,481 560.5,467.4 551.1,440.1 566.1,429.5 
				586.2,384.3 			"/>
		</g>
		<g>
			<g>
				<polygon fill="#292949" points="517,676.2 506.8,586.3 519,485.7 516.3,464.3 461.6,462.2 459.6,497 468.8,586.4 503.3,680.8 
									"/>
			</g>
			<polygon fill="#305399" points="456.5,362.8 429,370.3 397.2,426.6 412.3,440.5 433.5,415.4 			"/>
			<g>
				<polygon fill="#292949" points="421.5,472.3 421.4,563 439.6,679.7 452.8,679.6 460,571.6 476.9,463.6 				"/>
			</g>
			<g>
				<path fill="#305399" d="M524.7,503.1c-0.1-3.9-0.3-7.2-0.4-8.4c-0.3-10.5-1.2-21.1-2.5-31.5c-1.2-9.4-2.7-32.7-4.3-42
					c-1.3-7.7-5.9-26.9-9.3-34.1c-8.3-17.8-5.7-19.4-42.2-24.7c-16-2.3-19.8,7.6-32.8,19.1c-1.3,1.1-1.2,7.9-1.5,9.6
					c-0.5,3.1-1.1,6.3-1.7,9.4c-0.5,2.4-1.1,4.9-1.7,7.3l0,0c0,0-11,49.9-18.2,60.5c-7.3,10.6-22.2,25.4,2.8,34.5
					c4.4,1.4,8.9,2.8,13.5,3.5c0,0,20.5-2.3,31-2.2c9.7,0.1,19.5,1.1,29,2.7c6.4,1.1,12.9,2.6,18.6,5.6c5.4,2.8,9.4,7,14.9,10
					c0.5,0.3,1.1,0.6,1.7,0.5C524.8,522.5,524.9,511.4,524.7,503.1z"/>
			</g>
			<path fill="#EFBFA5" d="M500.2,272.4c0,0-5.2-2.6-5.2-3.3c0-0.7,0.9-10.1,0.9-10.1l3.4-2l1.4-4c0,0-3.9-6.8-3.2-8.9
				c0.7-2,5.9,6.9,5.9,6.9l1.9,5.5l0.5,8.8L500.2,272.4z"/>
			<polygon fill="#EFBFA5" points="444.6,407.4 455.2,399.2 452,394.5 443.4,398.5 442.9,395.5 434.6,403.6 437.3,409 			"/>
			<g>
				<polygon fill="#305399" points="443.2,410.3 434.6,399.1 405.1,416.9 412.4,440.6 				"/>
			</g>
			<g>
				<path fill="#EFBFA5" d="M466,367.5c1.8,0.9,6.2,1.2,10.7-0.5c0.9-0.4,1.5-1.2,1.5-2.2c0-2.8-0.3-5.5-0.7-8.2
					c3.4-1.2,7.3-3,7.9-6.5c0.2-1.1,0-2.3-0.2-3.4c-0.8-4.6-1.6-9.2-2.4-13.9c-0.3-1.6-0.6-3.2-1.4-4.6c-1.5-2.4-4.5-3.5-7.3-3.9
					c-7.2-1.2-15,0.3-20.5,5c-1.5,1.2-2.8,2.7-3.5,4.6c-1,2.8-0.3,5.9,0.5,8.8c0.7,2.7,1.4,5.3,2.1,8c0.8,3.1,2,6.5,4.9,7.7
					c1.6,0.6,3.4,0.4,4.8,1.3C465,361.1,464.7,364.8,466,367.5z"/>
				<path fill="#3B455A" d="M424.7,321.4c-0.7-1.2-1.5-2.3-2.3-3.3c-1.8-2.3-4.1-4.2-5.6-6.7c-1.5-2.5-2-5.9-0.2-8.2
					c1.1-1.5,3-2.2,4.8-2.8c5.9-1.7,12.4-1.9,18.4-0.3c5.7,1.5,10.8,3.9,16.6,1.7c5.4-2,9.3-1.2,15,0.8c6.1,2.2,14.3,2.7,19.9,5.8
					c2.3,1.3,4.2,3.3,5.6,5.5c5,7.7,5,18.3,0.1,26c-1.1,1.7-2.4,3.3-3.8,4.8c-2.9,3.1-6.3,7-10.3,8.2c-0.1-3.6,3.1-14.7,0.4-17.7
					c-4.3-4.6-14.1-3-19.5-1.9c-5.9,1.2-11.1,5.4-16.9,6.3c-4.2,0.6-9.5-1.4-13.1-3.6C429.3,333.4,427.2,325.6,424.7,321.4z"/>
			</g>
			<polygon fill="#305399" points="486.2,365.9 514.3,351.2 495,272.4 508.3,265.3 541.9,351.2 505.9,394.5 			"/>
		</g>
		<g>
			<g>
				<path fill="#96BFEE" d="M376.7,496.7c-8-24.8-8.9-50.8-11.2-76.6c-0.7-7.6-1.4-15.4-4.6-22.4c-3.6-8-9.7-12.2-16.7-14.5
					c-8.9-2.9-19.5-2.8-28.7-3.3c-8.8-0.3-16.6,32.8-25.6,48.9c-5.5,9.8-11.2,18.5-14.9,29.3c-3.6,10.3-7,20.8-9.1,31.5
					c-3.1,16.2-11.1,27.5-3.5,33c0.7,0.2,1.4,0.5,2,0.7c12.5,4.5,25.5,7.8,38.7,9.6c11.7,1.5,23.6,1.8,35.4,0.7
					c16.1-1.6,31.7-3.9,45.9-12.3C381.9,512.9,379.3,504.8,376.7,496.7z"/>
			</g>
			<g>
				<path fill="#B97262" d="M311.2,355.2c5-15.1,27.1-20.4,32.3-2.8c1.5,5.3,2.5,10.9,1.4,16.3c-1.1,5.4-4.4,10.6-9.4,12.8
					c0,0-0.1,0-0.1,0c0.2,1.4,0.4,2.8,0.6,4.2c0,0.3,0.1,0.6-0.1,0.9c-0.2,0.3-0.6,0.4-0.9,0.4c-1.7,0.3-3.4,0.5-5,0.8
					c-0.8,0.1-1.7,0.2-2.5,0c-1.8-0.6-2.5-2.7-2.6-4.5c0-0.4,0-0.9,0-1.3C314.9,378.6,307.9,365.1,311.2,355.2z"/>
				<g>
					<path fill="#292949" d="M338.1,329.3c4-0.6,7.5,3.3,11.2,5.4c3.1,1.7,6.6,2.2,9.8,3.6c3.2,1.4,6.4,4.4,6.5,8.1
						c3.3-1.7,6.8-3.4,10.5-2.7c3.7,0.7,7.1,5.1,5.6,8.7c-1.3,3.2-5.5,4-6.9,7.2c-2.2,5,3.8,12.8-0.3,16.1c-1,0.8-2.3,1-3.3,1.8
						c-1.2,1-1.6,2.8-2.1,4.3c-2.4,7.1-9.6,11.7-16.6,10.8c-4.4-2.1-7.9-6.3-9.4-11.2c-1.9-5.9,1.2-7.9,1.8-13.4
						c0.6-6-1.3-12.4-5.1-17c-2.5-3-6-5.7-9.7-6c-1.5-0.1-1,1.1-2.7-0.1c-0.7-0.5-1.7-2.4-1.9-3.3
						C329.4,338.3,332.8,330.1,338.1,329.3z"/>
					<path fill="#292949" d="M294.3,337.1c-2.1,0.6-4.4,0.5-6.3,1.4c-3,1.3-2.8,4.4-3.7,7.1c-0.9,3-2.3,7-4.3,9.3
						c-1.4,1.7-3.4,2.6-5.1,3.9c-1.7,1.3-3.3,3.2-3.3,5.5c0,2.2,1.5,4.2,1.7,6.4c0.3,3.3-0.3,5,0.7,8.3c0.5,1.7,1.1,3.6,2.4,4.7
						c1.7,1.6,4.1,1.5,6.3,1.2c2.1-0.4,4.4-1,6.5-0.2c4.6,1.5,3.7,6.2,4.9,10c1.9,5.9,8.7,9.3,13.9,7.2c4.4-1.8,7-6.9,6.8-12
						c-0.1-2.5-1.1-4.9-1.2-7.5c-0.1-2.5,1.3-5.9-0.9-7.8c-0.5-0.5-1.2-0.7-1.7-1.3c-0.4-0.4-0.6-1-0.8-1.6c-0.5-2,0-4.3,1.2-5.8
						c0.9-1.1,2.1-1.9,2.6-3.3c0.6-1.5,0.1-3.4,0-5.1c-0.2-4.1,2-8.2,5.5-9.8c2.3-1.1,4.3-1.7,6.3-3.3c0.3-0.2,4.8-4.2,4.9-3.4
						c-0.2-1.5-1.1-2.8-2-4c-1.5-2-3.1-3.9-5.1-5.1c-6.6-3.8-7,5.1-12.3,3.9c-1.3-0.3-2.3-1.5-3.4-2.2c-2.2-1.3-4.9-0.9-7.1,0.1
						C298.7,335,296.7,336.5,294.3,337.1z"/>
				</g>
			</g>
		</g>
		<g>
			<g>
				<path fill="#587BC9" d="M791.7,560.2c1-24.5-20.9-102.5-20.9-102.5l0,0c-2.3-7.3-4.1-14.8-5.1-22.3
					c-0.8-5.3-16.7-65.8-15.6-65.9c-11,0.8-32.2-1.8-40.3,6c-0.2,0.2-0.5,0.5-0.7,0.7c-6.3,7.2-9.6,21.9-12.6,30.9
					c-3.9,11.8-7,24-9,36.3c-1.8,10.8-2.9,21.6-3.6,32.5c-0.7,9.4-0.1,18.7-0.5,27.9c-0.4,10.2-3.4,21.2-5.7,31.1
					c-2.3,10-5.2,19.8-9.2,29.3c10.9,4.8,23.1,6.1,35,6.2c11.9,0,23.8-1.1,35.8-0.9c10.1,0.2,20.3,1.3,30.2-0.8
					C777.2,567.1,784.4,563.6,791.7,560.2L791.7,560.2z"/>
			</g>
			<g>
				<path fill="#3B455A" d="M712.5,343.9c-5,2.5-10.2,8.9-9.9,14.8c0.2,2.9,1.7,5.1,1.8,8.2c0.1,6.1,9.3,12.4,3.7,18.2
					c-2.9,3-7.4,3.6-11.5,4c-0.5,0.1-1,0.1-1.5-0.1c-0.8-0.3-1.1-1.2-1.1-2.1c0-0.8,0.3-1.6,0.6-2.4c2.6-8.3-1.3-17.9-1.8-26.4
					c-0.5-8.4,1.5-17.5,8.4-23c4.6,1.4,8.1,3.4,10.4,7.6L712.5,343.9z"/>
				<path fill="#EFBFA5" d="M715.6,379.8c-5.7-0.7-10.6-4.9-13.2-10c-2.7-5.1-3.4-11-3.4-16.8c-0.1-19.2,23.6-20.4,33.1-6.8
					C740.4,358.2,732.2,381.9,715.6,379.8z"/>
				<path fill="#3B455A" d="M744.3,382.1c-2.9-0.8-5.9-1.8-8.1-4.2c-3.7-4-4.8-11.6-6.5-16.6c-1.8-5.3-4-11-8.8-13.8
					c-3.1-1.9-6.3-1.7-9.7-1.1c-2.3,0.4-2.3,1.3-4.5,0.5c-1.7-0.7-3.6-3.3-4.2-4.9c-1.1-2.7-0.6-5.9,0.8-8.5c2.2-4,5.3-6.3,9.6-7.3
					c15.2-3.3,28.4,3.5,35.7,17.5c3.5,6.8,3.5,15,7.1,21.5c2.2,4,5.5,6.3,7.5,10.6c5.2,11.2,14.6,25,16.5,37.2
					c0.1,0.5,0.1,1-0.2,1.3c-0.6,0.7-1.7,0.2-2.5-0.4c-4.3-3.4-8.6-6.8-12.9-10.1c-1.7-1.3-3.4-2.7-4.6-4.4
					c-3.1-4.3-3.2-10.7-7.4-14C749.8,383.6,747,382.9,744.3,382.1z"/>
			</g>
			<g>
				<g>
					<path fill="#EFBFA5" d="M815.4,358.9c2.9,0.5,10.3-1.5,12.1-4.1c4-6.1-5.4-4.2-8.8-4.3c0.4-1.2,0.8-2.3,1-3.5
						c0.1-1.1-10,1.8-10.9,2.8c-2.3,2.5-1.3,4.5-1.1,7.7C810.2,357.9,812.8,358.5,815.4,358.9z"/>
				</g>
				<polygon fill="#587BC9" points="736.1,420.2 791.2,411 816.6,359.5 806.5,351.2 779.6,386.8 751.6,385.6 725.6,386.8 				"/>
			</g>
		</g>
		<g>
			<g>
				<g>
					<g>
						<path fill="#587BC9" d="M238,570.5c3.1-2.1,3.1-5.8,3.1-9.5c0-6.9-1.3-14-2.9-20.8c-3-12.7-6.5-27.9-8-44.3
							C226.4,453.5,213,425,213,425l-4.3-11.5c-0.9-1.5-1.7-3-2.7-4.4c-5.4-8.5-14.8-22.9-24.8-25.2c-0.2,0-0.4-0.1-0.6-0.1
							c-10.5-2.3-24-1.2-33.6,3.9c-1.8,1-3.4,2.3-5,3.6c-4.7,3.8-8.5,5.8-10.5,11.5c-1.7,5-2.1,10.4-3.1,15.5
							c-2,10.5-3.1,21-4.7,31.6c-2.9,19.7-5.4,39.5-8.5,59.2c-1.6,10.1-3.2,20.3-4,30.5c-0.7,9.1-8.8,18.3-13.4,26.4
							c-1.6,2.8,21.4,10.1,23.4,10.6c9.5,2.2,19.6,1.7,29.5,1.7c21.5,0.1,43-0.6,64.5-2c7.1-0.5,15.9-1.8,22.2-5.4
							C237.6,570.7,237.8,570.6,238,570.5z"/>
					</g>
					<path fill="#D7E8F4" d="M168.7,382.6c0,0-12.1-3.3-13.8,24.1c-1.7,27.3-4.5,96.5-8.4,115.5c-3.9,19-9.8,56.2-9.8,56.2l37.1,1.3
						l42.4-3.3c0,0-14.5-26.8-16.7-45.7c-2.2-19,1.7-90.4-7.8-117.1C182.3,386.5,180.3,383,168.7,382.6z"/>
					<g>
						<polygon fill="#587BC9" points="223.6,443.4 226.4,446.8 236.4,432.8 196.2,388.2 181.2,383.7 188.4,403.3 						"/>
					</g>
					<polygon fill="#EFBFA5" points="190,431.9 181.2,425.2 183.9,421.3 190.9,424.5 191.4,422.1 198.2,428.8 195.9,433.2 					"/>
					<g>
						<polygon fill="#587BC9" points="224.5,430.2 224.1,431 196.6,425.7 192.6,434.8 226.4,446.8 						"/>
					</g>
				</g>
				<g>
					<g>
						<path fill="#3B455A" d="M185.6,360.9c1.8,5.5-0.8,11.4-3.1,16.4c-2.1,4.4-2.8,7.4,2.5,8.6c3,0.7,8.2,1.9,10.8-0.3
							c2-1.7,0.9-7-0.1-9.1c-0.7-1.6-2.7-2.4-3.3-4c-0.3-0.7-0.3-1.4-0.3-2.1c0-3,0.4-5.9,1.2-8.8c0.6-1.9,1.3-3.8,1.5-5.8
							c0.3-2.9-1.8-6.3-2.9-9c-2-5-9-11.7-14.9-7.7c-1.3,0.9-2.1,2.4-2.8,3.9c-0.4,0.9-0.8,1.8-0.8,2.7c0,3.8,3.4,4.5,5.9,6.3
							C182.2,354,184.5,357.4,185.6,360.9z"/>
						<path fill="#EFBFA5" d="M174.5,382.4c5.1-1.2,9.1-5.5,11-10.3c1.9-4.9,2-10.3,1.5-15.5c-1.8-17.3-23.3-16.2-30.6-2.9
							C150,365.2,159.7,385.9,174.5,382.4z"/>
					</g>
					<path fill="#EFBFA5" d="M174.5,380.5c-0.1,2-0.2,3.9-0.3,5.9c0,0.3,0,0.6-0.2,0.8c-0.2,0.2-0.6,0.2-0.9,0.2
						c-1.6-0.1-3.2-0.1-4.8-0.2c-0.8,0-1.6-0.1-2.3-0.4c-1.5-0.8-1.9-2.9-1.6-4.6c0.2-1.7,0.9-3.5,0.5-5.2c3.3,1.6,6.5-2.1,9.8-0.4
						L174.5,380.5z"/>
				</g>
				<path fill="#3B455A" d="M167.5,326.6c-5.7,1.9-9.3,7.6-14.8,9.9c-3.2,1.3-6.9,1.5-9.5,3.7c-5.8,5-1.1,15.6-5.9,21.6
					c-1,1.3-2.3,2.2-3.3,3.4c-2.1,2.7-2.4,6.4-2.6,9.8c0,0.8-0.1,1.6,0.1,2.4c0.7,7.9,12.3,7.4,16.8,6.9c5-0.6,3.3-3.3,3.3-3.3
					l-0.2-0.2c-0.5-3.2,0.8-6.7,3.4-8.7c0.9-0.8,2-1.4,2.7-2.4c1.5-2.3,0.1-5.3,0.3-8c0.9-10.9,19.2-8.6,24.3-16.3
					C188.5,336,178.2,322.9,167.5,326.6z"/>
			</g>
		</g>
		<g>
			<path fill="#305399" d="M227.3,176.1L69.9,188.9c-0.6,0-1.1,0.6-1,1.3l9.9,117.3c0.1,0.6,0.6,1.1,1.2,1.1l35.6-2.9l27.3,31.7
				c0.8,0.9,2.3,0.3,2.2-0.9l-2.3-33l61.6-5c18.9-1.5,32.8-19.1,31.1-39.3l-6.9-81.9C228.5,176.5,227.9,176,227.3,176.1z"/>
			<g>
				<polygon fill="#FFFFEE" points="209.8,201.2 111.7,209.2 111.4,205.2 209.5,197.2 				"/>
				<polygon fill="#FFFFEE" points="212.4,231.8 95.4,241.3 95,237.3 212,227.8 				"/>
				<polygon fill="#FFFFEE" points="214.9,262.4 98,271.9 97.6,267.9 214.6,258.4 				"/>
			</g>
		</g>
		<g>
			<g>
				<path fill="#305399" d="M544.8,216.3c0-34,39-61.5,87.1-61.5c48.1,0,87.1,27.5,87.1,61.5s-39,61.5-87.1,61.5
					c-1.9,0-3.8,0-5.7-0.1c-0.9,0-1.5,0.7-1.4,1.6l6.9,37.9c0.2,1.3-1.4,2.1-2.3,1.1l-45.3-50.4c-0.1-0.1-0.3-0.2-0.4-0.3
					C560.3,256.5,544.8,237.7,544.8,216.3z"/>
				<g>
					<path fill="#ECE9DE" d="M669,223.8c-5,0-5-7.8,0-7.8C674,216,674,223.8,669,223.8z"/>
					<path fill="#ECE9DE" d="M633.8,223.8c-5,0-5-7.8,0-7.8C638.9,216,638.9,223.8,633.8,223.8z"/>
					<path fill="#ECE9DE" d="M589.9,223.8c-5,0-5-7.8,0-7.8C594.9,216,594.9,223.8,589.9,223.8z"/>
				</g>
			</g>
		</g>
		<g>
			<g>
				<polygon fill="#EFBFA5" points="108,307.3 111.3,295.7 116.3,296.9 115.8,305.4 118.5,304.8 114.4,314.4 109.1,313.9 				"/>
			</g>
			<g>
				<polygon fill="#587BC9" points="152.2,395.2 115.6,365.6 116.9,311.6 106.2,311.1 90.5,374.5 127.2,420.8 				"/>
			</g>
		</g>
		<polygon fill="#D7E8F4" points="621.9,381.5 645.8,355.7 640.2,285.9 650.7,281.3 664.9,352.1 660.5,369.8 633.8,406.7 		"/>
		<polygon fill="#B97262" points="650.7,281.3 650.7,265.3 643.3,261 639.8,267.5 639.8,274 636,275.6 640.2,285.9 		"/>
		<g>
			<g>
				<path fill="#3B455A" d="M398,130.2l127.5-0.2c11.8,0,21.4,9.5,21.4,21.3l0.2,82.2c0,11.8-9.5,21.3-21.2,21.4l-20.5,0.2
					l-23.3,32.8c-0.7,1-2.2,0.5-2.2-0.7l-0.5-32.1l-81.2,0c-11.8,0-21.3-9.5-21.4-21.3l-0.2-82.1C376.6,139.8,386.2,130.2,398,130.2
					z"/>
				<g>
					<rect x="401.2" y="155" fill="#FFFFEF" width="101.9" height="4.2"/>
					<rect x="401.2" y="187.3" fill="#FFFFEF" width="121.5" height="4.2"/>
					<rect x="401.1" y="219.7" fill="#FFFFEF" width="121.5" height="4.2"/>
				</g>
			</g>
		</g>
		<g>
			<g>
				<path fill="#7DB5DB" d="M395.4,241c-0.3-16.3-13.6-29.3-29.8-29.2c0-0.5,0-1,0-1.5c-0.3-19.9-16.7-35.7-36.6-35.4
					c-10.8,0.2-20.4,5.1-26.9,12.8c-6.2-6.9-15.2-11.1-25.2-10.9c-17.8,0.3-32,14.4-32.7,32c-0.8,0-1.5-0.1-2.3-0.1
					c-16.4,0.3-29.4,13.8-29.2,30.2c0.2,13.2,9,24.2,21,27.9c-1.4,3.5-2.2,7.3-2.1,11.3c0.3,15.9,13.3,28.5,29.2,28.2
					c1.2,0,2.4-0.1,3.6-0.3l0.5,30.7c0,1.3,1.8,1.8,2.2,1.1l19-27.6c4.6,2.9,10.1,4.6,15.9,4.5c10.6-0.2,19.8-6.1,24.6-14.8
					c5,3,10.8,4.7,17.1,4.6c17.7-0.3,31.8-14.9,31.5-32.6c0-0.8-0.1-1.5-0.1-2.3C387.1,265.7,395.6,254.3,395.4,241z"/>
				<g>
					<path fill="#ECE9DE" d="M338.9,245.1c-4.4,0.1-4.3,6.9,0.1,6.8C343.4,251.8,343.3,245,338.9,245.1z"/>
					<path fill="#ECE9DE" d="M308.3,245.6c-4.4,0.1-4.3,6.9,0.1,6.8C312.8,252.4,312.7,245.5,308.3,245.6z"/>
					<path fill="#ECE9DE" d="M270,246.2c-4.4,0.1-4.3,6.9,0.1,6.8C274.5,253,274.4,246.2,270,246.2z"/>
				</g>
			</g>
		</g>
		<g>
			<g>
				<polygon fill="#B97262" points="365.8,298.1 359.2,288 354.7,290.7 357.8,298.6 355.1,298.8 361.8,306.7 366.8,304.6 				"/>
			</g>
			<g>
				<polygon fill="#96BFEE" points="344.1,388 376.1,356 358.6,304.8 368.7,301.1 402.7,356.9 358.9,411.2 				"/>
			</g>
		</g>
	</g>
</g>
</svg>
