<?xml version="1.0" encoding="utf-8"?>
<!-- Generator: Adobe Illustrator 24.0.2, SVG Export Plug-In . SVG Version: 6.00 Build 0)  -->
<svg version="1.1" xmlns="http://www.w3.org/2000/svg" xmlns:xlink="http://www.w3.org/1999/xlink" x="0px" y="0px"
	 viewBox="0 0 76.3 76.3" style="enable-background:new 0 0 76.3 76.3;" xml:space="preserve">
<style type="text/css">
	.st0{fill:#FFCFCF;}
	.st1{fill:#EAF2F9;}
	.st2{fill:#00711F;}
	.st3{fill:#65881C;}
	.st4{fill:#8BBE42;}
	.st5{fill:#6C9826;}
	.st6{fill:#A4CAB9;}
	.st7{fill:none;stroke:#C6E9D9;stroke-width:2.8652;stroke-linecap:round;stroke-miterlimit:10;}
	.st8{fill:#ACD663;}
	.st9{fill:#578E11;}
	.st10{fill:#6FAA2D;}
	.st11{fill:#FA363B;}
	.st12{fill:#F6EFF0;}
	.st13{fill:#F0D417;}
	.st14{fill:#75A725;}
	.st15{fill:#0F1F2C;}
	.st16{fill:#2A3C4E;}
	.st17{fill:#6D8244;}
	.st18{fill:#435122;}
	.st19{fill:#F7F5DF;}
	.st20{fill:#E0DCBD;}
	.st21{fill:#FFFEF3;}
	.st22{opacity:0.33;}
	.st23{opacity:0.26;}
	.st24{fill:#FF4C41;}
	.st25{opacity:0.22;fill:#FFFFFF;}
	.st26{opacity:0.25;}
	.st27{fill:#F4B245;}
	.st28{fill:#A9D45D;}
	.st29{fill:#00533F;}
	.st30{fill:#C7E2D7;}
	.st31{fill:#FF7F75;}
	.st32{fill:#4B4F43;}
	.st33{opacity:0.41;}
	.st34{fill:#162A47;}
	.st35{opacity:0.22;}
	.st36{fill:#EAF9F1;}
	.st37{opacity:0.5;}
	.st38{fill:#FCA712;}
	.st39{fill:#FABE59;}
	.st40{fill:#F9CB87;}
	.st41{fill:#FFDEB6;}
	.st42{fill:#803FCD;}
	.st43{fill:#5E309F;}
	.st44{fill:#595959;}
	.st45{fill:#FBFBF6;}
	.st46{fill:#3D456A;}
	.st47{fill:#1B203D;}
	.st48{fill:#783730;}
	.st49{fill:#582521;}
	.st50{fill:#FF2929;}
	.st51{fill:#FF144F;}
	.st52{fill:#FF6E51;stroke:#FF6E51;stroke-width:0.2786;stroke-miterlimit:10;}
	.st53{fill:#FCFFDC;}
	.st54{fill:#5D3405;}
	.st55{fill:#F3CC8C;}
	.st56{opacity:0.67;fill:#B78D47;}
	.st57{fill:#131A42;}
	.st58{opacity:0.84;}
	.st59{opacity:0.29;}
	.st60{fill:#535B7B;}
	.st61{fill:#C67DBF;}
	.st62{fill:#F5ACDF;}
	.st63{fill:#EF9900;}
	.st64{fill:#E5E5E5;}
	.st65{fill:#F4F4F4;}
	.st66{fill:#EFEFEF;}
	.st67{fill:#FFFFFF;}
	.st68{fill:#FDC653;}
	.st69{fill:#FDD05C;}
	.st70{fill:#FDDA55;}
	.st71{fill:#FDE356;}
	.st72{fill:#E79563;}
	.st73{opacity:0.14;fill:#976647;}
	.st74{opacity:0.26;fill:#FFEFE8;}
	.st75{fill:#B4501A;}
	.st76{fill:#E57838;}
	.st77{opacity:0.38;fill:#E57838;}
	.st78{opacity:0.26;fill:#E57838;}
	.st79{fill:#D0CEAE;}
	.st80{fill:#95947F;}
	.st81{fill:#BEBCA3;}
	.st82{fill:#FFFDD8;}
	.st83{fill:#FC9D29;}
	.st84{fill:#FDCE31;}
	.st85{fill:#FFFFEE;}
	.st86{opacity:0.72;fill:#FFFFFF;}
	.st87{fill:#DE2A2F;}
	.st88{fill:#E35E47;}
	.st89{fill:#C12427;}
	.st90{fill:#008641;}
	.st91{fill:#007A3B;}
	.st92{fill:#B1B6BA;}
	.st93{fill:#7C868D;}
	.st94{fill:#E6E6E6;}
	.st95{fill:#F7DBDB;}
	.st96{fill:#F0F0D3;}
	.st97{fill:#5A788F;}
	.st98{fill:#ECECEC;}
	.st99{fill:#36393F;}
	.st100{fill:#5F6568;}
	.st101{fill:#0A1114;}
	.st102{fill:#022444;}
	.st103{fill:#5A6975;}
	.st104{fill:url(#SVGID_1_);}
	.st105{fill:url(#SVGID_2_);}
	.st106{fill:url(#SVGID_3_);}
	.st107{fill:url(#SVGID_4_);}
	.st108{fill:url(#SVGID_5_);}
	.st109{fill:url(#SVGID_6_);}
	.st110{fill:url(#SVGID_7_);}
	.st111{fill:url(#SVGID_8_);}
	.st112{fill:url(#SVGID_9_);}
	.st113{fill:url(#SVGID_10_);}
	.st114{fill:url(#SVGID_11_);}
	.st115{fill:url(#SVGID_12_);}
	.st116{fill:url(#SVGID_13_);}
	.st117{fill:url(#SVGID_14_);}
	.st118{fill:url(#SVGID_15_);}
	.st119{fill:url(#SVGID_16_);}
	.st120{fill:url(#SVGID_17_);}
	.st121{fill:url(#SVGID_18_);}
	.st122{fill:url(#SVGID_19_);}
	.st123{fill:url(#SVGID_20_);}
	.st124{fill:url(#SVGID_21_);}
	.st125{fill:url(#SVGID_22_);}
	.st126{fill:url(#SVGID_23_);}
	.st127{fill:url(#SVGID_24_);}
	.st128{fill:url(#SVGID_25_);}
	.st129{fill:url(#SVGID_26_);}
	.st130{fill:url(#SVGID_27_);}
	.st131{fill:url(#SVGID_28_);}
	.st132{fill:url(#SVGID_29_);}
	.st133{fill:url(#SVGID_30_);}
	.st134{fill:url(#SVGID_31_);}
	.st135{fill:url(#SVGID_32_);}
	.st136{fill:url(#SVGID_33_);}
	.st137{fill:url(#SVGID_34_);}
	.st138{fill:url(#SVGID_35_);}
	.st139{fill:url(#SVGID_36_);}
	.st140{fill:url(#SVGID_37_);}
	.st141{fill:url(#SVGID_38_);}
	.st142{fill:url(#SVGID_39_);}
	.st143{fill:url(#SVGID_40_);}
	.st144{fill:url(#SVGID_41_);}
	.st145{fill:url(#SVGID_42_);}
	.st146{fill:url(#SVGID_43_);}
	.st147{opacity:0.4;fill:#A7D7DB;}
	.st148{opacity:0.3;fill:url(#SVGID_44_);}
	.st149{opacity:0.3;fill:url(#SVGID_45_);}
	.st150{fill:url(#SVGID_46_);}
	.st151{fill:#87C2CC;}
	.st152{opacity:0.3;fill:url(#SVGID_47_);}
	.st153{fill:url(#SVGID_48_);}
	.st154{fill:#FFFDEC;}
	.st155{fill:#F6EDCE;}
	.st156{opacity:0.7;fill:url(#SVGID_49_);}
	.st157{fill:#EDB856;}
	.st158{fill:#AA7636;}
	.st159{fill-rule:evenodd;clip-rule:evenodd;fill:#4E8236;}
	.st160{fill-rule:evenodd;clip-rule:evenodd;fill:#619538;}
	.st161{fill-rule:evenodd;clip-rule:evenodd;fill:#437432;}
	.st162{fill-rule:evenodd;clip-rule:evenodd;fill:#F29A1E;}
	.st163{fill-rule:evenodd;clip-rule:evenodd;fill:#F9B918;}
	.st164{fill-rule:evenodd;clip-rule:evenodd;fill:#EA8821;}
	.st165{fill-rule:evenodd;clip-rule:evenodd;fill:#FFDB36;}
	.st166{fill-rule:evenodd;clip-rule:evenodd;fill:#853319;}
	.st167{fill-rule:evenodd;clip-rule:evenodd;fill:#582814;}
	.st168{fill-rule:evenodd;clip-rule:evenodd;fill:#BC5423;}
	.st169{fill-rule:evenodd;clip-rule:evenodd;fill:#81AF41;}
	.st170{fill-rule:evenodd;clip-rule:evenodd;fill:#BAD27B;}
	.st171{fill-rule:evenodd;clip-rule:evenodd;fill:#C6D98F;}
	.st172{fill-rule:evenodd;clip-rule:evenodd;fill:#DEE8BC;}
	.st173{fill-rule:evenodd;clip-rule:evenodd;fill:#EDF2DC;}
	.st174{fill-rule:evenodd;clip-rule:evenodd;fill:#FCB92C;}
	.st175{fill-rule:evenodd;clip-rule:evenodd;fill:#F2AA28;}
	.st176{fill-rule:evenodd;clip-rule:evenodd;fill:#FDDB45;}
	.st177{fill-rule:evenodd;clip-rule:evenodd;fill:#E09223;}
	.st178{fill:#CEE4EE;}
	.st179{fill:#A8D0A0;}
	.st180{fill:#82B17A;}
	.st181{fill:#EA7D37;}
	.st182{fill:#FCB74B;}
	.st183{fill:#FCA22E;}
	.st184{fill:#D1F0C9;}
	.st185{fill:#95C18C;}
	.st186{fill:#2D4988;}
	.st187{fill:#6B9EEA;}
	.st188{fill:#93BEFC;}
	.st189{fill:#FBEBDB;}
	.st190{fill:#EDCAAC;}
	.st191{fill:#FCB486;}
	.st192{fill:#E76C37;}
	.st193{fill:#243961;}
	.st194{fill:#FCAF7F;}
	.st195{fill:#2C5093;}
	.st196{fill:#203E6E;}
	.st197{fill:#E78D56;}
	.st198{fill:#2D3B63;}
	.st199{fill:#FCB180;}
	.st200{fill:#F6964F;}
	.st201{fill:#EA9764;}
	.st202{fill:#F16C25;}
	.st203{fill:#FC8F4E;}
	.st204{fill:#FDD8A2;}
	.st205{fill:#2E3651;}
	.st206{opacity:0.17;fill-rule:evenodd;clip-rule:evenodd;fill:#2E699B;}
	.st207{fill-rule:evenodd;clip-rule:evenodd;fill:#116294;}
	.st208{fill:#407CAD;}
	.st209{fill-rule:evenodd;clip-rule:evenodd;fill:#F4F4F4;}
	.st210{fill-rule:evenodd;clip-rule:evenodd;fill:#CBCBCB;}
	.st211{fill-rule:evenodd;clip-rule:evenodd;fill:#E35562;}
	.st212{fill-rule:evenodd;clip-rule:evenodd;fill:#F0B0B6;}
	.st213{fill-rule:evenodd;clip-rule:evenodd;fill:#6B8538;}
	.st214{fill-rule:evenodd;clip-rule:evenodd;fill:#A8C572;}
	.st215{fill-rule:evenodd;clip-rule:evenodd;fill:#D6F0A5;}
	.st216{fill-rule:evenodd;clip-rule:evenodd;fill:#FDDFA4;}
	.st217{fill-rule:evenodd;clip-rule:evenodd;fill:#FFF7E8;}
	.st218{fill-rule:evenodd;clip-rule:evenodd;fill:#CC761D;}
	.st219{fill-rule:evenodd;clip-rule:evenodd;fill:#FCAC2A;}
	.st220{fill-rule:evenodd;clip-rule:evenodd;fill:#FAC256;}
	.st221{fill-rule:evenodd;clip-rule:evenodd;fill:#ADD663;}
	.st222{fill-rule:evenodd;clip-rule:evenodd;fill:#D14451;}
	.st223{fill-rule:evenodd;clip-rule:evenodd;fill:#E5E5E5;}
	.st224{fill-rule:evenodd;clip-rule:evenodd;fill:#FFFFFF;}
	.st225{opacity:0.2;fill-rule:evenodd;clip-rule:evenodd;}
	.st226{fill-rule:evenodd;clip-rule:evenodd;fill:#2E699B;}
	.st227{fill:#E8A98B;}
	.st228{fill:#C0D290;}
	.st229{fill:#3EAC8E;}
	.st230{fill:#33997D;}
	.st231{fill:#B4C38A;}
	.st232{fill:#ECE7D0;}
	.st233{fill:#F9C193;}
	.st234{fill:#EEEEEE;}
	.st235{fill:#4CA3CF;}
	.st236{opacity:0.64;}
	.st237{fill:#5CB5DA;}
	.st238{opacity:0.51;}
	.st239{fill:#A2CCDC;}
	.st240{fill:#F5CFB3;}
	.st241{fill:#504D50;}
	.st242{fill:#116694;}
	.st243{fill:#F0F0F0;}
	.st244{fill:#4897C1;}
	.st245{fill:#E1B493;}
	.st246{fill:#FCCB78;}
	.st247{fill:#CC2A4A;}
	.st248{fill:#BA8B80;}
	.st249{fill:#BE705F;}
	.st250{fill:#C3D5A1;}
	.st251{fill:#B7C88F;}
	.st252{fill:#FB9036;}
	.st253{opacity:0.1;}
	.st254{fill:#A86254;}
	.st255{clip-path:url(#SVGID_51_);}
	.st256{fill:#FEDE53;}
	.st257{fill:#A4CD77;}
	.st258{opacity:0.54;fill:#FFF8D9;}
	.st259{fill:#72A436;}
	.st260{fill:#21697E;}
	.st261{opacity:0.46;fill:#FDBD49;}
	.st262{fill:#FDC33D;}
	.st263{fill:#FDAE3A;}
	.st264{fill:#FDDC5E;}
	.st265{fill:#C9E4D7;}
	.st266{fill:none;stroke:#054248;stroke-width:3.7099;stroke-miterlimit:10;}
	.st267{fill:#B0D3C1;}
	.st268{fill:#118275;}
	.st269{fill:#085853;}
	.st270{fill:#BB9795;}
	.st271{fill:#CCCBCA;}
	.st272{fill:#EFEBE4;}
	.st273{fill:#FC6A5E;}
	.st274{fill:#DE4A46;}
	.st275{fill:#CF4345;}
	.st276{fill:#AC7069;}
	.st277{fill:#8D504A;}
	.st278{fill:#654A48;}
	.st279{fill:#583939;}
	.st280{fill:#412929;}
	.st281{fill:#C6DFA9;}
	.st282{fill:#E2EFD3;}
	.st283{fill:#75456A;}
	.st284{fill:#84AE5D;}
	.st285{fill:#FDBD49;}
	.st286{fill:#FBC03C;}
	.st287{fill:#FA9638;}
	.st288{fill:#FBC63C;}
	.st289{fill:#E37A34;}
</style>
<g id="BACKGROUND">
</g>
<g id="OBJECTS">
	<g>
		<linearGradient id="SVGID_1_" gradientUnits="userSpaceOnUse" x1="45.4455" y1="26.6522" x2="30.606" y2="52.0913">
			<stop  offset="0" style="stop-color:#B4D3CC"/>
			<stop  offset="1" style="stop-color:#B9DFE2"/>
		</linearGradient>
		<path class="st104" d="M63.9,36.2c-0.6,2.8-2.2,12.4-12.2,17.1c-2.2,1-4.8,1.8-7.8,2.2c-1.8,0.3-3.8,0.4-6,0.3
			c-1.1,0-2.1-0.1-3-0.2c-4.3-0.5-7.7-1.7-10.3-3.3c-9.7-5.9-10.2-17.1-10.2-17.1l0.1,0c0.3,2.2,1.3,4.4,4.9,6
			c0.1,0.1,0.3,0.1,0.4,0.2c1.8,0.8,4.3,1.4,7.5,1.8c3.5,0.4,7.8,0.6,13.4,0.4c2.3-0.1,4.3-0.2,6.1-0.4c4.9-0.5,8.5-1.3,11-2.3
			c0.3-0.1,0.6-0.2,0.9-0.4c3.3-1.4,4.6-3.1,5.1-4.4L63.9,36.2z"/>
		<path class="st147" d="M34.9,55.6c-4.3-0.5-7.7-1.7-10.3-3.3c-3.4-4.2-4.7-9.1-5.2-11.1c0.1,0.1,0.3,0.1,0.4,0.2
			c1.8,0.8,4.3,1.4,7.5,1.8C28.1,48.2,31.7,52.6,34.9,55.6z"/>
		<linearGradient id="SVGID_2_" gradientUnits="userSpaceOnUse" x1="59.3685" y1="34.6224" x2="45.0677" y2="59.1381">
			<stop  offset="0" style="stop-color:#B4D3CC"/>
			<stop  offset="1" style="stop-color:#B9DFE2"/>
		</linearGradient>
		<path style="opacity:0.3;fill:url(#SVGID_2_);" d="M63.9,36.2c-0.7,3.4-2.9,17-20,19.3c1.9-3.6,2.6-7.8,2.8-12.2
			c5.5-0.5,9.3-1.5,11.9-2.6c3.3-1.4,4.6-3.1,5.1-4.4L63.9,36.2z"/>
		<linearGradient id="SVGID_3_" gradientUnits="userSpaceOnUse" x1="51.754" y1="44.7794" x2="63.9047" y2="44.7794">
			<stop  offset="0" style="stop-color:#B4D3CC"/>
			<stop  offset="1" style="stop-color:#B9DFE2"/>
		</linearGradient>
		<path style="opacity:0.3;fill:url(#SVGID_3_);" d="M63.9,36.2c-0.6,2.8-2.2,12.4-12.2,17.1c3.8-3.6,5.4-9,6-12.3
			c0.3-0.1,0.6-0.2,0.9-0.4c3.3-1.4,4.6-3.1,5.1-4.4L63.9,36.2z"/>
		<linearGradient id="SVGID_4_" gradientUnits="userSpaceOnUse" x1="14.3024" y1="35.4404" x2="63.9047" y2="35.4404">
			<stop  offset="0" style="stop-color:#B4D3CC"/>
			<stop  offset="1" style="stop-color:#B9DFE2"/>
		</linearGradient>
		<ellipse class="st107" cx="39.1" cy="35.4" rx="24.8" ry="9.9"/>
		<path class="st151" d="M62,35.3c0,1.2-0.8,2.4-2.3,3.5c-0.2,0.1-0.4,0.3-0.6,0.4c-0.4,0.3-0.9,0.6-1.4,0.8
			c-0.3,0.2-0.7,0.3-1.1,0.5c-0.3,0.2-0.7,0.3-1.1,0.5c0,0-0.1,0-0.1,0c-1.4,0.6-3.1,1.1-4.8,1.5c-3.4,0.8-7.4,1.3-11.6,1.3
			c-5.7,0-10.9-0.8-14.9-2.2h0c-0.2-0.1-0.3-0.1-0.5-0.2c-0.5-0.2-1-0.4-1.5-0.6c-1.3-0.5-2.4-1.1-3.3-1.7c-0.1-0.1-0.3-0.2-0.4-0.3
			c-1.5-1.1-2.4-2.3-2.4-3.6c0-2.4,3.2-4.6,8.2-6.1c0.9-0.3,1.9-0.5,2.9-0.7c0.8-0.2,1.6-0.3,2.4-0.5c0.2,0,0.5-0.1,0.7-0.1
			c0.1,0,0.1,0,0.2,0c1.8-0.3,3.7-0.5,5.7-0.6c0.2,0,0.4,0,0.6,0c0.3,0,0.6,0,0.9,0c0.3,0,0.6,0,0.9,0c0.2,0,0.3,0,0.5,0
			c1.5,0,3,0.1,4.4,0.2c0,0,0,0,0,0c1.6,0.1,3.1,0.3,4.5,0.5c0.3,0,0.6,0.1,0.9,0.2c0.3,0,0.5,0.1,0.8,0.1c0.8,0.1,1.5,0.3,2.2,0.5
			c0.2,0,0.4,0.1,0.5,0.1C58.2,30.3,62,32.7,62,35.3z"/>
		<path class="st147" d="M62,35.3c0,2.8-4.5,5.6-11.3,7.2c0.1-5.1-0.3-10.4-1-14.3C57,29.5,62,32.3,62,35.3z"/>
		<linearGradient id="SVGID_5_" gradientUnits="userSpaceOnUse" x1="16.16" y1="35.2438" x2="24.3216" y2="35.2438">
			<stop  offset="0" style="stop-color:#B4D3CC"/>
			<stop  offset="1" style="stop-color:#B9DFE2"/>
		</linearGradient>
		<path style="opacity:0.3;fill:url(#SVGID_5_);" d="M23.6,41.4c-4.6-1.6-7.5-3.9-7.5-6.1c0-2.4,3.2-4.6,8.2-6.1
			C23.4,32.4,22.8,36.7,23.6,41.4z"/>
		<g>
			<linearGradient id="SVGID_6_" gradientUnits="userSpaceOnUse" x1="18.5263" y1="33.1391" x2="59.7041" y2="33.1391">
				<stop  offset="0" style="stop-color:#B4D3CC"/>
				<stop  offset="1" style="stop-color:#B9DFE2"/>
			</linearGradient>
			<path class="st109" d="M57.7,40c0.5-0.3,1-0.5,1.4-0.8c0.2-0.1,0.4-0.3,0.6-0.4c-0.1-0.4-0.3-0.9-0.7-1.2c-1.3-1.3-2.6-0.7-3-0.5
				c-0.1,0-0.1,0.1-0.1,0.1c0,0,0,0,0,0c0.2-0.2,1.4-1.8,0.6-2.8c-0.9-1-1.7-0.7-1.7-0.7s1.6-2.7,0.3-3.4c-1.3-0.7-2.5,0.1-2.5,0.1
				s0.1-0.8,0-1.6c-0.1-0.7-0.4-1.3-1-1.5c-1.4-0.5-2.8,0.6-2.8,0.6s0.6-2.9-1.8-3.8c-2.4-0.9-3.9,0.4-3.9,0.4s-0.3-0.8-0.8-1.6
				c0-0.1-0.1-0.1-0.1-0.2c-0.1,0-0.2,0-0.3,0c-0.2,0-0.5,0-0.8,0c-0.1,0-0.2,0-0.2,0c-0.2,0-0.3,0-0.4,0c-0.1,0-0.2,0-0.2,0
				c-0.6,0-1.1,0-1.7,0c-0.1,0-0.2,0-0.2,0c-1.2,0-2.3,0.1-3.4,0.2c-0.1,0-0.1,0-0.2,0c-0.1,0-0.3,0-0.4,0c0,0.1-0.1,0.2-0.1,0.3
				c-0.1,0.2-0.2,0.5-0.2,0.7c-0.1,0.3-0.1,0.7-0.1,1.1c0,0-1.5-1-2.4-0.1c0,0,0,0,0,0c-0.5,0.5-0.7,1.4-0.8,2.1
				c0,0.3-0.1,0.6-0.1,0.8c0,0.3,0,0.6,0,0.6s-0.3-0.3-0.7-0.5c-0.5-0.2-1.2-0.3-2,0.2c-0.1,0.1-0.3,0.2-0.4,0.3
				c-0.5,0.4-0.8,1.1-1,1.7c0,0,0,0,0,0c-0.2,0.6-0.3,1.2-0.4,1.6c0,0,0,0,0,0c0,0.3-0.1,0.5-0.1,0.5s-0.9-0.4-2,0.3
				c-0.6,0.4-0.9,1.3-1,2c0,0,0,0,0,0c-0.1,0.5-0.1,0.9-0.1,0.9s0-0.1-0.1-0.2c-0.2-0.4-0.7-1.6-1.5-1.4c-0.1,0-0.2,0.1-0.3,0.2
				c-0.4,0.3-0.7,0.5-0.8,0.9c-0.3,0.5-0.2,1,0.1,1.9c0.1,0.2,0.2,0.5,0.4,0.8c0,0-1.3,0.1-1.9,0.9c-0.1,0.1-0.2,0.2-0.2,0.4
				c0.1,0.1,0.2,0.2,0.4,0.3c0.9,0.6,2,1.2,3.3,1.7c0.5,0.2,1,0.4,1.5,0.6c0.2,0.1,0.3,0.1,0.5,0.2h0c4,1.3,9.2,2.2,14.9,2.2
				c4.2,0,8.2-0.5,11.6-1.3c1.8-0.4,3.4-0.9,4.8-1.5L57.7,40z"/>
			<path class="st154" d="M57.7,40c0.5-0.3,1-0.5,1.4-0.8C59,38,58.3,37.2,57.7,37c-0.4-0.2-0.8-0.2-1.2-0.1c-0.2,0-0.4,0.1-0.6,0.2
				c0,0-0.1,0-0.1,0c-0.4,0.2-0.8,0.4-0.8,0.5c0.1-0.1,1.4-1.9,0.4-3.2c-0.4-0.6-0.9-0.6-1.4-0.3c0.9-0.9,2-2.3,1-3.2
				c-1.5-1.4-3.6,0.4-3.7,0.5c0-0.1,0.9-1.5,0.5-2.6c-0.1-0.3-0.3-0.6-0.7-0.9c-0.8-0.5-1.7-0.2-2.3,0.2c-0.7,0.4-1.1,0.9-1.2,1
				c0-0.1,0.2-0.6,0.3-1.2c0.1-0.9,0-2.1-1-3.1c-1.7-1.6-4.7,0.8-4.7,0.8s-0.1-2-1.4-2.9c0,0,0,0,0,0c-0.3-0.2-0.5-0.2-0.7,0l0,0
				c-0.8,0.7-1.2,2.6-1.2,2.6s0-1-0.8-2.6c0,0,0,0,0,0c-0.5-1.2-1.4-2.2-2.8-2c-1.3,0.1-1.7,1.2-1.8,2.4c0,0.3,0,0.6,0,0.9
				c0.1,1.2,0.5,2.3,0.6,2.6c-0.2-0.4-1.5-2.3-3-1.6c0,0-0.1,0-0.1,0.1c-0.7,0.4-0.9,1.3-0.8,2.1c0,0.3,0,0.5,0.1,0.8
				c0.1,0.6,0.2,1,0.3,1.1c-0.1-0.2-1.5-1.6-3.5-0.1c-0.5,0.4-0.8,0.9-1,1.4c0,0,0,0,0,0c-0.2,0.6-0.3,1.1-0.4,1.6c0,0,0,0,0,0
				c-0.1,0.5,0,0.8,0,0.8c-1.9-0.1-2.7,0.9-3,2c0,0,0,0,0,0c-0.1,0.2-0.1,0.5-0.1,0.7c-0.1,0.6,0,1.2,0.1,1.5
				c-0.1-0.6-0.5-2-1.1-2.6c-0.1-0.1-0.3-0.2-0.4-0.3c-0.2-0.1-0.4-0.1-0.6,0c-0.4,0.1-0.5,0.5-0.5,1c0,0.7,0.4,1.6,0.7,2.4
				c-0.2-0.2-0.4-0.4-0.6-0.5c-0.3-0.2-0.7-0.2-1.1,0.1c-0.4,0.3-0.5,0.9-0.4,1.6c0,0.2,0.1,0.4,0.2,0.6c0.9,0.6,2,1.2,3.3,1.7
				c0.5,0.2,1,0.4,1.5,0.6c0.2,0.1,0.3,0.1,0.5,0.2h0c4,1.3,9.2,2.2,14.9,2.2c4.2,0,8.2-0.5,11.6-1.3c1.8-0.4,3.4-0.9,4.8-1.5
				L57.7,40z"/>
			<path class="st155" d="M50,38.5c0,0,0.1,0.3,0.2,0.8C50,38.9,50,38.5,50,38.5z"/>
			<path class="st155" d="M57.7,40c0.5-0.3,1-0.5,1.4-0.8C59,38,58.3,37.2,57.7,37c-0.4-0.2-0.8-0.2-1.2-0.1c0,1.5-0.5,2.9-2.3,3.7
				c-2.8,1.1-3.7-0.2-4.1-1.2c0.1,1.1,0,3-2.6,3.2c-0.5,0-0.9,0-1.3-0.1c-0.2,0-0.4-0.1-0.6-0.2c-2.2-0.9-3.1-3.7-3.2-3.9
				c0.1,0.3,0.9,4.6-3.6,4.7c-4.6,0.1-7.8-3.3-7.8-3.3s-0.4,0.7-1,1.3c-0.1,0.1-0.2,0.2-0.3,0.3c-0.9,0.7-2.1,1.2-3.6,0.6
				c-3.1-1.2,2.1-4.3,2.3-4.5c-0.3,0.1-7.4,1.5-6.8-3.4c-0.1-0.1-0.3-0.2-0.4-0.3c-0.2-0.1-0.4-0.1-0.6,0c-0.4,0.1-0.5,0.5-0.5,1
				c0,0.7,0.4,1.6,0.7,2.4c-0.2-0.2-0.4-0.4-0.6-0.5c-0.3-0.2-0.7-0.2-1.1,0.1c-0.4,0.3-0.5,0.9-0.4,1.6c0,0.2,0.1,0.4,0.2,0.6
				c0.9,0.6,2,1.2,3.3,1.7c0.5,0.2,1,0.4,1.5,0.6c0.2,0.1,0.3,0.1,0.5,0.2h0c4,1.3,9.2,2.2,14.9,2.2c4.2,0,8.2-0.5,11.6-1.3
				c1.8-0.4,3.4-0.9,4.8-1.5L57.7,40z"/>
			<g>
				<path class="st155" d="M32.1,34.1c0,0-1.6-1.2-1-2.4c0.6-1.3,2,0.2,2,0.2s-1-0.5-1.5,0.3C31.3,32.9,32.1,34.1,32.1,34.1z"/>
				<path class="st155" d="M41.3,31.5c0,0,1.3,1.3,2.5,0.5c1.2-0.8-0.6-2.6-0.6-2.6s0.9,1.2-0.2,1.9C42,32,41.3,31.5,41.3,31.5z"/>
				<path class="st155" d="M36.4,28.7c0,0-1-2,0.6-2.4c1.6-0.3,1.7,1.5,1.7,1.5s-0.6-0.7-1.5-0.7C36.2,27.1,36.4,28.7,36.4,28.7z"/>
				<path class="st155" d="M33.9,37.9c0,0,0.5,1.6,1.7,1.7c1.2,0,1.3-1.7,1.3-1.7S36,39,35.2,38.9C34.4,38.9,33.9,37.9,33.9,37.9z"
					/>
				<path class="st155" d="M45.8,37.3c0,0-0.4-1,0.8-1.4c1.1-0.4,1.5,0.6,1.5,0.6s-0.3-1.6-1.7-1.2C44.9,35.6,45.8,37.3,45.8,37.3z"
					/>
				<path class="st155" d="M23,38.7c0,0-0.1,0-0.1,0.1C22.9,38.7,22.9,38.7,23,38.7z"/>
				<path class="st155" d="M24.6,41.4c0,0-0.2,0.1-0.4,0.1h0c-0.2-0.1-0.3-0.1-0.5-0.2c-0.5-0.2-1-0.4-1.5-0.6
					c-0.5-1.3,0.3-1.9,0.7-2c-0.2,0.1-0.5,0.5-0.2,1.4C23,41.5,24.6,41.4,24.6,41.4z"/>
				<path class="st155" d="M55.5,41c0,0,0.1,0,0.1,0L55.5,41C55.5,41,55.5,41,55.5,41z"/>
				<path class="st155" d="M55.6,40.9l1.2-0.5c0,0,0,0-0.1,0.1C56.3,40.6,56,40.8,55.6,40.9C55.6,40.9,55.6,40.9,55.6,40.9z"/>
				<path class="st155" d="M57.7,40l-1,0.5c0.5-0.7-0.2-1.6-0.2-1.7C56.6,38.8,57.7,39.3,57.7,40z"/>
			</g>
			<path class="st155" d="M25.9,34.1c0,0-0.3,0.6,0.1,1.1c0.4,0.5,1.4,0.1,1.4,0.1s-0.7,1-1.8,0.3C24.9,35.2,25.9,34.1,25.9,34.1z"
				/>
			<path class="st155" d="M37.4,34.6c0,0,0.1-0.8,1-0.8c0.9-0.1,1.1,0.7,1.1,0.7s0.3-1.2-1.1-1.3C36.9,33.2,37.4,34.6,37.4,34.6z"/>
			<path class="st155" d="M48.9,31.7c0,0,0.2-1,0.9-1c0.7-0.1,1.2,1,1.2,1s0-1.7-1.3-1.7C48.4,30.1,48.9,31.7,48.9,31.7z"/>
			<path class="st155" d="M28.6,29c0,0-0.9,0.5-0.7,1c0.2,0.5,1.1,0.6,1.6,0.5c0,0-0.8-0.1-1-0.5C28.2,29.7,28.6,29,28.6,29z"/>
			<path class="st155" d="M34.6,22.3c0,0-0.3,0.9,0.3,1.2c0.6,0.3,1.4-0.6,1.4-0.6s-0.8,0.4-1.3,0.2C34.5,22.8,34.6,22.3,34.6,22.3z
				"/>
			<path class="st155" d="M43.5,27.3c0,0,0-0.1,0-0.2c0-0.3,0.2-0.8,0.8-1c0.8-0.2,0.9,0.6,0.9,0.6s-0.1-1.5-1.1-1.2
				C43.1,25.9,43.5,27.3,43.5,27.3z"/>
			<path class="st155" d="M39.5,40.2c0,0-0.3,1.1,0.4,1.5c0.7,0.3,1.4-0.8,1.4-0.8s-0.6,0.6-1.1,0.3C39.7,40.8,39.5,40.2,39.5,40.2z
				"/>
			<path class="st155" d="M41.8,36.5c-0.2,0-0.8,1.6,0.5,1.6c0,0-0.9,0.1-1.3-0.5C40.6,37,41.8,36.5,41.8,36.5z"/>
			<path class="st155" d="M49.6,39c0,0,1-1.2,1.5,0.3c0,0,0.4-1.1-0.5-1.2C49.6,38,49.6,39,49.6,39z"/>
			<path class="st155" d="M44.3,42.7c0,0,1.8,0,1.6-1.2c0,0,0.8,1.1,0,1.5C45.2,43.4,44.3,42.7,44.3,42.7z"/>
			<path class="st155" d="M30.1,40.2c0,0-0.4,0.8,0.3,1.3c0.7,0.4,1.4-0.2,1.4-0.2s-0.9,1.2-1.7,0.6C29.2,41.2,30.1,40.2,30.1,40.2z
				"/>
			<path class="st155" d="M29.3,38.1c0,0-0.3-1.1,0.6-1.3c0.8-0.2,1.2,0.3,1.2,0.3s-0.7-1.2-1.5-0.9C28.7,36.5,29.3,38.1,29.3,38.1z
				"/>
			<path class="st155" d="M31.8,29.6c0,0-0.1-0.9,0.5-1.4c0.6-0.4,1,0.2,1,0.2s-0.7-1.1-1.3-0.7C31.3,28.2,31.8,29.6,31.8,29.6z"/>
			<path class="st155" d="M49.9,34.1c0,0,1.9,0.3,1.3,1.8c0,0,1-1.4,0.1-2C50.4,33.4,49.9,34.1,49.9,34.1z"/>
			<path class="st155" d="M36,30.4c0,0-0.4,1.4,1.1,1.3c0,0-0.9,0.6-1.5,0.1C35,31.3,36,30.4,36,30.4z"/>
		</g>
		<linearGradient id="SVGID_7_" gradientUnits="userSpaceOnUse" x1="14.8969" y1="39.9767" x2="29.5545" y2="39.9767">
			<stop  offset="0" style="stop-color:#B4D3CC"/>
			<stop  offset="1" style="stop-color:#B9DFE2"/>
		</linearGradient>
		<path style="opacity:0.7;fill:url(#SVGID_7_);" d="M14.9,36.2c0,0,1,5.7,14.7,7.5c0,0-3.4-0.6-8.2-3
			C16.4,38.4,14.9,36.2,14.9,36.2z"/>
	</g>
	<g>
		<path class="st178" d="M38.2,76.3C17.1,76.3,0,59.2,0,38.2C0,17.1,17.1,0,38.2,0s38.2,17.1,38.2,38.2
			C76.3,59.2,59.2,76.3,38.2,76.3z M38.2,1C17.7,1,1,17.7,1,38.2s16.7,37.2,37.2,37.2s37.2-16.7,37.2-37.2S58.7,1,38.2,1z"/>
	</g>
</g>
</svg>
