<?xml version="1.0" encoding="utf-8"?>
<!-- Generator: Adobe Illustrator 24.0.2, SVG Export Plug-In . SVG Version: 6.00 Build 0)  -->
<svg version="1.1" xmlns="http://www.w3.org/2000/svg" xmlns:xlink="http://www.w3.org/1999/xlink" x="0px" y="0px"
	 viewBox="0 0 76.3 76.3" style="enable-background:new 0 0 76.3 76.3;" xml:space="preserve">
<style type="text/css">
	.st0{fill:#FFCFCF;}
	.st1{fill:#EAF2F9;}
	.st2{fill:#00711F;}
	.st3{fill:#65881C;}
	.st4{fill:#8BBE42;}
	.st5{fill:#6C9826;}
	.st6{fill:#A4CAB9;}
	.st7{fill:none;stroke:#C6E9D9;stroke-width:2.8652;stroke-linecap:round;stroke-miterlimit:10;}
	.st8{fill:#ACD663;}
	.st9{fill:#578E11;}
	.st10{fill:#6FAA2D;}
	.st11{fill:#FA363B;}
	.st12{fill:#F6EFF0;}
	.st13{fill:#F0D417;}
	.st14{fill:#75A725;}
	.st15{fill:#0F1F2C;}
	.st16{fill:#2A3C4E;}
	.st17{fill:#6D8244;}
	.st18{fill:#435122;}
	.st19{fill:#F7F5DF;}
	.st20{fill:#E0DCBD;}
	.st21{fill:#FFFEF3;}
	.st22{opacity:0.33;}
	.st23{opacity:0.26;}
	.st24{fill:#FF4C41;}
	.st25{opacity:0.22;fill:#FFFFFF;}
	.st26{opacity:0.25;}
	.st27{fill:#F4B245;}
	.st28{fill:#A9D45D;}
	.st29{fill:#00533F;}
	.st30{fill:#C7E2D7;}
	.st31{fill:#FF7F75;}
	.st32{fill:#4B4F43;}
	.st33{opacity:0.41;}
	.st34{fill:#162A47;}
	.st35{opacity:0.22;}
	.st36{fill:#EAF9F1;}
	.st37{opacity:0.5;}
	.st38{fill:#FCA712;}
	.st39{fill:#FABE59;}
	.st40{fill:#F9CB87;}
	.st41{fill:#FFDEB6;}
	.st42{fill:#803FCD;}
	.st43{fill:#5E309F;}
	.st44{fill:#595959;}
	.st45{fill:#FBFBF6;}
	.st46{fill:#3D456A;}
	.st47{fill:#1B203D;}
	.st48{fill:#783730;}
	.st49{fill:#582521;}
	.st50{fill:#FF2929;}
	.st51{fill:#FF144F;}
	.st52{fill:#FF6E51;stroke:#FF6E51;stroke-width:0.2786;stroke-miterlimit:10;}
	.st53{fill:#FCFFDC;}
	.st54{fill:#5D3405;}
	.st55{fill:#F3CC8C;}
	.st56{opacity:0.67;fill:#B78D47;}
	.st57{fill:#131A42;}
	.st58{opacity:0.84;}
	.st59{opacity:0.29;}
	.st60{fill:#535B7B;}
	.st61{fill:#C67DBF;}
	.st62{fill:#F5ACDF;}
	.st63{fill:#EF9900;}
	.st64{fill:#E5E5E5;}
	.st65{fill:#F4F4F4;}
	.st66{fill:#EFEFEF;}
	.st67{fill:#FFFFFF;}
	.st68{fill:#FDC653;}
	.st69{fill:#FDD05C;}
	.st70{fill:#FDDA55;}
	.st71{fill:#FDE356;}
	.st72{fill:#E79563;}
	.st73{opacity:0.14;fill:#976647;}
	.st74{opacity:0.26;fill:#FFEFE8;}
	.st75{fill:#B4501A;}
	.st76{fill:#E57838;}
	.st77{opacity:0.38;fill:#E57838;}
	.st78{opacity:0.26;fill:#E57838;}
	.st79{fill:#D0CEAE;}
	.st80{fill:#95947F;}
	.st81{fill:#BEBCA3;}
	.st82{fill:#FFFDD8;}
	.st83{fill:#FC9D29;}
	.st84{fill:#FDCE31;}
	.st85{fill:#FFFFEE;}
	.st86{opacity:0.72;fill:#FFFFFF;}
	.st87{fill:#DE2A2F;}
	.st88{fill:#E35E47;}
	.st89{fill:#C12427;}
	.st90{fill:#008641;}
	.st91{fill:#007A3B;}
	.st92{fill:#B1B6BA;}
	.st93{fill:#7C868D;}
	.st94{fill:#E6E6E6;}
	.st95{fill:#F7DBDB;}
	.st96{fill:#F0F0D3;}
	.st97{fill:#5A788F;}
	.st98{fill:#ECECEC;}
	.st99{fill:#36393F;}
	.st100{fill:#5F6568;}
	.st101{fill:#0A1114;}
	.st102{fill:#022444;}
	.st103{fill:#5A6975;}
	.st104{fill:url(#SVGID_1_);}
	.st105{fill:url(#SVGID_2_);}
	.st106{fill:url(#SVGID_3_);}
	.st107{fill:url(#SVGID_4_);}
	.st108{fill:url(#SVGID_5_);}
	.st109{fill:url(#SVGID_6_);}
	.st110{fill:url(#SVGID_7_);}
	.st111{fill:url(#SVGID_8_);}
	.st112{fill:url(#SVGID_9_);}
	.st113{fill:url(#SVGID_10_);}
	.st114{fill:url(#SVGID_11_);}
	.st115{fill:url(#SVGID_12_);}
	.st116{fill:url(#SVGID_13_);}
	.st117{fill:url(#SVGID_14_);}
	.st118{fill:url(#SVGID_15_);}
	.st119{fill:url(#SVGID_16_);}
	.st120{fill:url(#SVGID_17_);}
	.st121{fill:url(#SVGID_18_);}
	.st122{fill:url(#SVGID_19_);}
	.st123{fill:url(#SVGID_20_);}
	.st124{fill:url(#SVGID_21_);}
	.st125{fill:url(#SVGID_22_);}
	.st126{fill:url(#SVGID_23_);}
	.st127{fill:url(#SVGID_24_);}
	.st128{fill:url(#SVGID_25_);}
	.st129{fill:url(#SVGID_26_);}
	.st130{fill:url(#SVGID_27_);}
	.st131{fill:url(#SVGID_28_);}
	.st132{fill:url(#SVGID_29_);}
	.st133{fill:url(#SVGID_30_);}
	.st134{fill:url(#SVGID_31_);}
	.st135{fill:url(#SVGID_32_);}
	.st136{fill:url(#SVGID_33_);}
	.st137{fill:url(#SVGID_34_);}
	.st138{fill:url(#SVGID_35_);}
	.st139{fill:url(#SVGID_36_);}
	.st140{fill:url(#SVGID_37_);}
	.st141{fill:url(#SVGID_38_);}
	.st142{fill:url(#SVGID_39_);}
	.st143{fill:url(#SVGID_40_);}
	.st144{fill:url(#SVGID_41_);}
	.st145{fill:url(#SVGID_42_);}
	.st146{fill:url(#SVGID_43_);}
	.st147{opacity:0.4;fill:#A7D7DB;}
	.st148{opacity:0.3;fill:url(#SVGID_44_);}
	.st149{opacity:0.3;fill:url(#SVGID_45_);}
	.st150{fill:url(#SVGID_46_);}
	.st151{fill:#87C2CC;}
	.st152{opacity:0.3;fill:url(#SVGID_47_);}
	.st153{fill:url(#SVGID_48_);}
	.st154{fill:#FFFDEC;}
	.st155{fill:#F6EDCE;}
	.st156{opacity:0.7;fill:url(#SVGID_49_);}
	.st157{fill:#EDB856;}
	.st158{fill:#AA7636;}
	.st159{fill-rule:evenodd;clip-rule:evenodd;fill:#4E8236;}
	.st160{fill-rule:evenodd;clip-rule:evenodd;fill:#619538;}
	.st161{fill-rule:evenodd;clip-rule:evenodd;fill:#437432;}
	.st162{fill-rule:evenodd;clip-rule:evenodd;fill:#F29A1E;}
	.st163{fill-rule:evenodd;clip-rule:evenodd;fill:#F9B918;}
	.st164{fill-rule:evenodd;clip-rule:evenodd;fill:#EA8821;}
	.st165{fill-rule:evenodd;clip-rule:evenodd;fill:#FFDB36;}
	.st166{fill-rule:evenodd;clip-rule:evenodd;fill:#853319;}
	.st167{fill-rule:evenodd;clip-rule:evenodd;fill:#582814;}
	.st168{fill-rule:evenodd;clip-rule:evenodd;fill:#BC5423;}
	.st169{fill-rule:evenodd;clip-rule:evenodd;fill:#81AF41;}
	.st170{fill-rule:evenodd;clip-rule:evenodd;fill:#BAD27B;}
	.st171{fill-rule:evenodd;clip-rule:evenodd;fill:#C6D98F;}
	.st172{fill-rule:evenodd;clip-rule:evenodd;fill:#DEE8BC;}
	.st173{fill-rule:evenodd;clip-rule:evenodd;fill:#EDF2DC;}
	.st174{fill-rule:evenodd;clip-rule:evenodd;fill:#FCB92C;}
	.st175{fill-rule:evenodd;clip-rule:evenodd;fill:#F2AA28;}
	.st176{fill-rule:evenodd;clip-rule:evenodd;fill:#FDDB45;}
	.st177{fill-rule:evenodd;clip-rule:evenodd;fill:#E09223;}
	.st178{fill:#CEE4EE;}
	.st179{fill:#A8D0A0;}
	.st180{fill:#82B17A;}
	.st181{fill:#EA7D37;}
	.st182{fill:#FCB74B;}
	.st183{fill:#FCA22E;}
	.st184{fill:#D1F0C9;}
	.st185{fill:#95C18C;}
	.st186{fill:#2D4988;}
	.st187{fill:#6B9EEA;}
	.st188{fill:#93BEFC;}
	.st189{fill:#FBEBDB;}
	.st190{fill:#EDCAAC;}
	.st191{fill:#FCB486;}
	.st192{fill:#E76C37;}
	.st193{fill:#243961;}
	.st194{fill:#FCAF7F;}
	.st195{fill:#2C5093;}
	.st196{fill:#203E6E;}
	.st197{fill:#E78D56;}
	.st198{fill:#2D3B63;}
	.st199{fill:#FCB180;}
	.st200{fill:#F6964F;}
	.st201{fill:#EA9764;}
	.st202{fill:#F16C25;}
	.st203{fill:#FC8F4E;}
	.st204{fill:#FDD8A2;}
	.st205{fill:#2E3651;}
	.st206{opacity:0.17;fill-rule:evenodd;clip-rule:evenodd;fill:#2E699B;}
	.st207{fill-rule:evenodd;clip-rule:evenodd;fill:#116294;}
	.st208{fill:#407CAD;}
	.st209{fill-rule:evenodd;clip-rule:evenodd;fill:#F4F4F4;}
	.st210{fill-rule:evenodd;clip-rule:evenodd;fill:#CBCBCB;}
	.st211{fill-rule:evenodd;clip-rule:evenodd;fill:#E35562;}
	.st212{fill-rule:evenodd;clip-rule:evenodd;fill:#F0B0B6;}
	.st213{fill-rule:evenodd;clip-rule:evenodd;fill:#6B8538;}
	.st214{fill-rule:evenodd;clip-rule:evenodd;fill:#A8C572;}
	.st215{fill-rule:evenodd;clip-rule:evenodd;fill:#D6F0A5;}
	.st216{fill-rule:evenodd;clip-rule:evenodd;fill:#FDDFA4;}
	.st217{fill-rule:evenodd;clip-rule:evenodd;fill:#FFF7E8;}
	.st218{fill-rule:evenodd;clip-rule:evenodd;fill:#CC761D;}
	.st219{fill-rule:evenodd;clip-rule:evenodd;fill:#FCAC2A;}
	.st220{fill-rule:evenodd;clip-rule:evenodd;fill:#FAC256;}
	.st221{fill-rule:evenodd;clip-rule:evenodd;fill:#ADD663;}
	.st222{fill-rule:evenodd;clip-rule:evenodd;fill:#D14451;}
	.st223{fill-rule:evenodd;clip-rule:evenodd;fill:#E5E5E5;}
	.st224{fill-rule:evenodd;clip-rule:evenodd;fill:#FFFFFF;}
	.st225{opacity:0.2;fill-rule:evenodd;clip-rule:evenodd;}
	.st226{fill-rule:evenodd;clip-rule:evenodd;fill:#2E699B;}
	.st227{fill:#E8A98B;}
	.st228{fill:#C0D290;}
	.st229{fill:#3EAC8E;}
	.st230{fill:#33997D;}
	.st231{fill:#B4C38A;}
	.st232{fill:#ECE7D0;}
	.st233{fill:#F9C193;}
	.st234{fill:#EEEEEE;}
	.st235{fill:#4CA3CF;}
	.st236{opacity:0.64;}
	.st237{fill:#5CB5DA;}
	.st238{opacity:0.51;}
	.st239{fill:#A2CCDC;}
	.st240{fill:#F5CFB3;}
	.st241{fill:#504D50;}
	.st242{fill:#116694;}
	.st243{fill:#F0F0F0;}
	.st244{fill:#4897C1;}
	.st245{fill:#E1B493;}
	.st246{fill:#FCCB78;}
	.st247{fill:#CC2A4A;}
	.st248{fill:#BA8B80;}
	.st249{fill:#BE705F;}
	.st250{fill:#C3D5A1;}
	.st251{fill:#B7C88F;}
	.st252{fill:#FB9036;}
	.st253{opacity:0.1;}
	.st254{fill:#A86254;}
	.st255{clip-path:url(#SVGID_51_);}
	.st256{fill:#FEDE53;}
	.st257{fill:#A4CD77;}
	.st258{opacity:0.54;fill:#FFF8D9;}
	.st259{fill:#72A436;}
	.st260{fill:#21697E;}
	.st261{opacity:0.46;fill:#FDBD49;}
	.st262{fill:#FDC33D;}
	.st263{fill:#FDAE3A;}
	.st264{fill:#FDDC5E;}
	.st265{fill:#C9E4D7;}
	.st266{fill:none;stroke:#054248;stroke-width:3.7099;stroke-miterlimit:10;}
	.st267{fill:#B0D3C1;}
	.st268{fill:#118275;}
	.st269{fill:#085853;}
	.st270{fill:#BB9795;}
	.st271{fill:#CCCBCA;}
	.st272{fill:#EFEBE4;}
	.st273{fill:#FC6A5E;}
	.st274{fill:#DE4A46;}
	.st275{fill:#CF4345;}
	.st276{fill:#AC7069;}
	.st277{fill:#8D504A;}
	.st278{fill:#654A48;}
	.st279{fill:#583939;}
	.st280{fill:#412929;}
	.st281{fill:#C6DFA9;}
	.st282{fill:#E2EFD3;}
	.st283{fill:#75456A;}
	.st284{fill:#84AE5D;}
	.st285{fill:#FDBD49;}
	.st286{fill:#FBC03C;}
	.st287{fill:#FA9638;}
	.st288{fill:#FBC63C;}
	.st289{fill:#E37A34;}
</style>
<g id="BACKGROUND">
</g>
<g id="OBJECTS">
	<g>
		<g>
			<path class="st159" d="M53,15.6c0.6-0.4,1-1.2,1.4-2c0.1,0.8,0.4,1.5,1.1,1.9c0,0,0,0,0,0c0.3-0.1,0.5-0.2,0.8-0.2
				c0.1,0.7,0.5,1.3,0.3,2.2c0.3,0,0.6,0.1,1,0.1c0,0.8,0.3,1.4,0.1,2.4c0.3,0.2,0.7,0.1,1,0c0,0.8,0.3,1.7,0,2.7
				c0.3,0,0.6,0,0.9-0.1c-0.1,1.1,0.4,1.8-0.2,3.2c0.3,0,0.5,0.1,0.8,0.1c-0.2,0.7,0.1,1.4-0.7,2.2c0.3,0.1,0.6,0.1,0.8,0.2
				c-0.4,0.8-0.2,1.7-1.1,2.4c0.2,0.1,0.5,0.2,0.7,0.3c-0.5,0.7-0.2,1.5-1.5,2c0.3,0.2,0.5,0.3,0.8,0.5c-0.6,0.5-0.4,1.1-1.7,1.4
				c0.3,0.2,0.6,0.3,0.8,0.5c-0.7,0.5-0.5,1.1-2.2,1.4c0.3,0.1,0.5,0.2,0.8,0.4c-1.1,0.7-1.2,1.6-3.2,2c-1.8-0.2-1.9-1-2.9-1.5
				c0.2-0.1,0.5-0.2,0.7-0.3c-1.1-0.3-1.3-0.9-1.9-1.4c0.2-0.1,0.4-0.1,0.6-0.2c-1.6-0.5-1.3-1.2-1.9-1.9c0.3,0,0.5,0,0.8,0
				c-1.3-0.7-1-1.3-1.5-1.9c0.3-0.1,0.6-0.1,0.8-0.2c-1.1-0.6-0.7-1.4-1-2.1c0.3,0,0.5,0,0.8,0c-0.9-0.7-0.5-1.4-0.7-2
				c0.3,0,0.5,0.1,0.8,0.1c-0.7-1.1-0.2-1.8-0.3-2.7c0.3,0.1,0.5,0.1,0.8,0.2c-0.4-0.9-0.2-1.4-0.3-2.1c0.3,0.1,0.5,0.2,0.8,0.3
				c-0.6-1.2,0-1.5,0-2.3c0.2,0.1,0.5,0.2,0.7,0.3c-0.4-0.9,0.2-1.4,0.2-2.1c0.2,0.1,0.4,0.2,0.6,0.3c-0.4-0.9,0.2-1.5,0.3-2.3
				c0.2,0.1,0.5,0.3,0.7,0.4c-0.2-0.8,0.4-1.5,0.5-2.3C52.5,15.5,52.8,15.6,53,15.6C53,15.6,53,15.6,53,15.6z"/>
			<path class="st160" d="M53,15.6c0.6-0.4,1-1.2,1.4-2c0.1,0.8,0.4,1.5,1.1,1.9c0,0,0,0,0,0c0.3-0.1,0.5-0.2,0.8-0.2
				c0.1,0.7,0.5,1.3,0.3,2.2l0.6,0.1c0.2,1.4,0.4,2.9,0.4,4.4c0,7-2.9,12.6-6.4,12.6c-1.1,0-2.2-0.6-3.1-1.7
				c-0.1-0.3-0.2-0.6-0.5-0.9c0.3-0.1,0.6-0.1,0.8-0.2c-1.1-0.6-0.7-1.4-1-2.1c0.3,0,0.5,0,0.8,0c-0.9-0.7-0.5-1.4-0.7-2
				c0.3,0,0.5,0.1,0.8,0.1c-0.7-1.1-0.2-1.8-0.3-2.7c0.3,0.1,0.5,0.1,0.8,0.2c-0.4-0.9-0.2-1.4-0.3-2.1c0.3,0.1,0.5,0.2,0.8,0.3
				c-0.6-1.2,0-1.5,0-2.3c0.2,0.1,0.5,0.2,0.7,0.3c-0.4-0.9,0.2-1.4,0.2-2.1c0.2,0.1,0.4,0.2,0.6,0.3c-0.4-0.9,0.2-1.5,0.3-2.3
				c0.2,0.1,0.5,0.3,0.7,0.4c-0.2-0.8,0.4-1.5,0.5-2.3C52.5,15.5,52.8,15.6,53,15.6C53,15.6,53,15.6,53,15.6z"/>
			<path class="st161" d="M53.3,38.5c0.3-1.9,0.5-3.8,0.7-5.7l0,0l2.3-1.4l-2.3,0.8l0,0c0.1-1.4,0.2-2.8,0.3-4.2l0,0l3.1-2.5l-3,1.8
				l0,0c0-1.4,0.1-2.8,0-4.2l0,0l2-2.6l-2,2l0,0c0-1.8-0.1-3.7-0.3-5.5c0,1.9,0,3.7,0,5.6l-2.5-1.9l2.5,2.5c0,1.4-0.1,2.8-0.1,4.2
				l-3.8-2L54,28c-0.1,1.5-0.1,2.9-0.2,4.3L51.4,31l2.3,1.8C53.6,34.7,53.5,36.6,53.3,38.5z"/>
			<path class="st159" d="M16.2,41.5c-0.4,0.6-1.2,0.9-2.1,1.3c0.8,0.1,1.5,0.5,1.9,1.2c0,0,0,0,0,0c-0.1,0.3-0.2,0.5-0.3,0.8
				c0.7,0.1,1.2,0.5,2.2,0.4c0,0.3,0,0.6,0.1,1c0.8,0.1,1.4,0.4,2.4,0.3c0.1,0.3,0,0.7-0.1,1c0.8,0,1.7,0.4,2.7,0.1
				c0,0.3-0.1,0.6-0.1,0.9c1.1,0,1.8,0.5,3.2-0.1c0,0.3,0.1,0.6,0.1,0.8c0.8-0.2,1.3,0.1,2.3-0.6c0.1,0.3,0.1,0.6,0.2,0.9
				c0.8-0.3,1.7-0.1,2.5-1c0.1,0.3,0.2,0.5,0.3,0.8c0.7-0.5,1.5-0.1,2.1-1.4c0.1,0.3,0.3,0.5,0.4,0.8c0.5-0.6,1.1-0.3,1.4-1.7
				c0.2,0.3,0.3,0.6,0.5,0.9c0.5-0.7,1.2-0.5,1.5-2.2c0.1,0.3,0.2,0.5,0.3,0.8c0.7-1,1.6-1.2,2.2-3.1c-0.1-1.8-0.9-1.9-1.4-2.9
				c-0.1,0.2-0.2,0.5-0.4,0.7c-0.2-1.1-0.9-1.3-1.3-2c-0.1,0.2-0.2,0.4-0.2,0.6c-0.5-1.6-1.2-1.3-1.8-2c0,0.3,0,0.5-0.1,0.8
				c-0.6-1.3-1.2-1.1-1.9-1.6c-0.1,0.3-0.1,0.6-0.2,0.8c-0.5-1.1-1.3-0.8-2-1.1c0,0.3,0,0.5-0.1,0.8c-0.6-0.9-1.3-0.5-2-0.8
				c0,0.3,0,0.5,0,0.8c-1-0.8-1.8-0.3-2.7-0.4c0.1,0.3,0.1,0.5,0.2,0.8c-0.8-0.5-1.4-0.2-2.1-0.4c0.1,0.3,0.2,0.5,0.2,0.8
				c-1.1-0.6-1.5-0.1-2.3-0.1c0.1,0.3,0.2,0.5,0.3,0.8c-0.8-0.4-1.4,0.1-2.1,0.1c0.1,0.2,0.2,0.4,0.3,0.6c-0.9-0.5-1.6,0.1-2.3,0.2
				c0.1,0.3,0.3,0.5,0.4,0.8c-0.8-0.2-1.5,0.3-2.3,0.4C16.1,41,16.1,41.3,16.2,41.5C16.2,41.5,16.2,41.5,16.2,41.5z"/>
			<path class="st160" d="M16.2,41.5c-0.4,0.6-1.2,0.9-2.1,1.3c0.8,0.1,1.5,0.5,1.9,1.2c0,0,0,0,0,0c-0.1,0.3-0.2,0.5-0.3,0.8
				c0.7,0.1,1.2,0.5,2.2,0.4l0,0.6c1.4,0.3,2.8,0.5,4.4,0.6c7,0.3,12.7-2.3,12.9-5.9c0-1.1-0.5-2.2-1.5-3.2
				c-0.3-0.2-0.6-0.2-0.9-0.5c-0.1,0.3-0.1,0.6-0.2,0.8c-0.5-1.1-1.3-0.8-2-1.1c0,0.3,0,0.5-0.1,0.8c-0.6-0.9-1.3-0.5-2-0.8
				c0,0.3,0,0.5,0,0.8c-1-0.8-1.8-0.3-2.7-0.4c0.1,0.3,0.1,0.5,0.2,0.8c-0.8-0.5-1.4-0.2-2.1-0.4c0.1,0.3,0.2,0.5,0.2,0.8
				c-1.1-0.6-1.5-0.1-2.3-0.1c0.1,0.3,0.2,0.5,0.3,0.8c-0.8-0.4-1.4,0.1-2.1,0.1c0.1,0.2,0.2,0.4,0.3,0.6c-0.9-0.5-1.6,0.1-2.3,0.2
				c0.1,0.3,0.3,0.5,0.4,0.8c-0.8-0.2-1.5,0.3-2.3,0.4C16.1,41,16.1,41.3,16.2,41.5C16.2,41.5,16.2,41.5,16.2,41.5z"/>
			<path class="st161" d="M39,42.9c-1.9,0.2-3.8,0.4-5.7,0.4v0l-1.5,2.2l0.9-2.2h0c-1.4,0.1-2.8,0.1-4.2,0.1l0,0l-2.6,3l1.9-3l0,0
				c-1.4,0-2.8-0.1-4.2-0.1l0,0L21,45.1l2-1.9l0,0c-1.8-0.1-3.7-0.3-5.5-0.5c1.9,0.1,3.7,0.2,5.6,0.2l-1.7-2.6l2.3,2.6
				c1.4,0,2.8,0.1,4.2,0.1l-1.8-3.9l2.4,3.9c1.5,0,2.9,0,4.3,0l-1.2-2.4l1.7,2.4C35.2,43,37.1,42.9,39,42.9z"/>
			<path class="st159" d="M28.1,56.2c-0.1,0.7-0.5,1.4-1.1,2.2c0.8-0.3,1.5-0.4,2.2,0c0,0,0,0,0,0c0.1,0.3,0.1,0.5,0.2,0.8
				c0.7-0.3,1.3-0.2,2.1-0.9c0.2,0.3,0.4,0.5,0.6,0.8c0.7-0.3,1.4-0.4,2.1-1c0.3,0.2,0.4,0.6,0.5,0.9c0.6-0.4,1.6-0.6,2.4-1.4
				c0.1,0.3,0.2,0.5,0.4,0.8c0.9-0.6,1.7-0.5,2.7-1.8c0.2,0.2,0.3,0.4,0.5,0.7c0.5-0.6,1.2-0.6,1.6-1.7c0.2,0.2,0.4,0.4,0.6,0.6
				c0.5-0.7,1.3-1,1.5-2.2c0.2,0.2,0.4,0.3,0.6,0.5c0.3-0.8,1.3-0.9,1-2.3c0.3,0.1,0.5,0.3,0.8,0.4c0.1-0.7,0.8-0.9,0.3-2.2
				c0.3,0.2,0.6,0.3,0.9,0.5c0-0.9,0.7-1,0.1-2.6c0.2,0.2,0.5,0.3,0.7,0.5c0.1-1.3,0.7-1.8,0.2-3.8c-1-1.4-1.8-1.2-2.7-1.7
				c0,0.3,0,0.5,0.1,0.8c-0.8-0.8-1.4-0.7-2.2-1c0,0.2,0.1,0.4,0.1,0.7c-1.2-1.1-1.7-0.5-2.5-0.7c0.1,0.2,0.2,0.5,0.4,0.7
				c-1.2-0.8-1.6-0.3-2.4-0.4c0.1,0.3,0.2,0.5,0.3,0.8c-1-0.7-1.5,0.1-2.3,0.1c0.1,0.2,0.2,0.5,0.4,0.7c-1-0.4-1.4,0.2-2.1,0.4
				c0.2,0.2,0.3,0.4,0.5,0.6c-1.3-0.1-1.7,0.7-2.5,1.1c0.2,0.2,0.4,0.4,0.5,0.6c-1,0-1.3,0.6-2,0.8c0.2,0.2,0.4,0.4,0.6,0.6
				c-1.3,0.1-1.3,0.7-2,1.1c0.2,0.2,0.4,0.3,0.6,0.5c-0.9,0.1-1.2,0.8-1.7,1.3c0.2,0.1,0.4,0.2,0.6,0.4c-1,0.1-1.3,0.9-1.9,1.4
				c0.2,0.1,0.5,0.3,0.7,0.4c-0.8,0.3-1.1,1.1-1.7,1.6C27.7,55.8,27.9,56,28.1,56.2C28.1,56.2,28.1,56.2,28.1,56.2z"/>
			<path class="st160" d="M28.1,56.2c-0.1,0.7-0.5,1.4-1.1,2.2c0.8-0.3,1.5-0.4,2.2,0c0,0,0,0,0,0c0.1,0.3,0.1,0.5,0.2,0.8
				c0.7-0.3,1.3-0.2,2.1-0.9l0.4,0.5c1.3-0.5,2.7-1.1,4-1.8c6-3.5,9.5-8.7,7.7-11.8c-0.6-1-1.6-1.6-3-1.9c-0.3,0-0.6,0.1-1,0
				c0.1,0.3,0.2,0.5,0.3,0.8c-1-0.7-1.5,0.1-2.3,0.1c0.1,0.2,0.2,0.5,0.4,0.7c-1-0.4-1.4,0.2-2.1,0.4c0.2,0.2,0.3,0.4,0.5,0.6
				c-1.3-0.1-1.7,0.7-2.5,1.1c0.2,0.2,0.4,0.4,0.5,0.6c-1,0-1.3,0.6-2,0.8c0.2,0.2,0.4,0.4,0.6,0.6c-1.3,0.1-1.3,0.7-2,1.1
				c0.2,0.2,0.4,0.3,0.6,0.5c-0.9,0.1-1.2,0.8-1.7,1.3c0.2,0.1,0.4,0.2,0.6,0.4c-1,0.1-1.3,0.9-1.9,1.4c0.2,0.1,0.5,0.3,0.7,0.4
				c-0.8,0.3-1.1,1.1-1.7,1.6C27.7,55.8,27.9,56,28.1,56.2C28.1,56.2,28.1,56.2,28.1,56.2z"/>
			<path class="st161" d="M48.1,45.1c-1.5,1.2-3,2.3-4.6,3.4h0l-0.1,2.7L43,48.9l0,0c-1.2,0.8-2.3,1.6-3.5,2.3h0l-0.6,3.9l0-3.5l0,0
				c-1.2,0.7-2.4,1.4-3.6,2.1l0,0l-1.3,3l0.7-2.7v0c-1.6,0.9-3.3,1.7-4.9,2.5c1.6-0.9,3.2-1.8,4.8-2.8l-2.9-1.3l3.4,1
				c1.2-0.7,2.4-1.4,3.6-2.2l-3.6-2.3l4.1,2c1.2-0.8,2.5-1.5,3.7-2.3l-2.3-1.4l2.7,1.2C44.9,47.3,46.5,46.2,48.1,45.1z"/>
			<path class="st162" d="M34,20.7c1.6,0,3,0.5,4.3,1.4c1.3-0.9,2.7-1.4,4.3-1.4c4.9,0,8.8,4.9,8.8,10.9c0,16.5-26.2,16.4-26.2,0
				C25.2,25.6,29.2,20.7,34,20.7z"/>
			<path class="st163" d="M28.4,29.3c0,2.5,1.2,6.4,3.9,7c0.1,0,0.2,0,0.3,0c1.3,0.1,2.4-1.2,2-2.5c-0.6-1.9-0.4-3.8,1-5.3
				c1.3-1.5,3.4-2,5.3-1.7c2.2,0.4,3.9,1.8,4.7,3.8c0.7,1.7,1,3.4,0.9,5c3.2-4.3,2.4-12.8-3.9-12.8c-1.1,0-2.1,0.4-3,1l-1.3,0.9
				L37,23.9c-0.9-0.6-1.9-1-3-1C30.4,22.9,28.4,26,28.4,29.3z"/>
			<path class="st164" d="M49.8,25.2c1,1.8,1.7,4,1.7,6.4c0,16.5-26.2,16.4-26.2,0c0-2.4,0.6-4.6,1.6-6.4c-1.8,5.1,0.3,12.1,5,13.2
				c2.7,0.6,6-1.9,4.8-5.3c-1.5-4.6,5.2-5.9,6.8-1.7c1.6,4.1,0.8,7.3-2.5,9.8C47.9,40.4,52.6,32.8,49.8,25.2z"/>
			<g>
				<path class="st162" d="M42.5,49.2c3.7,6.1,11.6,8,17.6,4.4c5.9-3.7,7.7-11.6,4-17.7L42.5,49.2z"/>
				<path class="st164" d="M54.3,55.4c2-0.1,4-0.7,5.8-1.8c5.9-3.7,7.7-11.6,4-17.7l-9.7,6l-3.2,9.4c2.8,0.1,6.4-1.4,9.1-3.5
					c2.7-2.1,3.7-0.9,2.1,2C60.9,52.4,57.7,54.8,54.3,55.4z"/>
				<path class="st163" d="M49.4,36.3c-5.9,3.7-9,9.5-6.9,12.9c2.1,3.5,8.7,3.3,14.6-0.4c5.9-3.7,9-9.5,6.9-12.9
					C61.9,32.5,55.3,32.6,49.4,36.3z"/>
				<path class="st165" d="M50.8,38.5c-4.6,2.8-7.2,6.9-5.8,9.2c1.4,2.2,6.2,1.8,10.8-1.1c4.6-2.8,7.2-6.9,5.8-9.2
					C60.2,35.2,55.3,35.7,50.8,38.5z"/>
				<path class="st166" d="M46.7,46.6c0.3-6,6.9-10.2,13.1-8.1C56.4,42.8,52,45.5,46.7,46.6z"/>
				<path class="st167" d="M55.5,38c1.4-0.1,2.8,0,4.3,0.5c-3.4,4.3-7.8,6.9-13.1,8.1c4.9-1.7,9-4.1,11.6-7.9
					C57.4,38.3,56.5,38.1,55.5,38z"/>
				<path class="st163" d="M51.2,53.5c2.6-0.2,5.4-2.2,5.6-1.6c0.7,2.1-7.1,4-8.8,1.4C47.7,52.8,48.6,53.7,51.2,53.5z"/>
				<path class="st168" d="M47.1,45.6c0.8-2.9,2.4-5.2,5.2-6.3C50.3,40.9,48.5,43.1,47.1,45.6z"/>
			</g>
		</g>
	</g>
	<g>
		<path class="st178" d="M38.2,76.3C17.1,76.3,0,59.2,0,38.2C0,17.1,17.1,0,38.2,0s38.2,17.1,38.2,38.2
			C76.3,59.2,59.2,76.3,38.2,76.3z M38.2,1C17.7,1,1,17.7,1,38.2s16.7,37.2,37.2,37.2s37.2-16.7,37.2-37.2S58.7,1,38.2,1z"/>
	</g>
</g>
</svg>
