<?xml version="1.0" encoding="utf-8"?>
<!-- Generator: Adobe Illustrator 24.0.2, SVG Export Plug-In . SVG Version: 6.00 Build 0)  -->
<svg version="1.1" xmlns="http://www.w3.org/2000/svg" xmlns:xlink="http://www.w3.org/1999/xlink" x="0px" y="0px"
	 viewBox="0 0 76.3 76.3" style="enable-background:new 0 0 76.3 76.3;" xml:space="preserve">
<style type="text/css">
	.st0{fill:#FFCFCF;}
	.st1{fill:#EAF2F9;}
	.st2{fill:#00711F;}
	.st3{fill:#65881C;}
	.st4{fill:#8BBE42;}
	.st5{fill:#6C9826;}
	.st6{fill:#A4CAB9;}
	.st7{fill:none;stroke:#C6E9D9;stroke-width:2.8652;stroke-linecap:round;stroke-miterlimit:10;}
	.st8{fill:#ACD663;}
	.st9{fill:#578E11;}
	.st10{fill:#6FAA2D;}
	.st11{fill:#FA363B;}
	.st12{fill:#F6EFF0;}
	.st13{fill:#F0D417;}
	.st14{fill:#75A725;}
	.st15{fill:#0F1F2C;}
	.st16{fill:#2A3C4E;}
	.st17{fill:#6D8244;}
	.st18{fill:#435122;}
	.st19{fill:#F7F5DF;}
	.st20{fill:#E0DCBD;}
	.st21{fill:#FFFEF3;}
	.st22{opacity:0.33;}
	.st23{opacity:0.26;}
	.st24{fill:#FF4C41;}
	.st25{opacity:0.22;fill:#FFFFFF;}
	.st26{opacity:0.25;}
	.st27{fill:#F4B245;}
	.st28{fill:#A9D45D;}
	.st29{fill:#00533F;}
	.st30{fill:#C7E2D7;}
	.st31{fill:#FF7F75;}
	.st32{fill:#4B4F43;}
	.st33{opacity:0.41;}
	.st34{fill:#162A47;}
	.st35{opacity:0.22;}
	.st36{fill:#EAF9F1;}
	.st37{opacity:0.5;}
	.st38{fill:#FCA712;}
	.st39{fill:#FABE59;}
	.st40{fill:#F9CB87;}
	.st41{fill:#FFDEB6;}
	.st42{fill:#803FCD;}
	.st43{fill:#5E309F;}
	.st44{fill:#595959;}
	.st45{fill:#FBFBF6;}
	.st46{fill:#3D456A;}
	.st47{fill:#1B203D;}
	.st48{fill:#783730;}
	.st49{fill:#582521;}
	.st50{fill:#FF2929;}
	.st51{fill:#FF144F;}
	.st52{fill:#FF6E51;stroke:#FF6E51;stroke-width:0.2786;stroke-miterlimit:10;}
	.st53{fill:#FCFFDC;}
	.st54{fill:#5D3405;}
	.st55{fill:#F3CC8C;}
	.st56{opacity:0.67;fill:#B78D47;}
	.st57{fill:#131A42;}
	.st58{opacity:0.84;}
	.st59{opacity:0.29;}
	.st60{fill:#535B7B;}
	.st61{fill:#C67DBF;}
	.st62{fill:#F5ACDF;}
	.st63{fill:#EF9900;}
	.st64{fill:#E5E5E5;}
	.st65{fill:#F4F4F4;}
	.st66{fill:#EFEFEF;}
	.st67{fill:#FFFFFF;}
	.st68{fill:#FDC653;}
	.st69{fill:#FDD05C;}
	.st70{fill:#FDDA55;}
	.st71{fill:#FDE356;}
	.st72{fill:#E79563;}
	.st73{opacity:0.14;fill:#976647;}
	.st74{opacity:0.26;fill:#FFEFE8;}
	.st75{fill:#B4501A;}
	.st76{fill:#E57838;}
	.st77{opacity:0.38;fill:#E57838;}
	.st78{opacity:0.26;fill:#E57838;}
	.st79{fill:#D0CEAE;}
	.st80{fill:#95947F;}
	.st81{fill:#BEBCA3;}
	.st82{fill:#FFFDD8;}
	.st83{fill:#FC9D29;}
	.st84{fill:#FDCE31;}
	.st85{fill:#FFFFEE;}
	.st86{opacity:0.72;fill:#FFFFFF;}
	.st87{fill:#DE2A2F;}
	.st88{fill:#E35E47;}
	.st89{fill:#C12427;}
	.st90{fill:#008641;}
	.st91{fill:#007A3B;}
	.st92{fill:#B1B6BA;}
	.st93{fill:#7C868D;}
	.st94{fill:#E6E6E6;}
	.st95{fill:#F7DBDB;}
	.st96{fill:#F0F0D3;}
	.st97{fill:#5A788F;}
	.st98{fill:#ECECEC;}
	.st99{fill:#36393F;}
	.st100{fill:#5F6568;}
	.st101{fill:#0A1114;}
	.st102{fill:#022444;}
	.st103{fill:#5A6975;}
	.st104{fill:url(#SVGID_1_);}
	.st105{fill:url(#SVGID_2_);}
	.st106{fill:url(#SVGID_3_);}
	.st107{fill:url(#SVGID_4_);}
	.st108{fill:url(#SVGID_5_);}
	.st109{fill:url(#SVGID_6_);}
	.st110{fill:url(#SVGID_7_);}
	.st111{fill:url(#SVGID_8_);}
	.st112{fill:url(#SVGID_9_);}
	.st113{fill:url(#SVGID_10_);}
	.st114{fill:url(#SVGID_11_);}
	.st115{fill:url(#SVGID_12_);}
	.st116{fill:url(#SVGID_13_);}
	.st117{fill:url(#SVGID_14_);}
	.st118{fill:url(#SVGID_15_);}
	.st119{fill:url(#SVGID_16_);}
	.st120{fill:url(#SVGID_17_);}
	.st121{fill:url(#SVGID_18_);}
	.st122{fill:url(#SVGID_19_);}
	.st123{fill:url(#SVGID_20_);}
	.st124{fill:url(#SVGID_21_);}
	.st125{fill:url(#SVGID_22_);}
	.st126{fill:url(#SVGID_23_);}
	.st127{fill:url(#SVGID_24_);}
	.st128{fill:url(#SVGID_25_);}
	.st129{fill:url(#SVGID_26_);}
	.st130{fill:url(#SVGID_27_);}
	.st131{fill:url(#SVGID_28_);}
	.st132{fill:url(#SVGID_29_);}
	.st133{fill:url(#SVGID_30_);}
	.st134{fill:url(#SVGID_31_);}
	.st135{fill:url(#SVGID_32_);}
	.st136{fill:url(#SVGID_33_);}
	.st137{fill:url(#SVGID_34_);}
	.st138{fill:url(#SVGID_35_);}
	.st139{fill:url(#SVGID_36_);}
	.st140{fill:url(#SVGID_37_);}
	.st141{fill:url(#SVGID_38_);}
	.st142{fill:url(#SVGID_39_);}
	.st143{fill:url(#SVGID_40_);}
	.st144{fill:url(#SVGID_41_);}
	.st145{fill:url(#SVGID_42_);}
	.st146{fill:url(#SVGID_43_);}
	.st147{opacity:0.4;fill:#A7D7DB;}
	.st148{opacity:0.3;fill:url(#SVGID_44_);}
	.st149{opacity:0.3;fill:url(#SVGID_45_);}
	.st150{fill:url(#SVGID_46_);}
	.st151{fill:#87C2CC;}
	.st152{opacity:0.3;fill:url(#SVGID_47_);}
	.st153{fill:url(#SVGID_48_);}
	.st154{fill:#FFFDEC;}
	.st155{fill:#F6EDCE;}
	.st156{opacity:0.7;fill:url(#SVGID_49_);}
	.st157{fill:#EDB856;}
	.st158{fill:#AA7636;}
	.st159{fill-rule:evenodd;clip-rule:evenodd;fill:#4E8236;}
	.st160{fill-rule:evenodd;clip-rule:evenodd;fill:#619538;}
	.st161{fill-rule:evenodd;clip-rule:evenodd;fill:#437432;}
	.st162{fill-rule:evenodd;clip-rule:evenodd;fill:#F29A1E;}
	.st163{fill-rule:evenodd;clip-rule:evenodd;fill:#F9B918;}
	.st164{fill-rule:evenodd;clip-rule:evenodd;fill:#EA8821;}
	.st165{fill-rule:evenodd;clip-rule:evenodd;fill:#FFDB36;}
	.st166{fill-rule:evenodd;clip-rule:evenodd;fill:#853319;}
	.st167{fill-rule:evenodd;clip-rule:evenodd;fill:#582814;}
	.st168{fill-rule:evenodd;clip-rule:evenodd;fill:#BC5423;}
	.st169{fill-rule:evenodd;clip-rule:evenodd;fill:#81AF41;}
	.st170{fill-rule:evenodd;clip-rule:evenodd;fill:#BAD27B;}
	.st171{fill-rule:evenodd;clip-rule:evenodd;fill:#C6D98F;}
	.st172{fill-rule:evenodd;clip-rule:evenodd;fill:#DEE8BC;}
	.st173{fill-rule:evenodd;clip-rule:evenodd;fill:#EDF2DC;}
	.st174{fill-rule:evenodd;clip-rule:evenodd;fill:#FCB92C;}
	.st175{fill-rule:evenodd;clip-rule:evenodd;fill:#F2AA28;}
	.st176{fill-rule:evenodd;clip-rule:evenodd;fill:#FDDB45;}
	.st177{fill-rule:evenodd;clip-rule:evenodd;fill:#E09223;}
	.st178{fill:#CEE4EE;}
	.st179{fill:#A8D0A0;}
	.st180{fill:#82B17A;}
	.st181{fill:#EA7D37;}
	.st182{fill:#FCB74B;}
	.st183{fill:#FCA22E;}
	.st184{fill:#D1F0C9;}
	.st185{fill:#95C18C;}
	.st186{fill:#2D4988;}
	.st187{fill:#6B9EEA;}
	.st188{fill:#93BEFC;}
	.st189{fill:#FBEBDB;}
	.st190{fill:#EDCAAC;}
	.st191{fill:#FCB486;}
	.st192{fill:#E76C37;}
	.st193{fill:#243961;}
	.st194{fill:#FCAF7F;}
	.st195{fill:#2C5093;}
	.st196{fill:#203E6E;}
	.st197{fill:#E78D56;}
	.st198{fill:#2D3B63;}
	.st199{fill:#FCB180;}
	.st200{fill:#F6964F;}
	.st201{fill:#EA9764;}
	.st202{fill:#F16C25;}
	.st203{fill:#FC8F4E;}
	.st204{fill:#FDD8A2;}
	.st205{fill:#2E3651;}
	.st206{opacity:0.17;fill-rule:evenodd;clip-rule:evenodd;fill:#2E699B;}
	.st207{fill-rule:evenodd;clip-rule:evenodd;fill:#116294;}
	.st208{fill:#407CAD;}
	.st209{fill-rule:evenodd;clip-rule:evenodd;fill:#F4F4F4;}
	.st210{fill-rule:evenodd;clip-rule:evenodd;fill:#CBCBCB;}
	.st211{fill-rule:evenodd;clip-rule:evenodd;fill:#E35562;}
	.st212{fill-rule:evenodd;clip-rule:evenodd;fill:#F0B0B6;}
	.st213{fill-rule:evenodd;clip-rule:evenodd;fill:#6B8538;}
	.st214{fill-rule:evenodd;clip-rule:evenodd;fill:#A8C572;}
	.st215{fill-rule:evenodd;clip-rule:evenodd;fill:#D6F0A5;}
	.st216{fill-rule:evenodd;clip-rule:evenodd;fill:#FDDFA4;}
	.st217{fill-rule:evenodd;clip-rule:evenodd;fill:#FFF7E8;}
	.st218{fill-rule:evenodd;clip-rule:evenodd;fill:#CC761D;}
	.st219{fill-rule:evenodd;clip-rule:evenodd;fill:#FCAC2A;}
	.st220{fill-rule:evenodd;clip-rule:evenodd;fill:#FAC256;}
	.st221{fill-rule:evenodd;clip-rule:evenodd;fill:#ADD663;}
	.st222{fill-rule:evenodd;clip-rule:evenodd;fill:#D14451;}
	.st223{fill-rule:evenodd;clip-rule:evenodd;fill:#E5E5E5;}
	.st224{fill-rule:evenodd;clip-rule:evenodd;fill:#FFFFFF;}
	.st225{opacity:0.2;fill-rule:evenodd;clip-rule:evenodd;}
	.st226{fill-rule:evenodd;clip-rule:evenodd;fill:#2E699B;}
	.st227{fill:#E8A98B;}
	.st228{fill:#C0D290;}
	.st229{fill:#3EAC8E;}
	.st230{fill:#33997D;}
	.st231{fill:#B4C38A;}
	.st232{fill:#ECE7D0;}
	.st233{fill:#F9C193;}
	.st234{fill:#EEEEEE;}
	.st235{fill:#4CA3CF;}
	.st236{opacity:0.64;}
	.st237{fill:#5CB5DA;}
	.st238{opacity:0.51;}
	.st239{fill:#A2CCDC;}
	.st240{fill:#F5CFB3;}
	.st241{fill:#504D50;}
	.st242{fill:#116694;}
	.st243{fill:#F0F0F0;}
	.st244{fill:#4897C1;}
	.st245{fill:#E1B493;}
	.st246{fill:#FCCB78;}
	.st247{fill:#CC2A4A;}
	.st248{fill:#BA8B80;}
	.st249{fill:#BE705F;}
	.st250{fill:#C3D5A1;}
	.st251{fill:#B7C88F;}
	.st252{fill:#FB9036;}
	.st253{opacity:0.1;}
	.st254{fill:#A86254;}
	.st255{clip-path:url(#SVGID_51_);}
	.st256{fill:#FEDE53;}
	.st257{fill:#A4CD77;}
	.st258{opacity:0.54;fill:#FFF8D9;}
	.st259{fill:#72A436;}
	.st260{fill:#21697E;}
	.st261{opacity:0.46;fill:#FDBD49;}
	.st262{fill:#FDC33D;}
	.st263{fill:#FDAE3A;}
	.st264{fill:#FDDC5E;}
	.st265{fill:#C9E4D7;}
	.st266{fill:none;stroke:#054248;stroke-width:3.7099;stroke-miterlimit:10;}
	.st267{fill:#B0D3C1;}
	.st268{fill:#118275;}
	.st269{fill:#085853;}
	.st270{fill:#BB9795;}
	.st271{fill:#CCCBCA;}
	.st272{fill:#EFEBE4;}
	.st273{fill:#FC6A5E;}
	.st274{fill:#DE4A46;}
	.st275{fill:#CF4345;}
	.st276{fill:#AC7069;}
	.st277{fill:#8D504A;}
	.st278{fill:#654A48;}
	.st279{fill:#583939;}
	.st280{fill:#412929;}
	.st281{fill:#C6DFA9;}
	.st282{fill:#E2EFD3;}
	.st283{fill:#75456A;}
	.st284{fill:#84AE5D;}
	.st285{fill:#FDBD49;}
	.st286{fill:#FBC03C;}
	.st287{fill:#FA9638;}
	.st288{fill:#FBC63C;}
	.st289{fill:#E37A34;}
</style>
<g id="BACKGROUND">
</g>
<g id="OBJECTS">
	<g>
		<g>
			<g>
				<radialGradient id="SVGID_1_" cx="25.3917" cy="37.055" r="24.261" gradientUnits="userSpaceOnUse">
					<stop  offset="0.3817" style="stop-color:#FCBB72"/>
					<stop  offset="0.464" style="stop-color:#F7B66E"/>
					<stop  offset="0.5659" style="stop-color:#E8A664"/>
					<stop  offset="0.6783" style="stop-color:#CF8D52"/>
					<stop  offset="0.7981" style="stop-color:#AC6A3A"/>
					<stop  offset="0.9226" style="stop-color:#803D1A"/>
					<stop  offset="0.9946" style="stop-color:#632006"/>
				</radialGradient>
				<path class="st104" d="M30.9,51.7c-5.4,0-9.6-1-12.7-3c-3.5-2.3-5.3-5.8-5.3-10.5c0-4.9,1.7-8.2,5.6-10.9
					c3.9-2.7,8.3-4.3,12.3-4.3c5,0,9.5,1.4,12.7,3.9c3.4,2.7,5.3,6.6,5.3,11.3c0,4.7-1.8,8.2-5.3,10.5
					C40.5,50.7,36.2,51.7,30.9,51.7z"/>
				<radialGradient id="SVGID_2_" cx="31.1836" cy="31.3794" r="23.9961" gradientUnits="userSpaceOnUse">
					<stop  offset="0.3817" style="stop-color:#FCBB72"/>
					<stop  offset="0.4969" style="stop-color:#F7B76D"/>
					<stop  offset="0.6396" style="stop-color:#EAAB5D"/>
					<stop  offset="0.7968" style="stop-color:#D59844"/>
					<stop  offset="0.9635" style="stop-color:#B77D21"/>
					<stop  offset="0.9946" style="stop-color:#B1771A"/>
				</radialGradient>
				<path class="st105" d="M48.7,38.3c0,9.8-8,13.3-17.8,13.3c-9.8,0-17.8-3.5-17.8-13.3c0-5.2,2-8.3,5.6-10.8
					c3.2-2.2,7.6-4.2,12.2-4.2C40.7,23.2,48.7,28.4,48.7,38.3z"/>
				<g>
					<radialGradient id="SVGID_3_" cx="38.8639" cy="47.965" r="0.8632" gradientUnits="userSpaceOnUse">
						<stop  offset="0" style="stop-color:#FCBB72"/>
						<stop  offset="5.581846e-03" style="stop-color:#FAB970"/>
						<stop  offset="7.667933e-02" style="stop-color:#E3A555"/>
						<stop  offset="0.1573" style="stop-color:#D1943F"/>
						<stop  offset="0.2525" style="stop-color:#C2872E"/>
						<stop  offset="0.3704" style="stop-color:#B87E23"/>
						<stop  offset="0.5356" style="stop-color:#B3781C"/>
						<stop  offset="0.9946" style="stop-color:#B1771A"/>
					</radialGradient>
					<path class="st106" d="M39.2,48c0,0.2-0.2,0.4-0.4,0.4c-0.2,0-0.4-0.2-0.4-0.4c0-0.2,0.2-0.4,0.4-0.4
						C39.1,47.6,39.2,47.8,39.2,48z"/>
					<radialGradient id="SVGID_4_" cx="32.6992" cy="45.4644" r="0.8628" gradientUnits="userSpaceOnUse">
						<stop  offset="0" style="stop-color:#FCBB72"/>
						<stop  offset="5.581846e-03" style="stop-color:#FAB970"/>
						<stop  offset="7.667933e-02" style="stop-color:#E3A555"/>
						<stop  offset="0.1573" style="stop-color:#D1943F"/>
						<stop  offset="0.2525" style="stop-color:#C2872E"/>
						<stop  offset="0.3704" style="stop-color:#B87E23"/>
						<stop  offset="0.5356" style="stop-color:#B3781C"/>
						<stop  offset="0.9946" style="stop-color:#B1771A"/>
					</radialGradient>
					<path class="st107" d="M33.1,45.5c0,0.2-0.2,0.4-0.4,0.4c-0.2,0-0.4-0.2-0.4-0.4c0-0.2,0.2-0.4,0.4-0.4
						C32.9,45.1,33.1,45.3,33.1,45.5z"/>
					<radialGradient id="SVGID_5_" cx="43.1071" cy="43.3563" r="0.8628" gradientUnits="userSpaceOnUse">
						<stop  offset="0" style="stop-color:#FCBB72"/>
						<stop  offset="5.581846e-03" style="stop-color:#FAB970"/>
						<stop  offset="7.667933e-02" style="stop-color:#E3A555"/>
						<stop  offset="0.1573" style="stop-color:#D1943F"/>
						<stop  offset="0.2525" style="stop-color:#C2872E"/>
						<stop  offset="0.3704" style="stop-color:#B87E23"/>
						<stop  offset="0.5356" style="stop-color:#B3781C"/>
						<stop  offset="0.9946" style="stop-color:#B1771A"/>
					</radialGradient>
					<path class="st108" d="M43.5,43.4c0,0.2-0.2,0.4-0.4,0.4c-0.2,0-0.4-0.2-0.4-0.4c0-0.2,0.2-0.4,0.4-0.4
						C43.3,43,43.5,43.2,43.5,43.4z"/>
					<radialGradient id="SVGID_6_" cx="36.9026" cy="38.6858" r="0.8628" gradientUnits="userSpaceOnUse">
						<stop  offset="0" style="stop-color:#FCBB72"/>
						<stop  offset="5.581846e-03" style="stop-color:#FAB970"/>
						<stop  offset="7.667933e-02" style="stop-color:#E3A555"/>
						<stop  offset="0.1573" style="stop-color:#D1943F"/>
						<stop  offset="0.2525" style="stop-color:#C2872E"/>
						<stop  offset="0.3704" style="stop-color:#B87E23"/>
						<stop  offset="0.5356" style="stop-color:#B3781C"/>
						<stop  offset="0.9946" style="stop-color:#B1771A"/>
					</radialGradient>
					<path class="st109" d="M37.3,38.7c0,0.2-0.2,0.4-0.4,0.4c-0.2,0-0.4-0.2-0.4-0.4c0-0.2,0.2-0.4,0.4-0.4
						C37.1,38.3,37.3,38.5,37.3,38.7z"/>
					<radialGradient id="SVGID_7_" cx="42.4763" cy="36.6305" r="0.8625" gradientUnits="userSpaceOnUse">
						<stop  offset="0" style="stop-color:#FCBB72"/>
						<stop  offset="5.581846e-03" style="stop-color:#FAB970"/>
						<stop  offset="7.667933e-02" style="stop-color:#E3A555"/>
						<stop  offset="0.1573" style="stop-color:#D1943F"/>
						<stop  offset="0.2525" style="stop-color:#C2872E"/>
						<stop  offset="0.3704" style="stop-color:#B87E23"/>
						<stop  offset="0.5356" style="stop-color:#B3781C"/>
						<stop  offset="0.9946" style="stop-color:#B1771A"/>
					</radialGradient>
					<path class="st110" d="M42.8,36.6c0,0.2-0.2,0.4-0.4,0.4c-0.2,0-0.4-0.2-0.4-0.4c0-0.2,0.2-0.4,0.4-0.4
						C42.7,36.3,42.8,36.4,42.8,36.6z"/>
					<radialGradient id="SVGID_8_" cx="34.9933" cy="34.3684" r="0.8632" gradientUnits="userSpaceOnUse">
						<stop  offset="0" style="stop-color:#FCBB72"/>
						<stop  offset="5.581846e-03" style="stop-color:#FAB970"/>
						<stop  offset="7.667933e-02" style="stop-color:#E3A555"/>
						<stop  offset="0.1573" style="stop-color:#D1943F"/>
						<stop  offset="0.2525" style="stop-color:#C2872E"/>
						<stop  offset="0.3704" style="stop-color:#B87E23"/>
						<stop  offset="0.5356" style="stop-color:#B3781C"/>
						<stop  offset="0.9946" style="stop-color:#B1771A"/>
					</radialGradient>
					<path class="st111" d="M35.4,34.4c0,0.2-0.2,0.4-0.4,0.4c-0.2,0-0.4-0.2-0.4-0.4c0-0.2,0.2-0.4,0.4-0.4
						C35.2,34,35.4,34.2,35.4,34.4z"/>
					<radialGradient id="SVGID_9_" cx="36.8196" cy="30.5069" r="0.8628" gradientUnits="userSpaceOnUse">
						<stop  offset="0" style="stop-color:#FCBB72"/>
						<stop  offset="5.581846e-03" style="stop-color:#FAB970"/>
						<stop  offset="7.667933e-02" style="stop-color:#E3A555"/>
						<stop  offset="0.1573" style="stop-color:#D1943F"/>
						<stop  offset="0.2525" style="stop-color:#C2872E"/>
						<stop  offset="0.3704" style="stop-color:#B87E23"/>
						<stop  offset="0.5356" style="stop-color:#B3781C"/>
						<stop  offset="0.9946" style="stop-color:#B1771A"/>
					</radialGradient>
					<path class="st112" d="M37.2,30.5c0,0.2-0.2,0.4-0.4,0.4c-0.2,0-0.4-0.2-0.4-0.4c0-0.2,0.2-0.4,0.4-0.4
						C37,30.1,37.2,30.3,37.2,30.5z"/>
					<radialGradient id="SVGID_10_" cx="29.1386" cy="28.4725" r="0.8628" gradientUnits="userSpaceOnUse">
						<stop  offset="0" style="stop-color:#FCBB72"/>
						<stop  offset="5.581846e-03" style="stop-color:#FAB970"/>
						<stop  offset="7.667933e-02" style="stop-color:#E3A555"/>
						<stop  offset="0.1573" style="stop-color:#D1943F"/>
						<stop  offset="0.2525" style="stop-color:#C2872E"/>
						<stop  offset="0.3704" style="stop-color:#B87E23"/>
						<stop  offset="0.5356" style="stop-color:#B3781C"/>
						<stop  offset="0.9946" style="stop-color:#B1771A"/>
					</radialGradient>
					<path class="st113" d="M29.5,28.5c0,0.2-0.2,0.4-0.4,0.4s-0.4-0.2-0.4-0.4c0-0.2,0.2-0.4,0.4-0.4S29.5,28.3,29.5,28.5z"/>
					<radialGradient id="SVGID_11_" cx="35.6255" cy="26.0021" r="0.8624" gradientUnits="userSpaceOnUse">
						<stop  offset="0" style="stop-color:#FCBB72"/>
						<stop  offset="5.581846e-03" style="stop-color:#FAB970"/>
						<stop  offset="7.667933e-02" style="stop-color:#E3A555"/>
						<stop  offset="0.1573" style="stop-color:#D1943F"/>
						<stop  offset="0.2525" style="stop-color:#C2872E"/>
						<stop  offset="0.3704" style="stop-color:#B87E23"/>
						<stop  offset="0.5356" style="stop-color:#B3781C"/>
						<stop  offset="0.9946" style="stop-color:#B1771A"/>
					</radialGradient>
					<path class="st114" d="M36,26c0,0.2-0.2,0.4-0.4,0.4c-0.2,0-0.4-0.2-0.4-0.4c0-0.2,0.2-0.4,0.4-0.4C35.8,25.6,36,25.8,36,26z"
						/>
					<radialGradient id="SVGID_12_" cx="21.0527" cy="28.431" r="0.8628" gradientUnits="userSpaceOnUse">
						<stop  offset="0" style="stop-color:#FCBB72"/>
						<stop  offset="5.581846e-03" style="stop-color:#FAB970"/>
						<stop  offset="7.667933e-02" style="stop-color:#E3A555"/>
						<stop  offset="0.1573" style="stop-color:#D1943F"/>
						<stop  offset="0.2525" style="stop-color:#C2872E"/>
						<stop  offset="0.3704" style="stop-color:#B87E23"/>
						<stop  offset="0.5356" style="stop-color:#B3781C"/>
						<stop  offset="0.9946" style="stop-color:#B1771A"/>
					</radialGradient>
					<path class="st115" d="M21.4,28.4c0,0.2-0.2,0.4-0.4,0.4c-0.2,0-0.4-0.2-0.4-0.4c0-0.2,0.2-0.4,0.4-0.4
						C21.3,28.1,21.4,28.2,21.4,28.4z"/>
					<radialGradient id="SVGID_13_" cx="44.8327" cy="31.4902" r="0.8628" gradientUnits="userSpaceOnUse">
						<stop  offset="0" style="stop-color:#FCBB72"/>
						<stop  offset="5.581846e-03" style="stop-color:#FAB970"/>
						<stop  offset="7.667933e-02" style="stop-color:#E3A555"/>
						<stop  offset="0.1573" style="stop-color:#D1943F"/>
						<stop  offset="0.2525" style="stop-color:#C2872E"/>
						<stop  offset="0.3704" style="stop-color:#B87E23"/>
						<stop  offset="0.5356" style="stop-color:#B3781C"/>
						<stop  offset="0.9946" style="stop-color:#B1771A"/>
					</radialGradient>
					<path class="st116" d="M45.2,31.5c0,0.2-0.2,0.4-0.4,0.4c-0.2,0-0.4-0.2-0.4-0.4c0-0.2,0.2-0.4,0.4-0.4
						C45,31.1,45.2,31.3,45.2,31.5z"/>
					<radialGradient id="SVGID_14_" cx="30.4677" cy="38.0219" r="0.862" gradientUnits="userSpaceOnUse">
						<stop  offset="0" style="stop-color:#FCBB72"/>
						<stop  offset="5.581846e-03" style="stop-color:#FAB970"/>
						<stop  offset="7.667933e-02" style="stop-color:#E3A555"/>
						<stop  offset="0.1573" style="stop-color:#D1943F"/>
						<stop  offset="0.2525" style="stop-color:#C2872E"/>
						<stop  offset="0.3704" style="stop-color:#B87E23"/>
						<stop  offset="0.5356" style="stop-color:#B3781C"/>
						<stop  offset="0.9946" style="stop-color:#B1771A"/>
					</radialGradient>
					<path class="st117" d="M30.8,38c0,0.2-0.2,0.4-0.4,0.4c-0.2,0-0.4-0.2-0.4-0.4c0-0.2,0.2-0.4,0.4-0.4
						C30.7,37.7,30.8,37.8,30.8,38z"/>
					<radialGradient id="SVGID_15_" cx="23.0354" cy="32.666" r="0.8637" gradientUnits="userSpaceOnUse">
						<stop  offset="0" style="stop-color:#FCBB72"/>
						<stop  offset="5.581846e-03" style="stop-color:#FAB970"/>
						<stop  offset="7.667933e-02" style="stop-color:#E3A555"/>
						<stop  offset="0.1573" style="stop-color:#D1943F"/>
						<stop  offset="0.2525" style="stop-color:#C2872E"/>
						<stop  offset="0.3704" style="stop-color:#B87E23"/>
						<stop  offset="0.5356" style="stop-color:#B3781C"/>
						<stop  offset="0.9946" style="stop-color:#B1771A"/>
					</radialGradient>
					<path class="st118" d="M23.4,32.7c0,0.2-0.2,0.4-0.4,0.4c-0.2,0-0.4-0.2-0.4-0.4c0-0.2,0.2-0.4,0.4-0.4
						C23.2,32.3,23.4,32.5,23.4,32.7z"/>
					<radialGradient id="SVGID_16_" cx="22.8384" cy="38.4159" r="0.8628" gradientUnits="userSpaceOnUse">
						<stop  offset="0" style="stop-color:#FCBB72"/>
						<stop  offset="5.581846e-03" style="stop-color:#FAB970"/>
						<stop  offset="7.667933e-02" style="stop-color:#E3A555"/>
						<stop  offset="0.1573" style="stop-color:#D1943F"/>
						<stop  offset="0.2525" style="stop-color:#C2872E"/>
						<stop  offset="0.3704" style="stop-color:#B87E23"/>
						<stop  offset="0.5356" style="stop-color:#B3781C"/>
						<stop  offset="0.9946" style="stop-color:#B1771A"/>
					</radialGradient>
					<path class="st119" d="M23.2,38.4c0,0.2-0.2,0.4-0.4,0.4c-0.2,0-0.4-0.2-0.4-0.4c0-0.2,0.2-0.4,0.4-0.4
						C23,38.1,23.2,38.2,23.2,38.4z"/>
					<radialGradient id="SVGID_17_" cx="17.2229" cy="42.049" r="0.8625" gradientUnits="userSpaceOnUse">
						<stop  offset="0" style="stop-color:#FCBB72"/>
						<stop  offset="5.581846e-03" style="stop-color:#FAB970"/>
						<stop  offset="7.667933e-02" style="stop-color:#E3A555"/>
						<stop  offset="0.1573" style="stop-color:#D1943F"/>
						<stop  offset="0.2525" style="stop-color:#C2872E"/>
						<stop  offset="0.3704" style="stop-color:#B87E23"/>
						<stop  offset="0.5356" style="stop-color:#B3781C"/>
						<stop  offset="0.9946" style="stop-color:#B1771A"/>
					</radialGradient>
					<path class="st120" d="M17.6,42c0,0.2-0.2,0.4-0.4,0.4c-0.2,0-0.4-0.2-0.4-0.4c0-0.2,0.2-0.4,0.4-0.4
						C17.4,41.7,17.6,41.8,17.6,42z"/>
					<radialGradient id="SVGID_18_" cx="19.7552" cy="46.4079" r="0.8624" gradientUnits="userSpaceOnUse">
						<stop  offset="0" style="stop-color:#FCBB72"/>
						<stop  offset="5.581846e-03" style="stop-color:#FAB970"/>
						<stop  offset="7.667933e-02" style="stop-color:#E3A555"/>
						<stop  offset="0.1573" style="stop-color:#D1943F"/>
						<stop  offset="0.2525" style="stop-color:#C2872E"/>
						<stop  offset="0.3704" style="stop-color:#B87E23"/>
						<stop  offset="0.5356" style="stop-color:#B3781C"/>
						<stop  offset="0.9946" style="stop-color:#B1771A"/>
					</radialGradient>
					<path class="st121" d="M20.1,46.4c0,0.2-0.2,0.4-0.4,0.4s-0.4-0.2-0.4-0.4c0-0.2,0.2-0.4,0.4-0.4S20.1,46.2,20.1,46.4z"/>
					<radialGradient id="SVGID_19_" cx="17.3474" cy="33.2887" r="0.8628" gradientUnits="userSpaceOnUse">
						<stop  offset="0" style="stop-color:#FCBB72"/>
						<stop  offset="5.581846e-03" style="stop-color:#FAB970"/>
						<stop  offset="7.667933e-02" style="stop-color:#E3A555"/>
						<stop  offset="0.1573" style="stop-color:#D1943F"/>
						<stop  offset="0.2525" style="stop-color:#C2872E"/>
						<stop  offset="0.3704" style="stop-color:#B87E23"/>
						<stop  offset="0.5356" style="stop-color:#B3781C"/>
						<stop  offset="0.9946" style="stop-color:#B1771A"/>
					</radialGradient>
					<path class="st122" d="M17.7,33.3c0,0.2-0.2,0.4-0.4,0.4c-0.2,0-0.4-0.2-0.4-0.4c0-0.2,0.2-0.4,0.4-0.4
						C17.5,32.9,17.7,33.1,17.7,33.3z"/>
					<radialGradient id="SVGID_20_" cx="25.1526" cy="44.9968" r="0.8628" gradientUnits="userSpaceOnUse">
						<stop  offset="0" style="stop-color:#FCBB72"/>
						<stop  offset="5.581846e-03" style="stop-color:#FAB970"/>
						<stop  offset="7.667933e-02" style="stop-color:#E3A555"/>
						<stop  offset="0.1573" style="stop-color:#D1943F"/>
						<stop  offset="0.2525" style="stop-color:#C2872E"/>
						<stop  offset="0.3704" style="stop-color:#B87E23"/>
						<stop  offset="0.5356" style="stop-color:#B3781C"/>
						<stop  offset="0.9946" style="stop-color:#B1771A"/>
					</radialGradient>
					<path class="st123" d="M25.5,45c0,0.2-0.2,0.4-0.4,0.4c-0.2,0-0.4-0.2-0.4-0.4c0-0.2,0.2-0.4,0.4-0.4
						C25.4,44.6,25.5,44.8,25.5,45z"/>
					<radialGradient id="SVGID_21_" cx="28.2668" cy="48.2352" r="0.8624" gradientUnits="userSpaceOnUse">
						<stop  offset="0" style="stop-color:#FCBB72"/>
						<stop  offset="5.581846e-03" style="stop-color:#FAB970"/>
						<stop  offset="7.667933e-02" style="stop-color:#E3A555"/>
						<stop  offset="0.1573" style="stop-color:#D1943F"/>
						<stop  offset="0.2525" style="stop-color:#C2872E"/>
						<stop  offset="0.3704" style="stop-color:#B87E23"/>
						<stop  offset="0.5356" style="stop-color:#B3781C"/>
						<stop  offset="0.9946" style="stop-color:#B1771A"/>
					</radialGradient>
					<path class="st124" d="M28.6,48.2c0,0.2-0.2,0.4-0.4,0.4c-0.2,0-0.4-0.2-0.4-0.4c0-0.2,0.2-0.4,0.4-0.4
						C28.5,47.9,28.6,48,28.6,48.2z"/>
				</g>
			</g>
		</g>
		<g>
			<g>
				
					<radialGradient id="SVGID_22_" cx="-4016.2615" cy="41.218" r="21.3035" gradientTransform="matrix(-1 0 0 1 -3961.7563 0)" gradientUnits="userSpaceOnUse">
					<stop  offset="0.3817" style="stop-color:#FCBB72"/>
					<stop  offset="0.464" style="stop-color:#F7B66E"/>
					<stop  offset="0.5659" style="stop-color:#E8A664"/>
					<stop  offset="0.6783" style="stop-color:#CF8D52"/>
					<stop  offset="0.7981" style="stop-color:#AC6A3A"/>
					<stop  offset="0.9226" style="stop-color:#803D1A"/>
					<stop  offset="0.9946" style="stop-color:#632006"/>
				</radialGradient>
				<path class="st125" d="M49.7,54.1c4.7,0,8.4-0.9,11.1-2.6c3.1-2,4.6-5.1,4.6-9.2c0-4.3-1.5-7.2-5-9.6c-3.4-2.4-7.3-3.7-10.8-3.7
					c-4.4,0-8.3,1.2-11.1,3.4c-3,2.4-4.6,5.8-4.6,10c0,4.1,1.6,7.2,4.6,9.2C41.2,53.2,45,54.1,49.7,54.1z"/>
				
					<radialGradient id="SVGID_23_" cx="-4011.1765" cy="36.2347" r="21.0707" gradientTransform="matrix(-1 0 0 1 -3961.7563 0)" gradientUnits="userSpaceOnUse">
					<stop  offset="0.3817" style="stop-color:#FCBB72"/>
					<stop  offset="0.4969" style="stop-color:#F7B76D"/>
					<stop  offset="0.6396" style="stop-color:#EAAB5D"/>
					<stop  offset="0.7968" style="stop-color:#D59844"/>
					<stop  offset="0.9635" style="stop-color:#B77D21"/>
					<stop  offset="0.9946" style="stop-color:#B1771A"/>
				</radialGradient>
				<path class="st126" d="M34.1,42.3c0,8.6,7,11.7,15.6,11.7c8.6,0,15.6-3,15.6-11.7c0-4.6-1.7-7.3-4.9-9.5
					c-2.8-1.9-6.7-3.7-10.7-3.7C41.1,29.1,34.1,33.7,34.1,42.3z"/>
				<g>
					
						<radialGradient id="SVGID_24_" cx="-4004.4312" cy="50.7988" r="0.7575" gradientTransform="matrix(-1 0 0 1 -3961.7563 0)" gradientUnits="userSpaceOnUse">
						<stop  offset="0" style="stop-color:#FCBB72"/>
						<stop  offset="5.581846e-03" style="stop-color:#FAB970"/>
						<stop  offset="7.667933e-02" style="stop-color:#E3A555"/>
						<stop  offset="0.1573" style="stop-color:#D1943F"/>
						<stop  offset="0.2525" style="stop-color:#C2872E"/>
						<stop  offset="0.3704" style="stop-color:#B87E23"/>
						<stop  offset="0.5356" style="stop-color:#B3781C"/>
						<stop  offset="0.9946" style="stop-color:#B1771A"/>
					</radialGradient>
					<path class="st127" d="M42.4,50.8c0,0.2,0.1,0.3,0.3,0.3c0.2,0,0.3-0.1,0.3-0.3s-0.1-0.3-0.3-0.3
						C42.5,50.5,42.4,50.6,42.4,50.8z"/>
					
						<radialGradient id="SVGID_25_" cx="-4009.8455" cy="48.6021" r="0.7575" gradientTransform="matrix(-1 0 0 1 -3961.7563 0)" gradientUnits="userSpaceOnUse">
						<stop  offset="0" style="stop-color:#FCBB72"/>
						<stop  offset="5.581846e-03" style="stop-color:#FAB970"/>
						<stop  offset="7.667933e-02" style="stop-color:#E3A555"/>
						<stop  offset="0.1573" style="stop-color:#D1943F"/>
						<stop  offset="0.2525" style="stop-color:#C2872E"/>
						<stop  offset="0.3704" style="stop-color:#B87E23"/>
						<stop  offset="0.5356" style="stop-color:#B3781C"/>
						<stop  offset="0.9946" style="stop-color:#B1771A"/>
					</radialGradient>
					<path class="st128" d="M47.8,48.6c0,0.2,0.1,0.3,0.3,0.3c0.2,0,0.3-0.1,0.3-0.3s-0.1-0.3-0.3-0.3
						C47.9,48.3,47.8,48.4,47.8,48.6z"/>
					
						<radialGradient id="SVGID_26_" cx="-4000.7063" cy="46.7516" r="0.7583" gradientTransform="matrix(-1 0 0 1 -3961.7563 0)" gradientUnits="userSpaceOnUse">
						<stop  offset="0" style="stop-color:#FCBB72"/>
						<stop  offset="5.581846e-03" style="stop-color:#FAB970"/>
						<stop  offset="7.667933e-02" style="stop-color:#E3A555"/>
						<stop  offset="0.1573" style="stop-color:#D1943F"/>
						<stop  offset="0.2525" style="stop-color:#C2872E"/>
						<stop  offset="0.3704" style="stop-color:#B87E23"/>
						<stop  offset="0.5356" style="stop-color:#B3781C"/>
						<stop  offset="0.9946" style="stop-color:#B1771A"/>
					</radialGradient>
					<path class="st129" d="M38.6,46.8c0,0.2,0.1,0.3,0.3,0.3c0.2,0,0.3-0.1,0.3-0.3s-0.1-0.3-0.3-0.3
						C38.8,46.4,38.6,46.6,38.6,46.8z"/>
					
						<radialGradient id="SVGID_27_" cx="-4006.1541" cy="42.6502" r="0.7578" gradientTransform="matrix(-1 0 0 1 -3961.7563 0)" gradientUnits="userSpaceOnUse">
						<stop  offset="0" style="stop-color:#FCBB72"/>
						<stop  offset="5.581846e-03" style="stop-color:#FAB970"/>
						<stop  offset="7.667933e-02" style="stop-color:#E3A555"/>
						<stop  offset="0.1573" style="stop-color:#D1943F"/>
						<stop  offset="0.2525" style="stop-color:#C2872E"/>
						<stop  offset="0.3704" style="stop-color:#B87E23"/>
						<stop  offset="0.5356" style="stop-color:#B3781C"/>
						<stop  offset="0.9946" style="stop-color:#B1771A"/>
					</radialGradient>
					<path class="st130" d="M44.1,42.7c0,0.2,0.1,0.3,0.3,0.3c0.2,0,0.3-0.1,0.3-0.3s-0.1-0.3-0.3-0.3
						C44.2,42.3,44.1,42.5,44.1,42.7z"/>
					
						<radialGradient id="SVGID_28_" cx="-4001.2595" cy="40.8455" r="0.7579" gradientTransform="matrix(-1 0 0 1 -3961.7563 0)" gradientUnits="userSpaceOnUse">
						<stop  offset="0" style="stop-color:#FCBB72"/>
						<stop  offset="5.581846e-03" style="stop-color:#FAB970"/>
						<stop  offset="7.667933e-02" style="stop-color:#E3A555"/>
						<stop  offset="0.1573" style="stop-color:#D1943F"/>
						<stop  offset="0.2525" style="stop-color:#C2872E"/>
						<stop  offset="0.3704" style="stop-color:#B87E23"/>
						<stop  offset="0.5356" style="stop-color:#B3781C"/>
						<stop  offset="0.9946" style="stop-color:#B1771A"/>
					</radialGradient>
					<path class="st131" d="M39.2,40.8c0,0.2,0.1,0.3,0.3,0.3s0.3-0.1,0.3-0.3c0-0.2-0.1-0.3-0.3-0.3S39.2,40.7,39.2,40.8z"/>
					
						<radialGradient id="SVGID_29_" cx="-4007.8313" cy="38.8592" r="0.757" gradientTransform="matrix(-1 0 0 1 -3961.7563 0)" gradientUnits="userSpaceOnUse">
						<stop  offset="0" style="stop-color:#FCBB72"/>
						<stop  offset="5.581846e-03" style="stop-color:#FAB970"/>
						<stop  offset="7.667933e-02" style="stop-color:#E3A555"/>
						<stop  offset="0.1573" style="stop-color:#D1943F"/>
						<stop  offset="0.2525" style="stop-color:#C2872E"/>
						<stop  offset="0.3704" style="stop-color:#B87E23"/>
						<stop  offset="0.5356" style="stop-color:#B3781C"/>
						<stop  offset="0.9946" style="stop-color:#B1771A"/>
					</radialGradient>
					<path class="st132" d="M45.8,38.9c0,0.2,0.1,0.3,0.3,0.3c0.2,0,0.3-0.1,0.3-0.3s-0.1-0.3-0.3-0.3
						C45.9,38.5,45.8,38.7,45.8,38.9z"/>
					
						<radialGradient id="SVGID_30_" cx="-4006.2268" cy="35.4685" r="0.7575" gradientTransform="matrix(-1 0 0 1 -3961.7563 0)" gradientUnits="userSpaceOnUse">
						<stop  offset="0" style="stop-color:#FCBB72"/>
						<stop  offset="5.581846e-03" style="stop-color:#FAB970"/>
						<stop  offset="7.667933e-02" style="stop-color:#E3A555"/>
						<stop  offset="0.1573" style="stop-color:#D1943F"/>
						<stop  offset="0.2525" style="stop-color:#C2872E"/>
						<stop  offset="0.3704" style="stop-color:#B87E23"/>
						<stop  offset="0.5356" style="stop-color:#B3781C"/>
						<stop  offset="0.9946" style="stop-color:#B1771A"/>
					</radialGradient>
					<path class="st133" d="M44.1,35.5c0,0.2,0.1,0.3,0.3,0.3c0.2,0,0.3-0.1,0.3-0.3c0-0.2-0.1-0.3-0.3-0.3
						C44.3,35.1,44.1,35.3,44.1,35.5z"/>
					
						<radialGradient id="SVGID_31_" cx="-4012.9712" cy="33.682" r="0.7579" gradientTransform="matrix(-1 0 0 1 -3961.7563 0)" gradientUnits="userSpaceOnUse">
						<stop  offset="0" style="stop-color:#FCBB72"/>
						<stop  offset="5.581846e-03" style="stop-color:#FAB970"/>
						<stop  offset="7.667933e-02" style="stop-color:#E3A555"/>
						<stop  offset="0.1573" style="stop-color:#D1943F"/>
						<stop  offset="0.2525" style="stop-color:#C2872E"/>
						<stop  offset="0.3704" style="stop-color:#B87E23"/>
						<stop  offset="0.5356" style="stop-color:#B3781C"/>
						<stop  offset="0.9946" style="stop-color:#B1771A"/>
					</radialGradient>
					<path class="st134" d="M50.9,33.7c0,0.2,0.1,0.3,0.3,0.3c0.2,0,0.3-0.1,0.3-0.3c0-0.2-0.1-0.3-0.3-0.3
						C51,33.4,50.9,33.5,50.9,33.7z"/>
					
						<radialGradient id="SVGID_32_" cx="-4007.2751" cy="31.5131" r="0.757" gradientTransform="matrix(-1 0 0 1 -3961.7563 0)" gradientUnits="userSpaceOnUse">
						<stop  offset="0" style="stop-color:#FCBB72"/>
						<stop  offset="5.581846e-03" style="stop-color:#FAB970"/>
						<stop  offset="7.667933e-02" style="stop-color:#E3A555"/>
						<stop  offset="0.1573" style="stop-color:#D1943F"/>
						<stop  offset="0.2525" style="stop-color:#C2872E"/>
						<stop  offset="0.3704" style="stop-color:#B87E23"/>
						<stop  offset="0.5356" style="stop-color:#B3781C"/>
						<stop  offset="0.9946" style="stop-color:#B1771A"/>
					</radialGradient>
					<path class="st135" d="M45.2,31.5c0,0.2,0.1,0.3,0.3,0.3c0.2,0,0.3-0.1,0.3-0.3c0-0.2-0.1-0.3-0.3-0.3
						C45.3,31.2,45.2,31.3,45.2,31.5z"/>
					
						<radialGradient id="SVGID_33_" cx="-4020.0715" cy="33.6458" r="0.7575" gradientTransform="matrix(-1 0 0 1 -3961.7563 0)" gradientUnits="userSpaceOnUse">
						<stop  offset="0" style="stop-color:#FCBB72"/>
						<stop  offset="5.581846e-03" style="stop-color:#FAB970"/>
						<stop  offset="7.667933e-02" style="stop-color:#E3A555"/>
						<stop  offset="0.1573" style="stop-color:#D1943F"/>
						<stop  offset="0.2525" style="stop-color:#C2872E"/>
						<stop  offset="0.3704" style="stop-color:#B87E23"/>
						<stop  offset="0.5356" style="stop-color:#B3781C"/>
						<stop  offset="0.9946" style="stop-color:#B1771A"/>
					</radialGradient>
					<circle class="st136" cx="58.3" cy="33.6" r="0.3"/>
					
						<radialGradient id="SVGID_34_" cx="-3999.1909" cy="36.3325" r="0.757" gradientTransform="matrix(-1 0 0 1 -3961.7563 0)" gradientUnits="userSpaceOnUse">
						<stop  offset="0" style="stop-color:#FCBB72"/>
						<stop  offset="5.581846e-03" style="stop-color:#FAB970"/>
						<stop  offset="7.667933e-02" style="stop-color:#E3A555"/>
						<stop  offset="0.1573" style="stop-color:#D1943F"/>
						<stop  offset="0.2525" style="stop-color:#C2872E"/>
						<stop  offset="0.3704" style="stop-color:#B87E23"/>
						<stop  offset="0.5356" style="stop-color:#B3781C"/>
						<stop  offset="0.9946" style="stop-color:#B1771A"/>
					</radialGradient>
					<path class="st137" d="M37.1,36.3c0,0.2,0.1,0.3,0.3,0.3c0.2,0,0.3-0.1,0.3-0.3S37.6,36,37.4,36C37.3,36,37.1,36.2,37.1,36.3z"
						/>
					
						<radialGradient id="SVGID_35_" cx="-4011.8049" cy="42.0673" r="0.7578" gradientTransform="matrix(-1 0 0 1 -3961.7563 0)" gradientUnits="userSpaceOnUse">
						<stop  offset="0" style="stop-color:#FCBB72"/>
						<stop  offset="5.581846e-03" style="stop-color:#FAB970"/>
						<stop  offset="7.667933e-02" style="stop-color:#E3A555"/>
						<stop  offset="0.1573" style="stop-color:#D1943F"/>
						<stop  offset="0.2525" style="stop-color:#C2872E"/>
						<stop  offset="0.3704" style="stop-color:#B87E23"/>
						<stop  offset="0.5356" style="stop-color:#B3781C"/>
						<stop  offset="0.9946" style="stop-color:#B1771A"/>
					</radialGradient>
					<path class="st138" d="M49.7,42.1c0,0.2,0.1,0.3,0.3,0.3c0.2,0,0.3-0.1,0.3-0.3c0-0.2-0.1-0.3-0.3-0.3
						C49.9,41.7,49.7,41.9,49.7,42.1z"/>
					
						<radialGradient id="SVGID_36_" cx="-4018.3306" cy="37.3644" r="0.7574" gradientTransform="matrix(-1 0 0 1 -3961.7563 0)" gradientUnits="userSpaceOnUse">
						<stop  offset="0" style="stop-color:#FCBB72"/>
						<stop  offset="5.581846e-03" style="stop-color:#FAB970"/>
						<stop  offset="7.667933e-02" style="stop-color:#E3A555"/>
						<stop  offset="0.1573" style="stop-color:#D1943F"/>
						<stop  offset="0.2525" style="stop-color:#C2872E"/>
						<stop  offset="0.3704" style="stop-color:#B87E23"/>
						<stop  offset="0.5356" style="stop-color:#B3781C"/>
						<stop  offset="0.9946" style="stop-color:#B1771A"/>
					</radialGradient>
					<path class="st139" d="M56.3,37.4c0,0.2,0.1,0.3,0.3,0.3c0.2,0,0.3-0.1,0.3-0.3S56.8,37,56.6,37C56.4,37,56.3,37.2,56.3,37.4z"
						/>
					
						<radialGradient id="SVGID_37_" cx="-4018.5042" cy="42.4138" r="0.7575" gradientTransform="matrix(-1 0 0 1 -3961.7563 0)" gradientUnits="userSpaceOnUse">
						<stop  offset="0" style="stop-color:#FCBB72"/>
						<stop  offset="5.581846e-03" style="stop-color:#FAB970"/>
						<stop  offset="7.667933e-02" style="stop-color:#E3A555"/>
						<stop  offset="0.1573" style="stop-color:#D1943F"/>
						<stop  offset="0.2525" style="stop-color:#C2872E"/>
						<stop  offset="0.3704" style="stop-color:#B87E23"/>
						<stop  offset="0.5356" style="stop-color:#B3781C"/>
						<stop  offset="0.9946" style="stop-color:#B1771A"/>
					</radialGradient>
					<path class="st140" d="M56.4,42.4c0,0.2,0.1,0.3,0.3,0.3c0.2,0,0.3-0.1,0.3-0.3c0-0.2-0.1-0.3-0.3-0.3
						C56.6,42.1,56.4,42.2,56.4,42.4z"/>
					
						<radialGradient id="SVGID_38_" cx="-4023.4346" cy="45.6037" r="0.7574" gradientTransform="matrix(-1 0 0 1 -3961.7563 0)" gradientUnits="userSpaceOnUse">
						<stop  offset="0" style="stop-color:#FCBB72"/>
						<stop  offset="5.581846e-03" style="stop-color:#FAB970"/>
						<stop  offset="7.667933e-02" style="stop-color:#E3A555"/>
						<stop  offset="0.1573" style="stop-color:#D1943F"/>
						<stop  offset="0.2525" style="stop-color:#C2872E"/>
						<stop  offset="0.3704" style="stop-color:#B87E23"/>
						<stop  offset="0.5356" style="stop-color:#B3781C"/>
						<stop  offset="0.9946" style="stop-color:#B1771A"/>
					</radialGradient>
					<path class="st141" d="M61.4,45.6c0,0.2,0.1,0.3,0.3,0.3c0.2,0,0.3-0.1,0.3-0.3c0-0.2-0.1-0.3-0.3-0.3
						C61.5,45.3,61.4,45.4,61.4,45.6z"/>
					
						<radialGradient id="SVGID_39_" cx="-4021.2109" cy="49.4316" r="0.7575" gradientTransform="matrix(-1 0 0 1 -3961.7563 0)" gradientUnits="userSpaceOnUse">
						<stop  offset="0" style="stop-color:#FCBB72"/>
						<stop  offset="5.581846e-03" style="stop-color:#FAB970"/>
						<stop  offset="7.667933e-02" style="stop-color:#E3A555"/>
						<stop  offset="0.1573" style="stop-color:#D1943F"/>
						<stop  offset="0.2525" style="stop-color:#C2872E"/>
						<stop  offset="0.3704" style="stop-color:#B87E23"/>
						<stop  offset="0.5356" style="stop-color:#B3781C"/>
						<stop  offset="0.9946" style="stop-color:#B1771A"/>
					</radialGradient>
					<path class="st142" d="M59.1,49.4c0,0.2,0.1,0.3,0.3,0.3s0.3-0.1,0.3-0.3c0-0.2-0.1-0.3-0.3-0.3S59.1,49.3,59.1,49.4z"/>
					
						<radialGradient id="SVGID_40_" cx="-4023.3252" cy="37.9114" r="0.7575" gradientTransform="matrix(-1 0 0 1 -3961.7563 0)" gradientUnits="userSpaceOnUse">
						<stop  offset="0" style="stop-color:#FCBB72"/>
						<stop  offset="5.581846e-03" style="stop-color:#FAB970"/>
						<stop  offset="7.667933e-02" style="stop-color:#E3A555"/>
						<stop  offset="0.1573" style="stop-color:#D1943F"/>
						<stop  offset="0.2525" style="stop-color:#C2872E"/>
						<stop  offset="0.3704" style="stop-color:#B87E23"/>
						<stop  offset="0.5356" style="stop-color:#B3781C"/>
						<stop  offset="0.9946" style="stop-color:#B1771A"/>
					</radialGradient>
					<path class="st143" d="M61.2,37.9c0,0.2,0.1,0.3,0.3,0.3c0.2,0,0.3-0.1,0.3-0.3s-0.1-0.3-0.3-0.3
						C61.4,37.6,61.2,37.7,61.2,37.9z"/>
					
						<radialGradient id="SVGID_41_" cx="-4016.4709" cy="48.1919" r="0.7579" gradientTransform="matrix(-1 0 0 1 -3961.7563 0)" gradientUnits="userSpaceOnUse">
						<stop  offset="0" style="stop-color:#FCBB72"/>
						<stop  offset="5.581846e-03" style="stop-color:#FAB970"/>
						<stop  offset="7.667933e-02" style="stop-color:#E3A555"/>
						<stop  offset="0.1573" style="stop-color:#D1943F"/>
						<stop  offset="0.2525" style="stop-color:#C2872E"/>
						<stop  offset="0.3704" style="stop-color:#B87E23"/>
						<stop  offset="0.5356" style="stop-color:#B3781C"/>
						<stop  offset="0.9946" style="stop-color:#B1771A"/>
					</radialGradient>
					<path class="st144" d="M54.4,48.2c0,0.2,0.1,0.3,0.3,0.3c0.2,0,0.3-0.1,0.3-0.3c0-0.2-0.1-0.3-0.3-0.3
						C54.5,47.9,54.4,48,54.4,48.2z"/>
					
						<radialGradient id="SVGID_42_" cx="-4013.7371" cy="51.0359" r="0.7575" gradientTransform="matrix(-1 0 0 1 -3961.7563 0)" gradientUnits="userSpaceOnUse">
						<stop  offset="0" style="stop-color:#FCBB72"/>
						<stop  offset="5.581846e-03" style="stop-color:#FAB970"/>
						<stop  offset="7.667933e-02" style="stop-color:#E3A555"/>
						<stop  offset="0.1573" style="stop-color:#D1943F"/>
						<stop  offset="0.2525" style="stop-color:#C2872E"/>
						<stop  offset="0.3704" style="stop-color:#B87E23"/>
						<stop  offset="0.5356" style="stop-color:#B3781C"/>
						<stop  offset="0.9946" style="stop-color:#B1771A"/>
					</radialGradient>
					<path class="st145" d="M51.7,51c0,0.2,0.1,0.3,0.3,0.3c0.2,0,0.3-0.1,0.3-0.3s-0.1-0.3-0.3-0.3C51.8,50.7,51.7,50.9,51.7,51z"
						/>
				</g>
			</g>
		</g>
	</g>
	<g>
		<path class="st178" d="M38.2,76.3C17.1,76.3,0,59.2,0,38.2C0,17.1,17.1,0,38.2,0s38.2,17.1,38.2,38.2
			C76.3,59.2,59.2,76.3,38.2,76.3z M38.2,1C17.7,1,1,17.7,1,38.2s16.7,37.2,37.2,37.2s37.2-16.7,37.2-37.2S58.7,1,38.2,1z"/>
	</g>
</g>
</svg>
