<?xml version="1.0" encoding="utf-8"?>
<!-- Generator: Adobe Illustrator 24.0.2, SVG Export Plug-In . SVG Version: 6.00 Build 0)  -->
<svg version="1.1" xmlns="http://www.w3.org/2000/svg" xmlns:xlink="http://www.w3.org/1999/xlink" x="0px" y="0px"
	 viewBox="0 0 76.3 76.3" style="enable-background:new 0 0 76.3 76.3;" xml:space="preserve">
<style type="text/css">
	.st0{fill:#FFCFCF;}
	.st1{fill:#EAF2F9;}
	.st2{fill:#00711F;}
	.st3{fill:#65881C;}
	.st4{fill:#8BBE42;}
	.st5{fill:#6C9826;}
	.st6{fill:#A4CAB9;}
	.st7{fill:none;stroke:#C6E9D9;stroke-width:2.8652;stroke-linecap:round;stroke-miterlimit:10;}
	.st8{fill:#ACD663;}
	.st9{fill:#578E11;}
	.st10{fill:#6FAA2D;}
	.st11{fill:#FA363B;}
	.st12{fill:#F6EFF0;}
	.st13{fill:#F0D417;}
	.st14{fill:#75A725;}
	.st15{fill:#0F1F2C;}
	.st16{fill:#2A3C4E;}
	.st17{fill:#6D8244;}
	.st18{fill:#435122;}
	.st19{fill:#F7F5DF;}
	.st20{fill:#E0DCBD;}
	.st21{fill:#FFFEF3;}
	.st22{opacity:0.33;}
	.st23{opacity:0.26;}
	.st24{fill:#FF4C41;}
	.st25{opacity:0.22;fill:#FFFFFF;}
	.st26{opacity:0.25;}
	.st27{fill:#F4B245;}
	.st28{fill:#A9D45D;}
	.st29{fill:#00533F;}
	.st30{fill:#C7E2D7;}
	.st31{fill:#FF7F75;}
	.st32{fill:#4B4F43;}
	.st33{opacity:0.41;}
	.st34{fill:#162A47;}
	.st35{opacity:0.22;}
	.st36{fill:#EAF9F1;}
	.st37{opacity:0.5;}
	.st38{fill:#FCA712;}
	.st39{fill:#FABE59;}
	.st40{fill:#F9CB87;}
	.st41{fill:#FFDEB6;}
	.st42{fill:#803FCD;}
	.st43{fill:#5E309F;}
	.st44{fill:#595959;}
	.st45{fill:#FBFBF6;}
	.st46{fill:#3D456A;}
	.st47{fill:#1B203D;}
	.st48{fill:#783730;}
	.st49{fill:#582521;}
	.st50{fill:#FF2929;}
	.st51{fill:#FF144F;}
	.st52{fill:#FF6E51;stroke:#FF6E51;stroke-width:0.2786;stroke-miterlimit:10;}
	.st53{fill:#FCFFDC;}
	.st54{fill:#5D3405;}
	.st55{fill:#F3CC8C;}
	.st56{opacity:0.67;fill:#B78D47;}
	.st57{fill:#131A42;}
	.st58{opacity:0.84;}
	.st59{opacity:0.29;}
	.st60{fill:#535B7B;}
	.st61{fill:#C67DBF;}
	.st62{fill:#F5ACDF;}
	.st63{fill:#EF9900;}
	.st64{fill:#E5E5E5;}
	.st65{fill:#F4F4F4;}
	.st66{fill:#EFEFEF;}
	.st67{fill:#FFFFFF;}
	.st68{fill:#FDC653;}
	.st69{fill:#FDD05C;}
	.st70{fill:#FDDA55;}
	.st71{fill:#FDE356;}
	.st72{fill:#E79563;}
	.st73{opacity:0.14;fill:#976647;}
	.st74{opacity:0.26;fill:#FFEFE8;}
	.st75{fill:#B4501A;}
	.st76{fill:#E57838;}
	.st77{opacity:0.38;fill:#E57838;}
	.st78{opacity:0.26;fill:#E57838;}
	.st79{fill:#D0CEAE;}
	.st80{fill:#95947F;}
	.st81{fill:#BEBCA3;}
	.st82{fill:#FFFDD8;}
	.st83{fill:#FC9D29;}
	.st84{fill:#FDCE31;}
	.st85{fill:#FFFFEE;}
	.st86{opacity:0.72;fill:#FFFFFF;}
	.st87{fill:#DE2A2F;}
	.st88{fill:#E35E47;}
	.st89{fill:#C12427;}
	.st90{fill:#008641;}
	.st91{fill:#007A3B;}
	.st92{fill:#B1B6BA;}
	.st93{fill:#7C868D;}
	.st94{fill:#E6E6E6;}
	.st95{fill:#F7DBDB;}
	.st96{fill:#F0F0D3;}
	.st97{fill:#5A788F;}
	.st98{fill:#ECECEC;}
	.st99{fill:#36393F;}
	.st100{fill:#5F6568;}
	.st101{fill:#0A1114;}
	.st102{fill:#022444;}
	.st103{fill:#5A6975;}
	.st104{fill:url(#SVGID_1_);}
	.st105{fill:url(#SVGID_2_);}
	.st106{fill:url(#SVGID_3_);}
	.st107{fill:url(#SVGID_4_);}
	.st108{fill:url(#SVGID_5_);}
	.st109{fill:url(#SVGID_6_);}
	.st110{fill:url(#SVGID_7_);}
	.st111{fill:url(#SVGID_8_);}
	.st112{fill:url(#SVGID_9_);}
	.st113{fill:url(#SVGID_10_);}
	.st114{fill:url(#SVGID_11_);}
	.st115{fill:url(#SVGID_12_);}
	.st116{fill:url(#SVGID_13_);}
	.st117{fill:url(#SVGID_14_);}
	.st118{fill:url(#SVGID_15_);}
	.st119{fill:url(#SVGID_16_);}
	.st120{fill:url(#SVGID_17_);}
	.st121{fill:url(#SVGID_18_);}
	.st122{fill:url(#SVGID_19_);}
	.st123{fill:url(#SVGID_20_);}
	.st124{fill:url(#SVGID_21_);}
	.st125{fill:url(#SVGID_22_);}
	.st126{fill:url(#SVGID_23_);}
	.st127{fill:url(#SVGID_24_);}
	.st128{fill:url(#SVGID_25_);}
	.st129{fill:url(#SVGID_26_);}
	.st130{fill:url(#SVGID_27_);}
	.st131{fill:url(#SVGID_28_);}
	.st132{fill:url(#SVGID_29_);}
	.st133{fill:url(#SVGID_30_);}
	.st134{fill:url(#SVGID_31_);}
	.st135{fill:url(#SVGID_32_);}
	.st136{fill:url(#SVGID_33_);}
	.st137{fill:url(#SVGID_34_);}
	.st138{fill:url(#SVGID_35_);}
	.st139{fill:url(#SVGID_36_);}
	.st140{fill:url(#SVGID_37_);}
	.st141{fill:url(#SVGID_38_);}
	.st142{fill:url(#SVGID_39_);}
	.st143{fill:url(#SVGID_40_);}
	.st144{fill:url(#SVGID_41_);}
	.st145{fill:url(#SVGID_42_);}
	.st146{fill:url(#SVGID_43_);}
	.st147{opacity:0.4;fill:#A7D7DB;}
	.st148{opacity:0.3;fill:url(#SVGID_44_);}
	.st149{opacity:0.3;fill:url(#SVGID_45_);}
	.st150{fill:url(#SVGID_46_);}
	.st151{fill:#87C2CC;}
	.st152{opacity:0.3;fill:url(#SVGID_47_);}
	.st153{fill:url(#SVGID_48_);}
	.st154{fill:#FFFDEC;}
	.st155{fill:#F6EDCE;}
	.st156{opacity:0.7;fill:url(#SVGID_49_);}
	.st157{fill:#EDB856;}
	.st158{fill:#AA7636;}
	.st159{fill-rule:evenodd;clip-rule:evenodd;fill:#4E8236;}
	.st160{fill-rule:evenodd;clip-rule:evenodd;fill:#619538;}
	.st161{fill-rule:evenodd;clip-rule:evenodd;fill:#437432;}
	.st162{fill-rule:evenodd;clip-rule:evenodd;fill:#F29A1E;}
	.st163{fill-rule:evenodd;clip-rule:evenodd;fill:#F9B918;}
	.st164{fill-rule:evenodd;clip-rule:evenodd;fill:#EA8821;}
	.st165{fill-rule:evenodd;clip-rule:evenodd;fill:#FFDB36;}
	.st166{fill-rule:evenodd;clip-rule:evenodd;fill:#853319;}
	.st167{fill-rule:evenodd;clip-rule:evenodd;fill:#582814;}
	.st168{fill-rule:evenodd;clip-rule:evenodd;fill:#BC5423;}
	.st169{fill-rule:evenodd;clip-rule:evenodd;fill:#81AF41;}
	.st170{fill-rule:evenodd;clip-rule:evenodd;fill:#BAD27B;}
	.st171{fill-rule:evenodd;clip-rule:evenodd;fill:#C6D98F;}
	.st172{fill-rule:evenodd;clip-rule:evenodd;fill:#DEE8BC;}
	.st173{fill-rule:evenodd;clip-rule:evenodd;fill:#EDF2DC;}
	.st174{fill-rule:evenodd;clip-rule:evenodd;fill:#FCB92C;}
	.st175{fill-rule:evenodd;clip-rule:evenodd;fill:#F2AA28;}
	.st176{fill-rule:evenodd;clip-rule:evenodd;fill:#FDDB45;}
	.st177{fill-rule:evenodd;clip-rule:evenodd;fill:#E09223;}
	.st178{fill:#CEE4EE;}
	.st179{fill:#A8D0A0;}
	.st180{fill:#82B17A;}
	.st181{fill:#EA7D37;}
	.st182{fill:#FCB74B;}
	.st183{fill:#FCA22E;}
	.st184{fill:#D1F0C9;}
	.st185{fill:#95C18C;}
	.st186{fill:#2D4988;}
	.st187{fill:#6B9EEA;}
	.st188{fill:#93BEFC;}
	.st189{fill:#FBEBDB;}
	.st190{fill:#EDCAAC;}
	.st191{fill:#FCB486;}
	.st192{fill:#E76C37;}
	.st193{fill:#243961;}
	.st194{fill:#FCAF7F;}
	.st195{fill:#2C5093;}
	.st196{fill:#203E6E;}
	.st197{fill:#E78D56;}
	.st198{fill:#2D3B63;}
	.st199{fill:#FCB180;}
	.st200{fill:#F6964F;}
	.st201{fill:#EA9764;}
	.st202{fill:#F16C25;}
	.st203{fill:#FC8F4E;}
	.st204{fill:#FDD8A2;}
	.st205{fill:#2E3651;}
	.st206{opacity:0.17;fill-rule:evenodd;clip-rule:evenodd;fill:#2E699B;}
	.st207{fill-rule:evenodd;clip-rule:evenodd;fill:#116294;}
	.st208{fill:#407CAD;}
	.st209{fill-rule:evenodd;clip-rule:evenodd;fill:#F4F4F4;}
	.st210{fill-rule:evenodd;clip-rule:evenodd;fill:#CBCBCB;}
	.st211{fill-rule:evenodd;clip-rule:evenodd;fill:#E35562;}
	.st212{fill-rule:evenodd;clip-rule:evenodd;fill:#F0B0B6;}
	.st213{fill-rule:evenodd;clip-rule:evenodd;fill:#6B8538;}
	.st214{fill-rule:evenodd;clip-rule:evenodd;fill:#A8C572;}
	.st215{fill-rule:evenodd;clip-rule:evenodd;fill:#D6F0A5;}
	.st216{fill-rule:evenodd;clip-rule:evenodd;fill:#FDDFA4;}
	.st217{fill-rule:evenodd;clip-rule:evenodd;fill:#FFF7E8;}
	.st218{fill-rule:evenodd;clip-rule:evenodd;fill:#CC761D;}
	.st219{fill-rule:evenodd;clip-rule:evenodd;fill:#FCAC2A;}
	.st220{fill-rule:evenodd;clip-rule:evenodd;fill:#FAC256;}
	.st221{fill-rule:evenodd;clip-rule:evenodd;fill:#ADD663;}
	.st222{fill-rule:evenodd;clip-rule:evenodd;fill:#D14451;}
	.st223{fill-rule:evenodd;clip-rule:evenodd;fill:#E5E5E5;}
	.st224{fill-rule:evenodd;clip-rule:evenodd;fill:#FFFFFF;}
	.st225{opacity:0.2;fill-rule:evenodd;clip-rule:evenodd;}
	.st226{fill-rule:evenodd;clip-rule:evenodd;fill:#2E699B;}
	.st227{fill:#E8A98B;}
	.st228{fill:#C0D290;}
	.st229{fill:#3EAC8E;}
	.st230{fill:#33997D;}
	.st231{fill:#B4C38A;}
	.st232{fill:#ECE7D0;}
	.st233{fill:#F9C193;}
	.st234{fill:#EEEEEE;}
	.st235{fill:#4CA3CF;}
	.st236{opacity:0.64;}
	.st237{fill:#5CB5DA;}
	.st238{opacity:0.51;}
	.st239{fill:#A2CCDC;}
	.st240{fill:#F5CFB3;}
	.st241{fill:#504D50;}
	.st242{fill:#116694;}
	.st243{fill:#F0F0F0;}
	.st244{fill:#4897C1;}
	.st245{fill:#E1B493;}
	.st246{fill:#FCCB78;}
	.st247{fill:#CC2A4A;}
	.st248{fill:#BA8B80;}
	.st249{fill:#BE705F;}
	.st250{fill:#C3D5A1;}
	.st251{fill:#B7C88F;}
	.st252{fill:#FB9036;}
	.st253{opacity:0.1;}
	.st254{fill:#A86254;}
	.st255{clip-path:url(#SVGID_51_);}
	.st256{fill:#FEDE53;}
	.st257{fill:#A4CD77;}
	.st258{opacity:0.54;fill:#FFF8D9;}
	.st259{fill:#72A436;}
	.st260{fill:#21697E;}
	.st261{opacity:0.46;fill:#FDBD49;}
	.st262{fill:#FDC33D;}
	.st263{fill:#FDAE3A;}
	.st264{fill:#FDDC5E;}
	.st265{fill:#C9E4D7;}
	.st266{fill:none;stroke:#054248;stroke-width:3.7099;stroke-miterlimit:10;}
	.st267{fill:#B0D3C1;}
	.st268{fill:#118275;}
	.st269{fill:#085853;}
	.st270{fill:#BB9795;}
	.st271{fill:#CCCBCA;}
	.st272{fill:#EFEBE4;}
	.st273{fill:#FC6A5E;}
	.st274{fill:#DE4A46;}
	.st275{fill:#CF4345;}
	.st276{fill:#AC7069;}
	.st277{fill:#8D504A;}
	.st278{fill:#654A48;}
	.st279{fill:#583939;}
	.st280{fill:#412929;}
	.st281{fill:#C6DFA9;}
	.st282{fill:#E2EFD3;}
	.st283{fill:#75456A;}
	.st284{fill:#84AE5D;}
	.st285{fill:#FDBD49;}
	.st286{fill:#FBC03C;}
	.st287{fill:#FA9638;}
	.st288{fill:#FBC63C;}
	.st289{fill:#E37A34;}
</style>
<g id="BACKGROUND">
</g>
<g id="OBJECTS">
	<g>
		<g>
			<path class="st79" d="M15.8,41.2c-0.6,6.9,11.9,13,19.8,13.7c7,0.6,13.1-3.1,14.9-8.7c0.2-0.8,0.4-1.5,0.5-2.4
				c0.5-5.5-3.2-10.6-8.8-12.7c-1.3-0.5-2.7-0.8-4.1-1c-0.1,0-0.2,0-0.2,0c-7.6-0.7-20.5,3.9-22,10.4C15.9,40.7,15.8,41,15.8,41.2z"
				/>
			<path class="st80" d="M15.8,41.9c0.2,5.4,7.5,9.6,12.7,11.5c6.1,2.2,12,2.8,17.2-1.1c-6.5,4.1-14.4,2.4-21.2-1.1
				C20.9,49.3,16.2,46.1,15.8,41.9z"/>
			<path class="st81" d="M50.6,46c0,0-5.5,5.7-13.3,5.6c-7.7-0.1-20.3-5.8-21.1-10.9C15.3,35.6,50.4,46.2,50.6,46z"/>
			<path class="st82" d="M15.9,40.4c2.4,4.6,12.9,8.5,19.9,9.1c5.9,0.5,11.8-0.7,14.8-3.5c2-6.1-1.6-12.6-8.3-15.2
				c-1.3-0.5-2.7-0.8-4.1-1c-0.1,0-0.2,0-0.2,0C30.3,29.1,17.4,33.8,15.9,40.4z"/>
			<path class="st83" d="M29.4,37.4c-0.3,3.4,3.5,6.5,8.5,6.9c5,0.4,9.2-2.1,9.5-5.5c0.3-3.4-3.5-6.5-8.5-6.9
				C33.9,31.5,29.7,33.9,29.4,37.4z"/>
			<path class="st84" d="M29.4,37.6c-0.2,2.9,3.2,5.5,7.7,5.8c4.5,0.4,8.3-1.7,8.5-4.6c0.2-2.9-3.2-5.5-7.7-5.8
				C33.4,32.7,29.6,34.7,29.4,37.6z"/>
			<path class="st85" d="M32.7,31.6c0,0-13.9,3.1-14.6,6.5c-0.9,4.3,6.2,9.1,18,9.1c0,0-14.5-4-14.4-8.6
				C21.7,33.7,32.7,31.6,32.7,31.6z"/>
		</g>
		<g>
			<path class="st79" d="M60.5,42.6c0.1,7.2-4.3,13.4-10.4,14.8c-6.5,1.6-13-2.7-15.1-9.8C32,37.5,40,22,47.1,21.1
				C54.8,20,60.4,34.5,60.5,42.6z"/>
			<path class="st82" d="M59.9,41.7c0.1,7-4.1,12.8-9.6,14.2c-6.4,1.6-12.2-3-14.1-9.4c-2.9-9.8,4.7-24.5,11.2-25.5
				C54.7,20,59.8,34.2,59.9,41.7z"/>
			<path class="st86" d="M39.9,33.4c0,0,2.1-8.4,7.4-9.1s12.2,5.1,11.3,18.3c-0.5,7.2-4.7,9.7-4.7,9.7s5.5-17.2-1.9-22.9
				S39.9,33.4,39.9,33.4z"/>
			<circle class="st83" cx="46.2" cy="41" r="7.7"/>
			<circle class="st84" cx="45.7" cy="40.5" r="7.7"/>
		</g>
	</g>
	<g>
		<path class="st178" d="M38.2,76.3C17.1,76.3,0,59.2,0,38.2C0,17.1,17.1,0,38.2,0s38.2,17.1,38.2,38.2
			C76.3,59.2,59.2,76.3,38.2,76.3z M38.2,1C17.7,1,1,17.7,1,38.2s16.7,37.2,37.2,37.2s37.2-16.7,37.2-37.2S58.7,1,38.2,1z"/>
	</g>
</g>
</svg>
