<?xml version="1.0" encoding="utf-8"?>
<!-- Generator: Adobe Illustrator 24.0.2, SVG Export Plug-In . SVG Version: 6.00 Build 0)  -->
<svg version="1.1" xmlns="http://www.w3.org/2000/svg" xmlns:xlink="http://www.w3.org/1999/xlink" x="0px" y="0px"
	 viewBox="0 0 76.3 76.3" style="enable-background:new 0 0 76.3 76.3;" xml:space="preserve">
<style type="text/css">
	.st0{fill:#FFCFCF;}
	.st1{fill:#EAF2F9;}
	.st2{fill:#00711F;}
	.st3{fill:#65881C;}
	.st4{fill:#8BBE42;}
	.st5{fill:#6C9826;}
	.st6{fill:#A4CAB9;}
	.st7{fill:none;stroke:#C6E9D9;stroke-width:2.8652;stroke-linecap:round;stroke-miterlimit:10;}
	.st8{fill:#ACD663;}
	.st9{fill:#578E11;}
	.st10{fill:#6FAA2D;}
	.st11{fill:#FA363B;}
	.st12{fill:#F6EFF0;}
	.st13{fill:#F0D417;}
	.st14{fill:#75A725;}
	.st15{fill:#0F1F2C;}
	.st16{fill:#2A3C4E;}
	.st17{fill:#6D8244;}
	.st18{fill:#435122;}
	.st19{fill:#F7F5DF;}
	.st20{fill:#E0DCBD;}
	.st21{fill:#FFFEF3;}
	.st22{opacity:0.33;}
	.st23{opacity:0.26;}
	.st24{fill:#FF4C41;}
	.st25{opacity:0.22;fill:#FFFFFF;}
	.st26{opacity:0.25;}
	.st27{fill:#F4B245;}
	.st28{fill:#A9D45D;}
	.st29{fill:#00533F;}
	.st30{fill:#C7E2D7;}
	.st31{fill:#FF7F75;}
	.st32{fill:#4B4F43;}
	.st33{opacity:0.41;}
	.st34{fill:#162A47;}
	.st35{opacity:0.22;}
	.st36{fill:#EAF9F1;}
	.st37{opacity:0.5;}
	.st38{fill:#FCA712;}
	.st39{fill:#FABE59;}
	.st40{fill:#F9CB87;}
	.st41{fill:#FFDEB6;}
	.st42{fill:#803FCD;}
	.st43{fill:#5E309F;}
	.st44{fill:#595959;}
	.st45{fill:#FBFBF6;}
	.st46{fill:#3D456A;}
	.st47{fill:#1B203D;}
	.st48{fill:#783730;}
	.st49{fill:#582521;}
	.st50{fill:#FF2929;}
	.st51{fill:#FF144F;}
	.st52{fill:#FF6E51;stroke:#FF6E51;stroke-width:0.2786;stroke-miterlimit:10;}
	.st53{fill:#FCFFDC;}
	.st54{fill:#5D3405;}
	.st55{fill:#F3CC8C;}
	.st56{opacity:0.67;fill:#B78D47;}
	.st57{fill:#131A42;}
	.st58{opacity:0.84;}
	.st59{opacity:0.29;}
	.st60{fill:#535B7B;}
	.st61{fill:#C67DBF;}
	.st62{fill:#F5ACDF;}
	.st63{fill:#EF9900;}
	.st64{fill:#E5E5E5;}
	.st65{fill:#F4F4F4;}
	.st66{fill:#EFEFEF;}
	.st67{fill:#FFFFFF;}
	.st68{fill:#FDC653;}
	.st69{fill:#FDD05C;}
	.st70{fill:#FDDA55;}
	.st71{fill:#FDE356;}
	.st72{fill:#E79563;}
	.st73{opacity:0.14;fill:#976647;}
	.st74{opacity:0.26;fill:#FFEFE8;}
	.st75{fill:#B4501A;}
	.st76{fill:#E57838;}
	.st77{opacity:0.38;fill:#E57838;}
	.st78{opacity:0.26;fill:#E57838;}
	.st79{fill:#D0CEAE;}
	.st80{fill:#95947F;}
	.st81{fill:#BEBCA3;}
	.st82{fill:#FFFDD8;}
	.st83{fill:#FC9D29;}
	.st84{fill:#FDCE31;}
	.st85{fill:#FFFFEE;}
	.st86{opacity:0.72;fill:#FFFFFF;}
	.st87{fill:#DE2A2F;}
	.st88{fill:#E35E47;}
	.st89{fill:#C12427;}
	.st90{fill:#008641;}
	.st91{fill:#007A3B;}
	.st92{fill:#B1B6BA;}
	.st93{fill:#7C868D;}
	.st94{fill:#E6E6E6;}
	.st95{fill:#F7DBDB;}
	.st96{fill:#F0F0D3;}
	.st97{fill:#5A788F;}
	.st98{fill:#ECECEC;}
	.st99{fill:#36393F;}
	.st100{fill:#5F6568;}
	.st101{fill:#0A1114;}
	.st102{fill:#022444;}
	.st103{fill:#5A6975;}
	.st104{fill:url(#SVGID_1_);}
	.st105{fill:url(#SVGID_2_);}
	.st106{fill:url(#SVGID_3_);}
	.st107{fill:url(#SVGID_4_);}
	.st108{fill:url(#SVGID_5_);}
	.st109{fill:url(#SVGID_6_);}
	.st110{fill:url(#SVGID_7_);}
	.st111{fill:url(#SVGID_8_);}
	.st112{fill:url(#SVGID_9_);}
	.st113{fill:url(#SVGID_10_);}
	.st114{fill:url(#SVGID_11_);}
	.st115{fill:url(#SVGID_12_);}
	.st116{fill:url(#SVGID_13_);}
	.st117{fill:url(#SVGID_14_);}
	.st118{fill:url(#SVGID_15_);}
	.st119{fill:url(#SVGID_16_);}
	.st120{fill:url(#SVGID_17_);}
	.st121{fill:url(#SVGID_18_);}
	.st122{fill:url(#SVGID_19_);}
	.st123{fill:url(#SVGID_20_);}
	.st124{fill:url(#SVGID_21_);}
	.st125{fill:url(#SVGID_22_);}
	.st126{fill:url(#SVGID_23_);}
	.st127{fill:url(#SVGID_24_);}
	.st128{fill:url(#SVGID_25_);}
	.st129{fill:url(#SVGID_26_);}
	.st130{fill:url(#SVGID_27_);}
	.st131{fill:url(#SVGID_28_);}
	.st132{fill:url(#SVGID_29_);}
	.st133{fill:url(#SVGID_30_);}
	.st134{fill:url(#SVGID_31_);}
	.st135{fill:url(#SVGID_32_);}
	.st136{fill:url(#SVGID_33_);}
	.st137{fill:url(#SVGID_34_);}
	.st138{fill:url(#SVGID_35_);}
	.st139{fill:url(#SVGID_36_);}
	.st140{fill:url(#SVGID_37_);}
	.st141{fill:url(#SVGID_38_);}
	.st142{fill:url(#SVGID_39_);}
	.st143{fill:url(#SVGID_40_);}
	.st144{fill:url(#SVGID_41_);}
	.st145{fill:url(#SVGID_42_);}
	.st146{fill:url(#SVGID_43_);}
	.st147{opacity:0.4;fill:#A7D7DB;}
	.st148{opacity:0.3;fill:url(#SVGID_44_);}
	.st149{opacity:0.3;fill:url(#SVGID_45_);}
	.st150{fill:url(#SVGID_46_);}
	.st151{fill:#87C2CC;}
	.st152{opacity:0.3;fill:url(#SVGID_47_);}
	.st153{fill:url(#SVGID_48_);}
	.st154{fill:#FFFDEC;}
	.st155{fill:#F6EDCE;}
	.st156{opacity:0.7;fill:url(#SVGID_49_);}
	.st157{fill:#EDB856;}
	.st158{fill:#AA7636;}
	.st159{fill-rule:evenodd;clip-rule:evenodd;fill:#4E8236;}
	.st160{fill-rule:evenodd;clip-rule:evenodd;fill:#619538;}
	.st161{fill-rule:evenodd;clip-rule:evenodd;fill:#437432;}
	.st162{fill-rule:evenodd;clip-rule:evenodd;fill:#F29A1E;}
	.st163{fill-rule:evenodd;clip-rule:evenodd;fill:#F9B918;}
	.st164{fill-rule:evenodd;clip-rule:evenodd;fill:#EA8821;}
	.st165{fill-rule:evenodd;clip-rule:evenodd;fill:#FFDB36;}
	.st166{fill-rule:evenodd;clip-rule:evenodd;fill:#853319;}
	.st167{fill-rule:evenodd;clip-rule:evenodd;fill:#582814;}
	.st168{fill-rule:evenodd;clip-rule:evenodd;fill:#BC5423;}
	.st169{fill-rule:evenodd;clip-rule:evenodd;fill:#81AF41;}
	.st170{fill-rule:evenodd;clip-rule:evenodd;fill:#BAD27B;}
	.st171{fill-rule:evenodd;clip-rule:evenodd;fill:#C6D98F;}
	.st172{fill-rule:evenodd;clip-rule:evenodd;fill:#DEE8BC;}
	.st173{fill-rule:evenodd;clip-rule:evenodd;fill:#EDF2DC;}
	.st174{fill-rule:evenodd;clip-rule:evenodd;fill:#FCB92C;}
	.st175{fill-rule:evenodd;clip-rule:evenodd;fill:#F2AA28;}
	.st176{fill-rule:evenodd;clip-rule:evenodd;fill:#FDDB45;}
	.st177{fill-rule:evenodd;clip-rule:evenodd;fill:#E09223;}
	.st178{fill:#CEE4EE;}
	.st179{fill:#A8D0A0;}
	.st180{fill:#82B17A;}
	.st181{fill:#EA7D37;}
	.st182{fill:#FCB74B;}
	.st183{fill:#FCA22E;}
	.st184{fill:#D1F0C9;}
	.st185{fill:#95C18C;}
	.st186{fill:#2D4988;}
	.st187{fill:#6B9EEA;}
	.st188{fill:#93BEFC;}
	.st189{fill:#FBEBDB;}
	.st190{fill:#EDCAAC;}
	.st191{fill:#FCB486;}
	.st192{fill:#E76C37;}
	.st193{fill:#243961;}
	.st194{fill:#FCAF7F;}
	.st195{fill:#2C5093;}
	.st196{fill:#203E6E;}
	.st197{fill:#E78D56;}
	.st198{fill:#2D3B63;}
	.st199{fill:#FCB180;}
	.st200{fill:#F6964F;}
	.st201{fill:#EA9764;}
	.st202{fill:#F16C25;}
	.st203{fill:#FC8F4E;}
	.st204{fill:#FDD8A2;}
	.st205{fill:#2E3651;}
	.st206{opacity:0.17;fill-rule:evenodd;clip-rule:evenodd;fill:#2E699B;}
	.st207{fill-rule:evenodd;clip-rule:evenodd;fill:#116294;}
	.st208{fill:#407CAD;}
	.st209{fill-rule:evenodd;clip-rule:evenodd;fill:#F4F4F4;}
	.st210{fill-rule:evenodd;clip-rule:evenodd;fill:#CBCBCB;}
	.st211{fill-rule:evenodd;clip-rule:evenodd;fill:#E35562;}
	.st212{fill-rule:evenodd;clip-rule:evenodd;fill:#F0B0B6;}
	.st213{fill-rule:evenodd;clip-rule:evenodd;fill:#6B8538;}
	.st214{fill-rule:evenodd;clip-rule:evenodd;fill:#A8C572;}
	.st215{fill-rule:evenodd;clip-rule:evenodd;fill:#D6F0A5;}
	.st216{fill-rule:evenodd;clip-rule:evenodd;fill:#FDDFA4;}
	.st217{fill-rule:evenodd;clip-rule:evenodd;fill:#FFF7E8;}
	.st218{fill-rule:evenodd;clip-rule:evenodd;fill:#CC761D;}
	.st219{fill-rule:evenodd;clip-rule:evenodd;fill:#FCAC2A;}
	.st220{fill-rule:evenodd;clip-rule:evenodd;fill:#FAC256;}
	.st221{fill-rule:evenodd;clip-rule:evenodd;fill:#ADD663;}
	.st222{fill-rule:evenodd;clip-rule:evenodd;fill:#D14451;}
	.st223{fill-rule:evenodd;clip-rule:evenodd;fill:#E5E5E5;}
	.st224{fill-rule:evenodd;clip-rule:evenodd;fill:#FFFFFF;}
	.st225{opacity:0.2;fill-rule:evenodd;clip-rule:evenodd;}
	.st226{fill-rule:evenodd;clip-rule:evenodd;fill:#2E699B;}
	.st227{fill:#E8A98B;}
	.st228{fill:#C0D290;}
	.st229{fill:#3EAC8E;}
	.st230{fill:#33997D;}
	.st231{fill:#B4C38A;}
	.st232{fill:#ECE7D0;}
	.st233{fill:#F9C193;}
	.st234{fill:#EEEEEE;}
	.st235{fill:#4CA3CF;}
	.st236{opacity:0.64;}
	.st237{fill:#5CB5DA;}
	.st238{opacity:0.51;}
	.st239{fill:#A2CCDC;}
	.st240{fill:#F5CFB3;}
	.st241{fill:#504D50;}
	.st242{fill:#116694;}
	.st243{fill:#F0F0F0;}
	.st244{fill:#4897C1;}
	.st245{fill:#E1B493;}
	.st246{fill:#FCCB78;}
	.st247{fill:#CC2A4A;}
	.st248{fill:#BA8B80;}
	.st249{fill:#BE705F;}
	.st250{fill:#C3D5A1;}
	.st251{fill:#B7C88F;}
	.st252{fill:#FB9036;}
	.st253{opacity:0.1;}
	.st254{fill:#A86254;}
	.st255{clip-path:url(#SVGID_51_);}
	.st256{fill:#FEDE53;}
	.st257{fill:#A4CD77;}
	.st258{opacity:0.54;fill:#FFF8D9;}
	.st259{fill:#72A436;}
	.st260{fill:#21697E;}
	.st261{opacity:0.46;fill:#FDBD49;}
	.st262{fill:#FDC33D;}
	.st263{fill:#FDAE3A;}
	.st264{fill:#FDDC5E;}
	.st265{fill:#C9E4D7;}
	.st266{fill:none;stroke:#054248;stroke-width:3.7099;stroke-miterlimit:10;}
	.st267{fill:#B0D3C1;}
	.st268{fill:#118275;}
	.st269{fill:#085853;}
	.st270{fill:#BB9795;}
	.st271{fill:#CCCBCA;}
	.st272{fill:#EFEBE4;}
	.st273{fill:#FC6A5E;}
	.st274{fill:#DE4A46;}
	.st275{fill:#CF4345;}
	.st276{fill:#AC7069;}
	.st277{fill:#8D504A;}
	.st278{fill:#654A48;}
	.st279{fill:#583939;}
	.st280{fill:#412929;}
	.st281{fill:#C6DFA9;}
	.st282{fill:#E2EFD3;}
	.st283{fill:#75456A;}
	.st284{fill:#84AE5D;}
	.st285{fill:#FDBD49;}
	.st286{fill:#FBC03C;}
	.st287{fill:#FA9638;}
	.st288{fill:#FBC63C;}
	.st289{fill:#E37A34;}
</style>
<g id="BACKGROUND">
</g>
<g id="OBJECTS">
	<g>
		<path class="st174" d="M41,23.2c0.2,2.2-3.3,2.9-3.6,0.5c-0.2-1.3,0.2-2.4,1-3.4C38.9,21.5,40.9,21.5,41,23.2"/>
		<path class="st175" d="M40.4,24.7c-1,0.8-2.7,0.6-3-1.1c-0.2-1.3,0.2-2.4,1-3.4C37.5,22.2,38.2,24.5,40.4,24.7"/>
		<path class="st176" d="M40.7,22.4c0.3,0.4,0.4,0.9,0.2,1.2c-0.2,0.2-0.6,0.1-0.9-0.3c-0.3-0.4-0.4-0.9-0.2-1.2
			C39.9,21.8,40.3,22,40.7,22.4"/>
		<path class="st174" d="M41.9,22.1c-0.3,0-0.6,0.2-0.8,0.3c0.1,0.2,0.2,0.4,0.2,0.7c0.1,0.7-0.2,1.3-0.7,1.7c0,0,0,0-0.1,0
			c0.3,0.5,0.9,0.9,1.7,0.8c1.3-0.1,2.3-0.8,3.1-1.8C44,23.8,43.6,21.9,41.9,22.1"/>
		<path class="st175" d="M40.6,24.9c0.3,0.5,0.9,0.9,1.7,0.8c1.3-0.1,2.3-0.8,3.1-1.8c-1.4,1-3.2,1.2-4.3,0.1
			C41,24.4,40.9,24.6,40.6,24.9C40.6,24.8,40.6,24.9,40.6,24.9"/>
		<path class="st176" d="M42.8,22.3c-0.5-0.2-1-0.2-1.2,0.1c-0.2,0.2,0,0.6,0.5,0.8c0.5,0.2,1,0.2,1.2-0.1
			C43.4,22.9,43.2,22.5,42.8,22.3"/>
		<path class="st174" d="M39.8,26.2c0.1,2.2-3.4,2.7-3.6,0.2c-0.1-1.3,0.4-2.4,1.2-3.3C37.8,24.4,39.8,24.5,39.8,26.2"/>
		<path class="st175" d="M39.1,27.7c-1,0.7-2.7,0.4-2.9-1.3c-0.1-1.3,0.4-2.4,1.2-3.3C36.4,25,36.9,27.4,39.1,27.7"/>
		<path class="st176" d="M39.5,25.4c0.3,0.4,0.3,0.9,0.1,1.2c-0.2,0.2-0.6,0.1-0.9-0.3c-0.3-0.4-0.3-0.9-0.1-1.2
			C38.8,24.8,39.2,24.9,39.5,25.4"/>
		<path class="st174" d="M40.7,25.2c-0.3,0-0.6,0.1-0.8,0.3c0.1,0.2,0.2,0.4,0.2,0.7c0,0.7-0.2,1.2-0.8,1.6c0,0,0,0-0.1,0
			c0.3,0.6,0.8,1,1.6,0.9c1.3,0,2.3-0.6,3.2-1.5C42.7,27,42.4,25,40.7,25.2"/>
		<path class="st175" d="M39.3,27.8c0.3,0.6,0.8,1,1.6,0.9c1.3,0,2.3-0.6,3.2-1.5c-1.4,0.9-3.3,1-4.2-0.1
			C39.7,27.4,39.5,27.6,39.3,27.8C39.3,27.8,39.3,27.8,39.3,27.8"/>
		<path class="st176" d="M41.6,25.4c-0.4-0.2-1-0.2-1.2,0c-0.2,0.2,0,0.6,0.4,0.8c0.4,0.2,1,0.2,1.2,0C42.2,26,42,25.6,41.6,25.4"/>
		<path class="st174" d="M38.2,29c0,2.2-3.6,2.4-3.6,0c0-1.3,0.5-2.3,1.4-3.3C36.3,27.1,38.2,27.4,38.2,29"/>
		<path class="st175" d="M37.4,30.5c-1.1,0.6-2.7,0.2-2.8-1.4c0-1.3,0.5-2.3,1.4-3.3C34.9,27.6,35.3,30,37.4,30.5"/>
		<path class="st176" d="M37.9,28.2c0.2,0.4,0.3,1,0.1,1.2c-0.2,0.2-0.6,0-0.8-0.4c-0.2-0.4-0.3-1-0.1-1.2
			C37.3,27.6,37.7,27.7,37.9,28.2"/>
		<path class="st174" d="M39.2,28c-0.3,0-0.6,0.1-0.9,0.2c0.1,0.2,0.1,0.5,0.1,0.7c0,0.7-0.3,1.2-0.8,1.6c0,0,0,0-0.1,0
			c0.2,0.6,0.7,1,1.6,1c1.3,0,2.4-0.5,3.3-1.3C41,30,40.8,28,39.2,28"/>
		<path class="st175" d="M37.5,30.6c0.2,0.6,0.7,1,1.6,1c1.3,0,2.4-0.5,3.3-1.3c-1.5,0.8-3.3,0.7-4.2-0.4
			C38,30.2,37.8,30.4,37.5,30.6C37.6,30.6,37.6,30.6,37.5,30.6"/>
		<path class="st176" d="M40,28.3c-0.4-0.3-1-0.3-1.2-0.1c-0.2,0.2,0,0.6,0.4,0.8c0.4,0.3,1,0.3,1.2,0.1C40.6,29,40.4,28.6,40,28.3"
			/>
		<path class="st174" d="M36.3,31.6c-0.2,2.2-3.7,2.2-3.6-0.2c0.1-1.3,0.6-2.3,1.6-3.2C34.5,29.6,36.4,30,36.3,31.6"/>
		<path class="st175" d="M35.3,33c-1.1,0.6-2.7,0.1-2.7-1.6c0.1-1.3,0.6-2.3,1.6-3.2C33.1,30,33.3,32.4,35.3,33"/>
		<path class="st176" d="M36,30.8c0.2,0.4,0.2,1,0,1.2c-0.2,0.2-0.6,0-0.8-0.4c-0.2-0.4-0.2-1,0-1.2C35.4,30.1,35.8,30.3,36,30.8"/>
		<path class="st174" d="M37.3,30.7c-0.3,0-0.6,0-0.9,0.2c0.1,0.2,0.1,0.5,0.1,0.7c-0.1,0.6-0.4,1.2-0.9,1.5c0,0,0,0-0.1,0
			c0.2,0.6,0.7,1,1.5,1.1c1.3,0.1,2.4-0.3,3.3-1.1C39,32.8,38.9,30.8,37.3,30.7"/>
		<path class="st175" d="M35.5,33.2c0.2,0.6,0.7,1,1.5,1.1c1.3,0.1,2.4-0.3,3.3-1.1c-1.5,0.7-3.3,0.5-4.2-0.6
			C36,32.8,35.8,33,35.5,33.2C35.5,33.2,35.5,33.2,35.5,33.2"/>
		<path class="st176" d="M38.1,31.1c-0.4-0.3-0.9-0.3-1.2-0.1c-0.2,0.2-0.1,0.6,0.3,0.9c0.4,0.3,0.9,0.3,1.2,0.1
			C38.6,31.7,38.5,31.4,38.1,31.1"/>
		<path class="st174" d="M34.1,34.1c-0.3,2.2-3.8,2-3.6-0.4c0.1-1.3,0.8-2.3,1.8-3.1C32.4,32,34.3,32.4,34.1,34.1"/>
		<path class="st175" d="M33.1,35.4c-1.1,0.5-2.7-0.1-2.6-1.8c0.1-1.3,0.8-2.3,1.8-3.1C31,32.3,31.1,34.7,33.1,35.4"/>
		<path class="st176" d="M33.9,33.2c0.2,0.5,0.2,1-0.1,1.2c-0.2,0.2-0.6,0-0.8-0.5c-0.2-0.5-0.2-1,0.1-1.2
			C33.4,32.5,33.7,32.8,33.9,33.2"/>
		<path class="st174" d="M35.2,33.2c-0.3,0-0.6,0-0.9,0.1c0.1,0.2,0.1,0.5,0,0.7c-0.1,0.6-0.5,1.2-1,1.5c0,0,0,0-0.1,0
			c0.1,0.6,0.6,1.1,1.4,1.2c1.3,0.2,2.4-0.2,3.4-0.9C36.8,35.4,36.8,33.4,35.2,33.2"/>
		<path class="st175" d="M33.2,35.6c0.1,0.6,0.6,1.1,1.4,1.2c1.3,0.2,2.4-0.2,3.4-0.9c-1.6,0.6-3.4,0.3-4.1-0.9
			C33.8,35.2,33.6,35.4,33.2,35.6C33.3,35.6,33.3,35.6,33.2,35.6"/>
		<path class="st176" d="M35.9,33.6c-0.4-0.3-0.9-0.4-1.2-0.2c-0.2,0.2-0.1,0.6,0.3,0.9c0.4,0.3,0.9,0.4,1.2,0.2
			C36.5,34.3,36.3,33.9,35.9,33.6"/>
		<path class="st174" d="M31.8,36.4c-0.4,2.1-4,1.8-3.6-0.6c0.2-1.3,0.9-2.2,2-3C30.2,34.2,32.1,34.7,31.8,36.4"/>
		<path class="st175" d="M30.6,37.6c-1.2,0.4-2.7-0.3-2.5-1.9c0.2-1.3,0.9-2.2,2-3C28.7,34.4,28.7,36.8,30.6,37.6"/>
		<path class="st176" d="M31.6,35.5c0.2,0.5,0.1,1-0.2,1.2c-0.3,0.2-0.6-0.1-0.8-0.5c-0.2-0.5-0.1-1,0.2-1.2
			C31.1,34.8,31.5,35,31.6,35.5"/>
		<path class="st174" d="M32.9,35.6c-0.3-0.1-0.6,0-0.9,0.1c0,0.2,0,0.5,0,0.7c-0.1,0.6-0.5,1.1-1.1,1.4c0,0,0,0-0.1,0
			c0.1,0.6,0.5,1.1,1.4,1.3c1.2,0.3,2.4,0,3.5-0.7C34.3,37.9,34.5,35.9,32.9,35.6"/>
		<path class="st175" d="M30.8,37.8c0.1,0.6,0.5,1.1,1.4,1.3c1.2,0.3,2.4,0,3.5-0.7c-1.6,0.6-3.4,0.1-4.1-1.1
			C31.4,37.5,31.1,37.7,30.8,37.8C30.8,37.8,30.8,37.8,30.8,37.8"/>
		<path class="st176" d="M33.6,36c-0.4-0.3-0.9-0.5-1.1-0.3c-0.3,0.2-0.2,0.6,0.2,0.9c0.4,0.3,0.9,0.5,1.1,0.3
			C34.1,36.8,34,36.4,33.6,36"/>
		<path class="st174" d="M29.3,38.5c-0.6,2.1-4.1,1.5-3.6-0.9c0.3-1.3,1.1-2.2,2.2-2.9C27.9,36.2,29.8,36.9,29.3,38.5"/>
		<path class="st175" d="M28.1,39.8c-1.2,0.4-2.7-0.4-2.4-2.1c0.3-1.3,1.1-2.2,2.2-2.9C26.4,36.4,26.2,38.8,28.1,39.8"/>
		<path class="st176" d="M29.2,37.7c0.1,0.5,0,1-0.2,1.2c-0.3,0.2-0.6-0.1-0.7-0.6c-0.1-0.5,0-1,0.2-1.2
			C28.8,36.9,29.1,37.2,29.2,37.7"/>
		<path class="st174" d="M30.5,37.8c-0.3-0.1-0.6-0.1-0.9,0c0,0.2,0,0.5-0.1,0.7c-0.2,0.6-0.6,1.1-1.2,1.4c0,0,0,0-0.1,0
			c0.1,0.6,0.5,1.2,1.3,1.4c1.2,0.4,2.4,0.1,3.5-0.5C31.8,40.2,32.1,38.2,30.5,37.8"/>
		<path class="st175" d="M28.3,40c0.1,0.6,0.5,1.2,1.3,1.4c1.2,0.4,2.4,0.1,3.5-0.5c-1.7,0.5-3.4-0.1-4-1.4
			C28.9,39.7,28.6,39.8,28.3,40C28.3,40,28.3,40,28.3,40"/>
		<path class="st176" d="M31.2,38.3c-0.4-0.4-0.9-0.5-1.1-0.4c-0.3,0.2-0.2,0.6,0.2,0.9c0.4,0.4,0.9,0.5,1.1,0.4
			C31.7,39.1,31.6,38.7,31.2,38.3"/>
		<path class="st174" d="M41.2,22.1c0,0.1-0.2,0.2-0.3,0.1c-0.1,0-0.2-0.2-0.1-0.3c0.4-1.3,0.8-2.7,1-4c0.3-1.3,0.5-2.7,0.6-4
			c0-0.1,0.1-0.2,0.2-0.2c0.1,0,0.2,0.1,0.2,0.2c-0.1,1.4-0.3,2.7-0.6,4.1C42,19.4,41.6,20.8,41.2,22.1 M42.9,21.6
			c0.4-1.2,0.7-2.4,0.9-3.6c0.3-1.2,0.5-2.4,0.6-3.6c0-0.1-0.1-0.2-0.2-0.2c-0.1,0-0.2,0.1-0.2,0.2c-0.1,1.2-0.3,2.4-0.6,3.6
			c-0.3,1.2-0.6,2.4-0.9,3.6c0,0.1,0,0.2,0.1,0.3C42.7,21.8,42.8,21.7,42.9,21.6 M44.1,22.5c0,0.1-0.2,0.2-0.3,0.1
			c-0.1,0-0.2-0.2-0.1-0.3c0.3-1.1,0.6-2.2,0.9-3.2c0.2-1.1,0.4-2.2,0.6-3.2c0-0.1,0.1-0.2,0.2-0.2c0.1,0,0.2,0.1,0.2,0.2
			c-0.1,1.1-0.3,2.2-0.6,3.3C44.7,20.3,44.4,21.4,44.1,22.5 M45.2,23.4c0.3-1,0.6-2,0.8-3c0.2-1,0.4-2,0.6-3.1
			c0-0.1-0.1-0.2-0.2-0.2c-0.1,0-0.2,0.1-0.2,0.2c-0.1,1-0.3,2-0.6,3c-0.2,1-0.5,2-0.8,3c0,0.1,0,0.2,0.1,0.3
			C45.1,23.6,45.2,23.5,45.2,23.4 M40.1,21.2c0.3-1.1,0.6-2.2,0.9-3.3c0.2-1.1,0.4-2.2,0.6-3.3c0-0.1-0.1-0.2-0.2-0.2
			c-0.1,0-0.2,0.1-0.2,0.2c-0.1,1.1-0.3,2.2-0.6,3.3c-0.2,1.1-0.5,2.2-0.9,3.2c0,0.1,0,0.2,0.1,0.3C40,21.3,40.1,21.3,40.1,21.2
			 M39,20.1c0,0.1-0.2,0.2-0.3,0.1c-0.1,0-0.2-0.2-0.1-0.3c0.2-0.8,0.5-1.6,0.6-2.3c0.2-0.8,0.4-1.6,0.5-2.4c0-0.1,0.1-0.2,0.2-0.2
			c0.1,0,0.2,0.1,0.2,0.2c-0.1,0.8-0.3,1.6-0.5,2.4C39.5,18.5,39.2,19.3,39,20.1"/>
		<path class="st176" d="M41.1,22c0.4-1.3,0.8-2.7,1-4c0.3-1.3,0.5-2.7,0.6-4.1c0,0,0-0.1-0.1-0.1c0,0-0.1,0-0.1,0.1
			c-0.1,1.4-0.3,2.7-0.6,4c-0.3,1.4-0.6,2.7-1,4c0,0,0,0.1,0.1,0.1C41,22.1,41.1,22.1,41.1,22 M42.7,21.5c0,0-0.1,0.1-0.1,0.1
			c0,0-0.1-0.1-0.1-0.1c0.4-1.2,0.7-2.4,0.9-3.6c0.3-1.2,0.5-2.4,0.6-3.6c0,0,0.1-0.1,0.1-0.1c0,0,0.1,0.1,0.1,0.1
			c-0.1,1.2-0.3,2.4-0.6,3.6C43.4,19.2,43.1,20.3,42.7,21.5 M43.9,22.4c0.3-1.1,0.6-2.2,0.9-3.3c0.2-1.1,0.4-2.2,0.6-3.3
			c0,0,0-0.1-0.1-0.1c0,0-0.1,0-0.1,0.1c-0.1,1.1-0.3,2.2-0.6,3.3c-0.2,1.1-0.5,2.2-0.9,3.2c0,0,0,0.1,0.1,0.1
			C43.9,22.5,43.9,22.4,43.9,22.4 M45.1,23.3c0,0-0.1,0.1-0.1,0.1c0,0-0.1-0.1-0.1-0.1c0.3-1,0.6-2,0.8-3c0.2-1,0.4-2,0.6-3
			c0,0,0.1-0.1,0.1-0.1c0,0,0.1,0.1,0.1,0.1c-0.1,1-0.3,2-0.6,3C45.7,21.3,45.4,22.3,45.1,23.3 M40,21.1c0,0-0.1,0.1-0.1,0.1
			c0,0-0.1-0.1-0.1-0.1c0.3-1.1,0.6-2.2,0.9-3.3c0.2-1.1,0.4-2.2,0.6-3.3c0,0,0.1-0.1,0.1-0.1c0,0,0.1,0.1,0.1,0.1
			c-0.1,1.1-0.3,2.2-0.6,3.3C40.6,18.9,40.3,20,40,21.1 M38.9,20c0.2-0.8,0.5-1.6,0.7-2.4c0.2-0.8,0.4-1.6,0.5-2.4
			c0,0,0-0.1-0.1-0.1c0,0-0.1,0-0.1,0.1c-0.1,0.8-0.3,1.6-0.5,2.4c-0.2,0.8-0.4,1.6-0.6,2.4c0,0,0,0.1,0.1,0.1
			C38.8,20.1,38.8,20,38.9,20"/>
		<path class="st177" d="M27.4,40.1c0.2-0.2,0.5-0.1,0.6,0.1c0.2,0.2,0.1,0.5-0.1,0.6c-2.4,2-5,3.7-7.7,5c-2.7,1.4-5.5,2.4-8.5,3.2
			c-0.2,0.1-0.5-0.1-0.5-0.3c-0.1-0.2,0.1-0.5,0.3-0.5c2.9-0.8,5.7-1.8,8.3-3.1C22.5,43.7,25.1,42,27.4,40.1"/>
		<path class="st174" d="M27.6,40.2c-2.4,1.9-4.9,3.6-7.6,4.9c-2.7,1.3-5.5,2.4-8.4,3.1c-0.1,0-0.1,0.1-0.1,0.2
			c0,0.1,0.1,0.1,0.2,0.1c2.9-0.8,5.7-1.8,8.4-3.2c2.7-1.4,5.3-3,7.7-5c0.1,0,0.1-0.1,0-0.2C27.7,40.1,27.6,40.1,27.6,40.2"/>
		<path class="st174" d="M54.4,33c-0.6,2.1-4.1,1.4-3.5-1c0.3-1.3,1.1-2.2,2.2-2.8C53,30.7,54.9,31.4,54.4,33"/>
		<path class="st175" d="M53.2,34.2c-1.2,0.3-2.7-0.5-2.3-2.2c0.3-1.3,1.1-2.2,2.2-2.8C51.6,30.8,51.3,33.2,53.2,34.2"/>
		<path class="st176" d="M54.4,32.1c0.1,0.5,0,1-0.3,1.2c-0.3,0.2-0.6-0.1-0.7-0.6c-0.1-0.5,0-1,0.3-1.2
			C53.9,31.4,54.2,31.6,54.4,32.1"/>
		<path class="st174" d="M55.6,32.3c-0.3-0.1-0.6-0.1-0.9,0c0,0.2,0,0.5-0.1,0.7c-0.2,0.6-0.6,1.1-1.3,1.3c0,0,0,0-0.1,0
			c0.1,0.6,0.4,1.2,1.3,1.4c1.2,0.4,2.4,0.2,3.6-0.4C56.9,34.7,57.2,32.8,55.6,32.3"/>
		<path class="st175" d="M53.3,34.4c0.1,0.6,0.4,1.2,1.3,1.4c1.2,0.4,2.4,0.2,3.6-0.4c-1.7,0.4-3.4-0.2-4-1.5
			C53.9,34.1,53.7,34.3,53.3,34.4C53.4,34.4,53.3,34.4,53.3,34.4"/>
		<path class="st176" d="M56.3,32.9c-0.4-0.4-0.9-0.5-1.1-0.4c-0.3,0.2-0.2,0.6,0.1,0.9c0.4,0.4,0.9,0.5,1.1,0.4
			C56.8,33.6,56.7,33.2,56.3,32.9"/>
		<path class="st174" d="M52.1,35.3c-0.8,2.1-4.2,1.2-3.4-1.2c0.4-1.2,1.2-2.1,2.4-2.6C50.9,32.9,52.7,33.8,52.1,35.3"/>
		<path class="st175" d="M50.9,36.4c-1.2,0.2-2.7-0.7-2.2-2.3c0.4-1.2,1.2-2.1,2.4-2.6C49.4,32.9,49,35.3,50.9,36.4"/>
		<path class="st176" d="M52.1,34.4c0.1,0.5-0.1,1-0.3,1.1c-0.3,0.1-0.6-0.2-0.7-0.6c-0.1-0.5,0.1-1,0.3-1.1
			C51.7,33.7,52,34,52.1,34.4"/>
		<path class="st174" d="M53.4,34.7c-0.3-0.1-0.6-0.1-0.9-0.1c0,0.2,0,0.5-0.1,0.7c-0.2,0.6-0.7,1.1-1.3,1.2c0,0,0,0-0.1,0
			c0,0.6,0.4,1.2,1.2,1.5c1.2,0.5,2.4,0.3,3.5-0.2C54.5,37.2,54.9,35.3,53.4,34.7"/>
		<path class="st175" d="M51,36.7c0,0.6,0.4,1.2,1.2,1.5c1.2,0.5,2.4,0.3,3.5-0.2c-1.7,0.3-3.4-0.4-3.9-1.7
			C51.6,36.4,51.3,36.6,51,36.7C51,36.6,51,36.6,51,36.7"/>
		<path class="st176" d="M54,35.3c-0.3-0.4-0.8-0.6-1.1-0.4c-0.3,0.1-0.2,0.6,0.1,0.9c0.3,0.4,0.8,0.6,1.1,0.4
			C54.4,36.1,54.4,35.7,54,35.3"/>
		<path class="st174" d="M49.6,37.3c-0.9,2-4.2,0.9-3.3-1.4c0.5-1.2,1.4-2,2.5-2.5C48.5,34.9,50.2,35.8,49.6,37.3"/>
		<path class="st175" d="M48.2,38.3c-1.2,0.2-2.6-0.8-2-2.4c0.5-1.2,1.4-2,2.5-2.5C47,34.8,46.5,37.1,48.2,38.3"/>
		<path class="st176" d="M49.6,36.4c0.1,0.5-0.1,1-0.4,1.1c-0.3,0.1-0.6-0.2-0.6-0.7c-0.1-0.5,0.1-1,0.4-1.1
			C49.3,35.6,49.5,36,49.6,36.4"/>
		<path class="st174" d="M50.8,36.8c-0.3-0.1-0.6-0.2-0.9-0.1c0,0.2-0.1,0.5-0.2,0.7c-0.3,0.6-0.7,1-1.4,1.1c0,0,0,0-0.1,0
			c0,0.6,0.3,1.2,1.1,1.6c1.2,0.5,2.4,0.5,3.5,0C51.8,39.3,52.3,37.4,50.8,36.8"/>
		<path class="st175" d="M48.3,38.6c0,0.6,0.3,1.2,1.1,1.6c1.2,0.5,2.4,0.5,3.5,0c-1.7,0.2-3.3-0.6-3.7-1.9
			C49,38.4,48.7,38.5,48.3,38.6C48.4,38.6,48.4,38.6,48.3,38.6"/>
		<path class="st176" d="M51.5,37.4c-0.3-0.4-0.8-0.6-1.1-0.5c-0.3,0.1-0.3,0.5,0,0.9c0.3,0.4,0.8,0.6,1.1,0.5
			C51.8,38.2,51.8,37.8,51.5,37.4"/>
		<path class="st174" d="M46.8,39c-1,1.9-4.3,0.6-3.2-1.6c0.5-1.2,1.5-1.9,2.7-2.3C45.9,36.5,47.5,37.5,46.8,39"/>
		<path class="st175" d="M45.4,39.9c-1.2,0.1-2.5-1-1.9-2.5c0.5-1.2,1.5-1.9,2.7-2.3C44.4,36.3,43.7,38.6,45.4,39.9"/>
		<path class="st176" d="M46.9,38.1c0,0.5-0.2,1-0.5,1.1c-0.3,0.1-0.6-0.2-0.6-0.7c0-0.5,0.2-1,0.5-1.1
			C46.6,37.3,46.8,37.6,46.9,38.1"/>
		<path class="st174" d="M48.1,38.6c-0.3-0.1-0.6-0.2-0.9-0.2c0,0.2-0.1,0.5-0.2,0.7c-0.3,0.6-0.8,1-1.5,1.1c0,0,0,0-0.1,0
			c-0.1,0.6,0.2,1.2,1,1.6c1.1,0.6,2.3,0.6,3.5,0.2C48.9,41.1,49.5,39.3,48.1,38.6"/>
		<path class="st175" d="M45.5,40.2c-0.1,0.6,0.2,1.2,1,1.6c1.1,0.6,2.3,0.6,3.5,0.2c-1.7,0.1-3.3-0.8-3.6-2.2
			C46.1,40,45.8,40.1,45.5,40.2C45.5,40.2,45.5,40.2,45.5,40.2"/>
		<path class="st176" d="M48.7,39.2c-0.3-0.4-0.7-0.7-1-0.6c-0.3,0.1-0.3,0.5,0,0.9c0.3,0.4,0.7,0.7,1,0.6
			C48.9,40,48.9,39.6,48.7,39.2"/>
		<path class="st174" d="M43.8,40.4c-1.1,1.9-4.3,0.4-3.2-1.8c0.6-1.1,1.6-1.8,2.8-2.2C43.1,37.9,44.7,39,43.8,40.4"/>
		<path class="st175" d="M42.4,41.3c-1.2,0-2.5-1.1-1.7-2.6c0.6-1.1,1.6-1.8,2.8-2.2C41.6,37.6,40.8,39.9,42.4,41.3"/>
		<path class="st176" d="M44,39.6c0,0.5-0.2,1-0.5,1c-0.3,0.1-0.5-0.3-0.5-0.8c0-0.5,0.2-1,0.5-1C43.7,38.7,44,39.1,44,39.6"/>
		<path class="st174" d="M45.1,40.1c-0.3-0.2-0.6-0.2-0.9-0.2c0,0.2-0.1,0.5-0.3,0.7c-0.3,0.6-0.9,0.9-1.5,1c0,0,0,0-0.1,0
			c-0.1,0.6,0.1,1.2,0.9,1.7c1.1,0.7,2.3,0.7,3.5,0.4C45.8,42.7,46.6,40.9,45.1,40.1"/>
		<path class="st175" d="M42.5,41.5c-0.1,0.6,0.1,1.2,0.9,1.7c1.1,0.7,2.3,0.7,3.5,0.4c-1.7,0-3.2-1-3.5-2.4
			C43.1,41.4,42.8,41.5,42.5,41.5C42.5,41.5,42.5,41.5,42.5,41.5"/>
		<path class="st176" d="M45.7,40.8c-0.2-0.4-0.7-0.7-1-0.6c-0.3,0.1-0.3,0.5-0.1,0.9c0.2,0.4,0.7,0.7,1,0.6
			C45.9,41.6,46,41.2,45.7,40.8"/>
		<path class="st174" d="M40.8,41.7c-1.2,1.8-4.3,0.1-3.1-2c0.7-1.1,1.7-1.7,2.9-2C40.2,39,41.7,40.3,40.8,41.7"/>
		<path class="st175" d="M39.3,42.4c-1.2-0.1-2.4-1.3-1.5-2.7c0.7-1.1,1.7-1.7,2.9-2C38.8,38.7,37.8,40.9,39.3,42.4"/>
		<path class="st176" d="M41,40.8c0,0.5-0.3,1-0.6,1c-0.3,0.1-0.5-0.3-0.5-0.8c0-0.5,0.3-1,0.6-1C40.8,40,41,40.3,41,40.8"/>
		<path class="st174" d="M42.1,41.4c-0.3-0.2-0.6-0.3-0.8-0.3c0,0.2-0.1,0.5-0.3,0.7c-0.4,0.5-0.9,0.9-1.6,0.9c0,0,0,0-0.1,0
			c-0.1,0.6,0.1,1.2,0.8,1.7c1,0.7,2.2,0.9,3.5,0.7C42.6,44.1,43.5,42.3,42.1,41.4"/>
		<path class="st175" d="M39.3,42.7c-0.1,0.6,0.1,1.2,0.8,1.7c1,0.7,2.2,0.9,3.5,0.7c-1.7-0.1-3.2-1.2-3.3-2.6
			C40,42.6,39.7,42.7,39.3,42.7C39.4,42.7,39.4,42.7,39.3,42.7"/>
		<path class="st176" d="M42.7,42.1c-0.2-0.4-0.6-0.8-1-0.7c-0.3,0.1-0.4,0.5-0.1,0.9c0.2,0.4,0.6,0.8,1,0.7
			C42.8,43,42.9,42.5,42.7,42.1"/>
		<path class="st174" d="M37.7,42.8c-1.3,1.8-4.4-0.1-3-2.2c0.7-1.1,1.8-1.6,3.1-1.8C37.3,40.1,38.7,41.4,37.7,42.8"/>
		<path class="st175" d="M36.1,43.4c-1.2-0.1-2.4-1.5-1.4-2.8c0.7-1.1,1.8-1.6,3.1-1.8C35.8,39.6,34.7,41.8,36.1,43.4"/>
		<path class="st176" d="M38,41.9c-0.1,0.5-0.4,0.9-0.7,1c-0.3,0-0.5-0.3-0.5-0.8c0.1-0.5,0.4-0.9,0.7-1C37.8,41,38,41.4,38,41.9"/>
		<path class="st174" d="M39.1,42.6c-0.3-0.2-0.6-0.3-0.8-0.3c-0.1,0.2-0.2,0.4-0.3,0.7c-0.4,0.5-1,0.8-1.6,0.8c0,0,0,0-0.1,0
			c-0.2,0.6,0,1.3,0.7,1.8c1,0.8,2.2,1,3.5,0.9C39.4,45.3,40.4,43.5,39.1,42.6"/>
		<path class="st175" d="M36.2,43.7c-0.2,0.6,0,1.3,0.7,1.8c1,0.8,2.2,1,3.5,0.9c-1.7-0.2-3.1-1.4-3.2-2.8
			C36.9,43.6,36.6,43.7,36.2,43.7C36.2,43.7,36.2,43.7,36.2,43.7"/>
		<path class="st176" d="M39.6,43.3c-0.2-0.5-0.6-0.8-0.9-0.8c-0.3,0-0.4,0.5-0.2,0.9c0.2,0.5,0.6,0.8,0.9,0.8
			C39.7,44.2,39.8,43.8,39.6,43.3"/>
		<path class="st174" d="M55,32.1c-0.1,0.1-0.2,0.1-0.3,0c-0.1-0.1-0.1-0.2,0-0.3c0.9-1.1,1.7-2.2,2.5-3.3c0.8-1.1,1.5-2.3,2.1-3.5
			c0.1-0.1,0.2-0.1,0.3-0.1c0.1,0.1,0.1,0.2,0.1,0.3c-0.6,1.2-1.3,2.4-2.1,3.5C56.7,29.9,55.9,31,55,32.1 M56.7,32.3
			c0.8-1,1.5-1.9,2.2-3c0.7-1,1.3-2,1.9-3.1c0.1-0.1,0-0.2-0.1-0.3c-0.1-0.1-0.2,0-0.3,0.1c-0.6,1.1-1.2,2.1-1.9,3.1
			c-0.7,1-1.4,2-2.2,2.9c-0.1,0.1-0.1,0.2,0,0.3C56.5,32.4,56.6,32.3,56.7,32.3 M57.5,33.5c0.7-0.9,1.4-1.8,2-2.7
			c0.6-0.9,1.2-1.9,1.8-2.8c0.1-0.1,0-0.2-0.1-0.3c-0.1-0.1-0.2,0-0.3,0.1c-0.5,0.9-1.1,1.9-1.8,2.8c-0.6,0.9-1.3,1.8-2,2.7
			c-0.1,0.1-0.1,0.2,0,0.3C57.3,33.6,57.4,33.6,57.5,33.5 M58.2,34.9c0.7-0.8,1.3-1.6,1.9-2.5c0.6-0.8,1.2-1.7,1.7-2.6
			c0.1-0.1,0-0.2-0.1-0.3c-0.1-0.1-0.2,0-0.3,0.1c-0.5,0.9-1.1,1.7-1.7,2.6c-0.6,0.8-1.2,1.7-1.9,2.5c-0.1,0.1-0.1,0.2,0,0.3
			C58,35,58.1,34.9,58.2,34.9 M54.3,30.8c0.7-0.9,1.4-1.8,2-2.7c0.6-0.9,1.2-1.9,1.8-2.8c0.1-0.1,0-0.2-0.1-0.3
			c-0.1-0.1-0.2,0-0.3,0.1C57.3,26,56.7,27,56,27.9c-0.6,0.9-1.3,1.8-2,2.7c-0.1,0.1-0.1,0.2,0,0.3C54.1,30.9,54.3,30.9,54.3,30.8
			 M53.7,29.4c0.5-0.6,1-1.3,1.5-1.9c0.5-0.7,0.9-1.3,1.4-2c0.1-0.1,0-0.2-0.1-0.3c-0.1-0.1-0.2,0-0.3,0.1c-0.4,0.7-0.9,1.3-1.4,2
			c-0.5,0.7-1,1.3-1.5,1.9c-0.1,0.1-0.1,0.2,0,0.3C53.5,29.5,53.6,29.4,53.7,29.4"/>
		<path class="st176" d="M54.9,32c0.9-1.1,1.7-2.2,2.5-3.3c0.8-1.1,1.5-2.3,2.1-3.5c0,0,0-0.1,0-0.1c0,0-0.1,0-0.1,0
			c-0.6,1.2-1.3,2.4-2.1,3.5c-0.8,1.1-1.6,2.3-2.5,3.3c0,0,0,0.1,0,0.1C54.8,32,54.8,32,54.9,32 M56.6,32.1c0,0-0.1,0-0.1,0
			c0,0,0-0.1,0-0.1c0.8-1,1.5-1.9,2.2-2.9c0.7-1,1.3-2,1.9-3.1c0,0,0.1-0.1,0.1,0c0,0,0.1,0.1,0,0.1c-0.6,1.1-1.2,2.1-1.9,3.1
			C58.1,30.2,57.4,31.2,56.6,32.1 M57.4,33.4c0,0-0.1,0-0.1,0c0,0,0-0.1,0-0.1c0.7-0.9,1.4-1.8,2-2.7c0.6-0.9,1.2-1.8,1.8-2.8
			c0,0,0.1-0.1,0.1,0c0,0,0.1,0.1,0,0.1c-0.6,1-1.2,1.9-1.8,2.8C58.8,31.6,58.1,32.5,57.4,33.4 M58.1,34.7c0,0-0.1,0-0.1,0
			c0,0,0-0.1,0-0.1c0.7-0.8,1.3-1.6,1.9-2.5c0.6-0.8,1.2-1.7,1.7-2.6c0,0,0.1-0.1,0.1,0c0,0,0.1,0.1,0,0.1c-0.5,0.9-1.1,1.8-1.7,2.6
			C59.4,33.1,58.8,33.9,58.1,34.7 M54.2,30.7c0,0-0.1,0-0.1,0c0,0,0-0.1,0-0.1c0.7-0.9,1.4-1.8,2-2.7c0.6-0.9,1.2-1.8,1.8-2.8
			c0,0,0.1-0.1,0.1,0c0,0,0.1,0.1,0,0.1c-0.6,1-1.2,1.9-1.8,2.8C55.6,28.9,54.9,29.8,54.2,30.7 M53.6,29.2c0,0-0.1,0-0.1,0
			c0,0,0-0.1,0-0.1c0.5-0.6,1-1.3,1.5-1.9c0.5-0.6,0.9-1.3,1.4-2c0,0,0.1-0.1,0.1,0c0,0,0.1,0.1,0,0.1c-0.4,0.7-0.9,1.3-1.4,2
			C54.6,28,54.1,28.6,53.6,29.2"/>
		<path class="st177" d="M35.4,43.5c0.2-0.1,0.5,0.1,0.5,0.3c0.1,0.2-0.1,0.5-0.3,0.5c-3,0.9-6,1.5-9.1,1.7c-3,0.2-6,0.1-9-0.3
			c-0.2,0-0.4-0.3-0.4-0.5c0-0.2,0.3-0.4,0.5-0.4c3,0.4,5.9,0.5,8.9,0.3C29.5,44.9,32.4,44.4,35.4,43.5"/>
		<path class="st174" d="M35.5,43.6c-2.9,0.9-5.9,1.4-8.9,1.7c-3,0.2-6,0.1-8.9-0.3c-0.1,0-0.1,0-0.1,0.1c0,0.1,0,0.1,0.1,0.1
			c3,0.4,6,0.5,9,0.3c3.1-0.2,6.1-0.8,9-1.7c0.1,0,0.1-0.1,0.1-0.2C35.6,43.6,35.5,43.6,35.5,43.6"/>
		<path class="st174" d="M54,50.6c-1.7,1.4-4.2-1.1-2.4-2.8c1-0.9,2.1-1.2,3.4-1.1C54.2,47.9,55.3,49.6,54,50.6"/>
		<path class="st175" d="M52.3,50.9c-1.2-0.4-2-2-0.7-3.1c1-0.9,2.1-1.2,3.4-1.1C52.9,47.2,51.3,49,52.3,50.9"/>
		<path class="st176" d="M54.5,49.9c-0.2,0.5-0.6,0.8-0.9,0.8c-0.3,0-0.4-0.4-0.3-0.9c0.2-0.5,0.6-0.8,0.9-0.8
			C54.5,49,54.6,49.4,54.5,49.9"/>
		<path class="st174" d="M55.4,50.8c-0.2-0.3-0.5-0.4-0.7-0.5c-0.1,0.2-0.3,0.4-0.5,0.6c-0.5,0.4-1.1,0.6-1.8,0.4c0,0,0,0-0.1,0
			c-0.3,0.5-0.3,1.2,0.2,1.9c0.8,1,1.9,1.5,3.2,1.6C55.1,53.5,56.5,52,55.4,50.8"/>
		<path class="st175" d="M52.3,51.2c-0.3,0.5-0.3,1.2,0.2,1.9c0.8,1,1.9,1.5,3.2,1.6c-1.6-0.6-2.8-2.1-2.5-3.5
			C53,51.3,52.7,51.3,52.3,51.2C52.4,51.2,52.3,51.2,52.3,51.2"/>
		<path class="st176" d="M55.7,51.6c-0.1-0.5-0.4-0.9-0.7-0.9c-0.3,0-0.5,0.4-0.4,0.9c0.1,0.5,0.4,0.9,0.7,0.9
			C55.6,52.5,55.8,52.1,55.7,51.6"/>
		<path class="st174" d="M50.8,51.3c-1.8,1.3-4.1-1.4-2.2-2.9c1-0.8,2.2-1,3.4-0.9C51.2,48.6,52.2,50.3,50.8,51.3"/>
		<path class="st175" d="M49.1,51.5c-1.1-0.5-1.8-2-0.5-3.1c1-0.8,2.2-1,3.4-0.9C49.9,47.8,48.2,49.5,49.1,51.5"/>
		<path class="st176" d="M51.3,50.5c-0.2,0.5-0.6,0.8-0.9,0.8c-0.3,0-0.4-0.5-0.2-0.9c0.2-0.5,0.6-0.8,0.9-0.8
			C51.4,49.7,51.5,50.1,51.3,50.5"/>
		<path class="st174" d="M52.2,51.5c-0.2-0.3-0.4-0.4-0.7-0.6c-0.1,0.2-0.3,0.4-0.5,0.5c-0.5,0.4-1.2,0.5-1.8,0.3c0,0,0,0-0.1,0
			c-0.3,0.5-0.4,1.2,0.1,1.9c0.7,1,1.8,1.6,3.1,1.8C51.7,54.1,53.2,52.8,52.2,51.5"/>
		<path class="st175" d="M49.1,51.7c-0.3,0.5-0.4,1.2,0.1,1.9c0.7,1,1.8,1.6,3.1,1.8c-1.6-0.7-2.6-2.2-2.2-3.6
			C49.8,51.9,49.5,51.8,49.1,51.7C49.2,51.7,49.1,51.7,49.1,51.7"/>
		<path class="st176" d="M52.4,52.3c-0.1-0.5-0.4-0.9-0.7-1c-0.3,0-0.5,0.3-0.5,0.8c0.1,0.5,0.4,0.9,0.7,1
			C52.3,53.2,52.5,52.8,52.4,52.3"/>
		<path class="st174" d="M47.6,51.5c-1.8,1.2-4-1.6-2-3c1-0.7,2.2-0.9,3.5-0.6C48.1,48.8,49,50.6,47.6,51.5"/>
		<path class="st175" d="M45.9,51.6c-1.1-0.5-1.7-2.1-0.3-3.1c1-0.7,2.2-0.9,3.5-0.6C46.9,48,45.1,49.6,45.9,51.6"/>
		<path class="st176" d="M48.1,50.8c-0.2,0.4-0.6,0.8-0.9,0.7c-0.3-0.1-0.4-0.5-0.1-0.9c0.2-0.4,0.6-0.8,0.9-0.7
			C48.3,49.9,48.3,50.3,48.1,50.8"/>
		<path class="st174" d="M48.9,51.8c-0.2-0.3-0.4-0.5-0.7-0.6c-0.1,0.2-0.3,0.4-0.5,0.5c-0.5,0.3-1.2,0.4-1.8,0.2c0,0,0,0-0.1,0
			c-0.4,0.5-0.4,1.2,0,1.9c0.7,1.1,1.7,1.7,2.9,2C48.3,54.4,49.8,53.1,48.9,51.8"/>
		<path class="st175" d="M45.9,51.8c-0.3,0.5-0.4,1.2,0,1.9c0.7,1.1,1.7,1.7,2.9,2c-1.5-0.8-2.4-2.3-2-3.7
			C46.5,52,46.2,52,45.9,51.8C45.9,51.8,45.9,51.8,45.9,51.8"/>
		<path class="st176" d="M49.1,52.6c0-0.5-0.3-1-0.6-1c-0.3-0.1-0.5,0.3-0.5,0.8c0,0.5,0.3,1,0.6,1C48.9,53.5,49.1,53.1,49.1,52.6"
			/>
		<path class="st174" d="M44.3,51.3c-1.9,1.1-3.9-1.9-1.8-3.1c1.1-0.7,2.3-0.7,3.5-0.4C45,48.7,45.8,50.5,44.3,51.3"/>
		<path class="st175" d="M42.6,51.3c-1.1-0.6-1.6-2.2-0.1-3.1c1.1-0.7,2.3-0.7,3.5-0.4C43.9,47.8,42,49.3,42.6,51.3"/>
		<path class="st176" d="M44.9,50.7c-0.2,0.4-0.7,0.7-1,0.6c-0.3-0.1-0.3-0.5-0.1-0.9c0.2-0.4,0.7-0.7,1-0.6
			C45.1,49.8,45.1,50.2,44.9,50.7"/>
		<path class="st174" d="M45.6,51.7c-0.2-0.3-0.4-0.5-0.6-0.6c-0.1,0.2-0.3,0.3-0.6,0.5c-0.6,0.3-1.2,0.3-1.8,0.1c0,0,0,0-0.1,0
			c-0.4,0.5-0.5,1.1-0.1,1.9c0.6,1.1,1.6,1.8,2.8,2.2C44.9,54.2,46.5,53.1,45.6,51.7"/>
		<path class="st175" d="M42.6,51.6c-0.4,0.5-0.5,1.1-0.1,1.9c0.6,1.1,1.6,1.8,2.8,2.2c-1.5-0.9-2.3-2.5-1.8-3.8
			C43.2,51.8,42.9,51.7,42.6,51.6C42.6,51.6,42.6,51.6,42.6,51.6"/>
		<path class="st176" d="M45.8,52.5c0-0.5-0.2-1-0.5-1c-0.3-0.1-0.5,0.3-0.5,0.8c0,0.5,0.2,1,0.5,1C45.5,53.4,45.8,53,45.8,52.5"/>
		<path class="st174" d="M41.1,50.9c-2,0.9-3.8-2.1-1.6-3.2c1.1-0.6,2.3-0.6,3.5-0.2C41.9,48.3,42.6,50.2,41.1,50.9"/>
		<path class="st175" d="M39.4,50.8c-1-0.7-1.4-2.3,0.1-3.1c1.1-0.6,2.3-0.6,3.5-0.2C40.8,47.3,38.9,48.7,39.4,50.8"/>
		<path class="st176" d="M41.7,50.2c-0.3,0.4-0.7,0.7-1,0.6c-0.3-0.1-0.3-0.5,0-0.9c0.3-0.4,0.7-0.7,1-0.6
			C42,49.4,42,49.8,41.7,50.2"/>
		<path class="st174" d="M42.4,51.3c-0.1-0.3-0.3-0.5-0.6-0.7c-0.2,0.2-0.4,0.3-0.6,0.4c-0.6,0.3-1.2,0.3-1.8-0.1c0,0,0,0-0.1,0
			c-0.4,0.4-0.6,1.1-0.2,1.9c0.5,1.2,1.5,1.9,2.7,2.3C41.4,53.8,43.1,52.8,42.4,51.3"/>
		<path class="st175" d="M39.3,51c-0.4,0.4-0.6,1.1-0.2,1.9c0.5,1.2,1.5,1.9,2.7,2.3c-1.4-1-2.1-2.6-1.5-3.9
			C39.9,51.3,39.7,51.2,39.3,51C39.4,51,39.4,51,39.3,51"/>
		<path class="st176" d="M42.5,52.2c0-0.5-0.2-1-0.5-1.1c-0.3-0.1-0.6,0.2-0.6,0.7c0,0.5,0.2,1,0.5,1.1C42.2,53,42.4,52.7,42.5,52.2
			"/>
		<path class="st174" d="M37.9,50.2c-2,0.8-3.7-2.3-1.4-3.3c1.2-0.5,2.4-0.5,3.6,0C38.9,47.7,39.4,49.6,37.9,50.2"/>
		<path class="st175" d="M36.2,50c-1-0.7-1.3-2.4,0.2-3.1c1.2-0.5,2.4-0.5,3.6,0C37.9,46.6,35.8,47.9,36.2,50"/>
		<path class="st176" d="M38.5,49.6c-0.3,0.4-0.8,0.6-1.1,0.5c-0.3-0.1-0.3-0.5,0-0.9c0.3-0.4,0.8-0.6,1.1-0.5
			C38.8,48.8,38.8,49.2,38.5,49.6"/>
		<path class="st174" d="M39.1,50.7c-0.1-0.3-0.3-0.5-0.5-0.7c-0.2,0.2-0.4,0.3-0.6,0.4c-0.6,0.2-1.2,0.2-1.8-0.2c0,0,0,0-0.1,0
			c-0.4,0.4-0.6,1.1-0.3,1.9c0.5,1.2,1.4,2,2.5,2.5C38.1,53.2,39.8,52.2,39.1,50.7"/>
		<path class="st175" d="M36.1,50.2c-0.4,0.4-0.6,1.1-0.3,1.9c0.5,1.2,1.4,2,2.5,2.5c-1.4-1-2-2.8-1.3-4
			C36.7,50.5,36.4,50.4,36.1,50.2C36.2,50.2,36.1,50.2,36.1,50.2"/>
		<path class="st176" d="M39.2,51.6c0.1-0.5-0.1-1-0.4-1.1c-0.3-0.1-0.6,0.2-0.6,0.7c-0.1,0.5,0.1,1,0.4,1.1
			C38.8,52.4,39.1,52.1,39.2,51.6"/>
		<path class="st174" d="M34.7,49.4c-2.1,0.7-3.5-2.6-1.2-3.4c1.2-0.5,2.4-0.3,3.6,0.2C35.8,46.9,36.3,48.8,34.7,49.4"/>
		<path class="st175" d="M33,49c-1-0.8-1.1-2.5,0.4-3.1c1.2-0.5,2.4-0.3,3.6,0.2C34.9,45.7,32.8,46.9,33,49"/>
		<path class="st176" d="M35.4,48.8c-0.3,0.4-0.8,0.6-1.1,0.4c-0.3-0.1-0.2-0.6,0.1-0.9c0.3-0.4,0.8-0.6,1.1-0.4
			C35.8,48,35.7,48.4,35.4,48.8"/>
		<path class="st174" d="M35.9,50c-0.1-0.3-0.3-0.6-0.5-0.7c-0.2,0.1-0.4,0.3-0.7,0.4c-0.6,0.2-1.3,0.1-1.8-0.3c0,0,0,0-0.1,0
			c-0.5,0.4-0.7,1-0.5,1.9c0.4,1.2,1.3,2.1,2.4,2.7C34.7,52.4,36.5,51.5,35.9,50"/>
		<path class="st175" d="M32.9,49.3c-0.5,0.4-0.7,1-0.5,1.9c0.4,1.2,1.3,2.1,2.4,2.7c-1.3-1.1-1.8-2.9-1.1-4.1
			C33.5,49.6,33.2,49.5,32.9,49.3C33,49.3,32.9,49.3,32.9,49.3"/>
		<path class="st176" d="M35.9,50.8c0.1-0.5-0.1-1-0.3-1.1c-0.3-0.1-0.6,0.2-0.7,0.7c-0.1,0.5,0.1,1,0.3,1.1
			C35.5,51.6,35.8,51.3,35.9,50.8"/>
		<path class="st174" d="M55,50.2c-0.1,0-0.2,0-0.3-0.1c0-0.1,0-0.2,0.1-0.3c1.3-0.4,2.6-0.8,3.9-1.4c1.3-0.5,2.5-1.1,3.7-1.7
			c0.1-0.1,0.2,0,0.3,0.1c0.1,0.1,0,0.2-0.1,0.3c-1.2,0.7-2.4,1.2-3.7,1.8C57.7,49.3,56.4,49.8,55,50.2 M56.3,51.3
			c1.2-0.4,2.4-0.8,3.5-1.2c1.1-0.4,2.3-0.9,3.3-1.5c0.1-0.1,0.1-0.2,0.1-0.3c-0.1-0.1-0.2-0.1-0.3-0.1c-1.1,0.5-2.2,1-3.3,1.5
			c-1.1,0.4-2.3,0.8-3.5,1.2c-0.1,0-0.2,0.2-0.1,0.3C56.1,51.2,56.2,51.3,56.3,51.3 M56.3,52.8c1.1-0.3,2.2-0.7,3.2-1.1
			c1-0.4,2.1-0.8,3.1-1.3c0.1-0.1,0.1-0.2,0.1-0.3c-0.1-0.1-0.2-0.1-0.3-0.1c-1,0.5-2,0.9-3,1.3c-1,0.4-2.1,0.7-3.2,1.1
			c-0.1,0-0.2,0.2-0.1,0.3C56,52.8,56.2,52.8,56.3,52.8 M56.1,54.3c-0.1,0-0.2,0-0.3-0.1c0-0.1,0-0.2,0.1-0.3c1-0.3,2-0.6,3-1
			c1-0.4,1.9-0.8,2.8-1.2c0.1,0,0.2,0,0.3,0.1c0,0.1,0,0.2-0.1,0.3c-0.9,0.4-1.9,0.8-2.9,1.2C58.1,53.6,57.1,54,56.1,54.3
			 M55.2,48.8c1.1-0.3,2.2-0.7,3.2-1.1c1-0.4,2.1-0.8,3.1-1.3c0.1-0.1,0.1-0.2,0.1-0.3c-0.1-0.1-0.2-0.1-0.3-0.1c-1,0.5-2,0.9-3,1.3
			c-1,0.4-2.1,0.8-3.2,1.1c-0.1,0-0.2,0.2-0.1,0.3C54.9,48.7,55.1,48.8,55.2,48.8 M55.5,47.2c0.8-0.2,1.6-0.5,2.3-0.8
			c0.8-0.3,1.5-0.6,2.3-0.9c0.1,0,0.2-0.2,0.1-0.3c0-0.1-0.2-0.2-0.3-0.1c-0.7,0.3-1.5,0.6-2.2,0.9c-0.8,0.3-1.5,0.5-2.3,0.8
			c-0.1,0-0.2,0.2-0.1,0.3C55.2,47.2,55.4,47.2,55.5,47.2"/>
		<path class="st176" d="M55,50c1.3-0.4,2.6-0.8,3.9-1.4c1.3-0.5,2.5-1.1,3.7-1.8c0,0,0.1-0.1,0-0.1c0,0-0.1-0.1-0.1,0
			c-1.2,0.7-2.4,1.2-3.7,1.7c-1.3,0.5-2.6,1-3.9,1.4c0,0-0.1,0.1-0.1,0.1C54.9,50,54.9,50,55,50 M56.3,51.1c0,0-0.1,0-0.1-0.1
			c0,0,0-0.1,0.1-0.1c1.2-0.4,2.3-0.7,3.5-1.2c1.1-0.4,2.2-0.9,3.3-1.5c0,0,0.1,0,0.1,0c0,0,0,0.1,0,0.1c-1.1,0.6-2.2,1-3.3,1.5
			C58.6,50.4,57.5,50.8,56.3,51.1 M56.3,52.6c0,0-0.1,0-0.1-0.1c0,0,0-0.1,0.1-0.1c1.1-0.3,2.1-0.7,3.2-1.1c1-0.4,2-0.8,3-1.3
			c0,0,0.1,0,0.1,0c0,0,0,0.1,0,0.1c-1,0.5-2,0.9-3.1,1.3C58.4,51.9,57.3,52.3,56.3,52.6 M56.1,54.1c1-0.3,2-0.6,3-1
			c1-0.4,1.9-0.8,2.9-1.2c0,0,0.1-0.1,0-0.1c0,0-0.1-0.1-0.1,0c-0.9,0.4-1.9,0.8-2.8,1.2c-1,0.4-2,0.7-3,1C56,54,56,54,56,54
			C56,54.1,56.1,54.1,56.1,54.1 M55.1,48.6c0,0-0.1,0-0.1-0.1c0,0,0-0.1,0.1-0.1c1.1-0.3,2.1-0.7,3.2-1.1c1-0.4,2-0.8,3-1.3
			c0,0,0.1,0,0.1,0c0,0,0,0.1,0,0.1c-1,0.5-2,0.9-3.1,1.3C57.3,47.9,56.2,48.3,55.1,48.6 M55.5,47c0,0-0.1,0-0.1-0.1
			c0,0,0-0.1,0.1-0.1c0.8-0.2,1.6-0.5,2.3-0.8c0.8-0.3,1.5-0.6,2.2-0.9c0,0,0.1,0,0.1,0c0,0,0,0.1,0,0.1c-0.7,0.3-1.5,0.6-2.3,0.9
			C57,46.6,56.2,46.8,55.5,47"/>
		<path class="st177" d="M32.4,48.7c0.2,0.1,0.4,0.3,0.3,0.6c-0.1,0.2-0.3,0.4-0.6,0.3c-3-0.9-5.8-2.2-8.4-3.7
			c-2.6-1.5-5.1-3.3-7.3-5.3c-0.2-0.2-0.2-0.4,0-0.6c0.2-0.2,0.4-0.2,0.6,0c2.2,2,4.6,3.7,7.2,5.2C26.7,46.5,29.4,47.7,32.4,48.7"/>
		<path class="st174" d="M32.4,48.8c-2.9-0.9-5.7-2.1-8.3-3.6c-2.6-1.5-5-3.2-7.2-5.2c-0.1,0-0.1,0-0.2,0c0,0.1,0,0.1,0,0.2
			c2.2,2,4.7,3.8,7.3,5.3c2.7,1.5,5.5,2.7,8.4,3.6c0.1,0,0.1,0,0.2-0.1C32.5,48.9,32.5,48.8,32.4,48.8"/>
	</g>
	<g>
		<path class="st178" d="M38.2,76.3C17.1,76.3,0,59.2,0,38.2C0,17.1,17.1,0,38.2,0s38.2,17.1,38.2,38.2
			C76.3,59.2,59.2,76.3,38.2,76.3z M38.2,1C17.7,1,1,17.7,1,38.2s16.7,37.2,37.2,37.2s37.2-16.7,37.2-37.2S58.7,1,38.2,1z"/>
	</g>
</g>
</svg>
