<svg id="Layer_1" data-name="Layer 1" xmlns="http://www.w3.org/2000/svg" viewBox="0 0 18.83 18.83">
  <title>insta</title>
  <path d="M13.74,0H5.09A5.09,5.09,0,0,0,0,5.09v8.65a5.1,5.1,0,0,0,5.09,5.09h8.65a5.1,5.1,0,0,0,5.09-5.09V5.09A5.1,5.1,0,0,0,13.74,0Zm-.9,11.89a4.16,4.16,0,0,1-2.77,1.66,4.46,4.46,0,0,1-.63,0,4.22,4.22,0,0,1-.61-8.4,4.29,4.29,0,0,1,1.24,0,4.22,4.22,0,0,1,2.77,6.69Zm2.07-7.61a1.09,1.09,0,0,1-.74.3,1,1,0,0,1-1-1,1.08,1.08,0,0,1,.31-.74,1,1,0,0,1,.73-.3,1.09,1.09,0,0,1,.74.3,1.07,1.07,0,0,1,.3.74A1,1,0,0,1,14.91,4.28Z" style="fill: #fff"/>
</svg>
