<svg version="1.1" xmlns="http://www.w3.org/2000/svg" xmlns:xlink="http://www.w3.org/1999/xlink" x="0px" y="0px"
	 viewBox="0 0 841.89 677.118" style="enable-background:new 0 0 841.89 677.118;" xml:space="preserve">
<g>
	<path style="fill:#076197;" d="M65.667,520.634c0-55.748,36.851-123.78,100.158-123.78c40.63,0,58.583,30.236,58.583,66.142
		c0,60.473-37.796,132.284-100.158,132.284C84.565,595.28,65.667,560.319,65.667,520.634 M107.242,514.964
		c0,26.457,9.449,47.244,31.181,47.244c25.512,0,59.528-33.071,59.528-100.158c0-30.236-13.228-46.3-30.236-46.3
		C131.809,416.696,107.242,472.444,107.242,514.964"/>
	<path style="fill:#076197;" d="M236.692,476.224c10.394-6.614,20.788-12.284,33.071-12.284c10.394,0,17.008,4.724,14.173,14.173
		l-2.835,11.339c12.284-15.118,31.181-25.512,48.189-25.512c16.063,0,27.402,10.394,19.843,37.796l-14.173,58.583
		c-1.89,7.559,1.89,10.394,7.559,10.394c11.339,0,23.622-6.614,31.181-12.284c2.835,0.945,4.724,3.78,4.724,5.669
		c0,1.89-0.945,3.78-2.835,5.669c-14.173,13.228-34.016,25.512-53.859,25.512c-15.118,0-30.236-6.614-22.677-35.906l12.284-51.024
		c2.835-10.394-1.89-15.118-8.504-15.118c-7.559,0-19.843,6.614-26.457,13.228l-17.953,72.756
		c-0.945,11.339-12.284,16.063-22.677,16.063c-5.669,0-10.394-0.945-14.173-3.78l24.567-98.268c0.945-3.78,0-6.614-2.835-6.614
		c-1.89,0-2.835,0.945-5.669,2.835C232.912,488.508,231.022,480.949,236.692,476.224"/>
	<path style="fill:#076197;" d="M411.496,553.705c2.835,14.173,14.173,18.898,27.402,18.898c21.732,0,48.189-13.228,61.418-27.402
		c7.559-0.945,10.394,3.78,7.559,8.504c-20.788,26.457-54.804,41.575-84.095,41.575c-27.402,0-50.079-14.173-50.079-45.355
		c0-33.071,25.512-85.985,74.646-85.985c27.402,0,34.016,13.228,34.016,24.567C482.363,509.295,469.134,526.303,411.496,553.705
		 M410.551,543.311c28.347-15.118,48.189-33.071,48.189-50.079c0-5.669-3.78-10.394-8.504-10.394
		C420.945,482.838,411.496,525.358,410.551,543.311"/>
	<path style="fill:#076197;" d="M540.946,521.579l1.89-0.945c14.173-3.78,34.016-27.402,41.575-54.804
		c4.724-1.89,9.449-2.835,14.173-2.835c10.394,0,15.118,5.669,15.118,12.284c0,15.118-22.677,37.796-41.575,48.189
		c3.78,14.173,12.284,44.41,34.016,44.41c5.669,0,12.284-4.724,19.843-10.394c2.835,0.945,4.724,3.78,4.724,5.669
		s-0.945,3.78-2.835,5.669c-9.449,12.284-30.236,26.457-42.52,26.457c-29.292,0-37.796-40.63-41.575-60.473l-5.669,0.945
		l-10.394,43.465c-2.835,11.339-14.173,16.063-24.567,16.063c-5.669,0-10.394-0.945-14.173-2.835l24.567-98.268
		c0.945-4.724,0-6.614-2.835-6.614c-1.89,0-2.835,0.945-5.669,2.835c-3.78-1.89-5.669-10.394,0-14.173
		c10.394-6.614,20.788-12.284,33.071-12.284c10.394,0,17.008,3.78,14.173,14.173L540.946,521.579z"/>
	<path style="fill:#076197;" d="M744.097,551.815c-2.835,13.228,0.945,18.898,6.614,18.898s12.284-2.835,17.008-12.284
		c5.669,0,8.504,2.835,8.504,6.614c0,17.953-24.567,30.236-40.63,30.236c-14.173,0-28.347-5.669-27.402-25.512
		c-12.284,15.118-28.347,25.512-45.355,25.512c-31.181,0-36.851-26.457-36.851-42.52c0-44.41,33.071-88.82,74.646-88.82
		c13.228,0,22.677,2.835,30.236,8.504c4.724-4.724,13.229-7.559,19.843-7.559c5.669,0,10.394,0.945,14.173,2.835L744.097,551.815z
		 M708.191,552.76l17.008-68.032c-4.724-1.89-9.449-1.89-14.173-1.89c-35.906,0-48.189,40.63-48.189,68.032
		c0,12.284,6.614,17.953,16.063,17.953C687.404,568.823,699.687,562.209,708.191,552.76"/>
	<g>
		<path style="fill:#076197;" d="M766.774,318.428c-21.732,9.449-41.575,14.173-61.418,16.063
			c-70.867-4.724-104.883-67.087-180.474-93.544c25.512-4.724,44.41-21.732,42.52-59.528
			c68.977-34.016,93.544-117.166,89.764-182.364c0,0,0,0-0.945,1.89c-0.945,0.945-1.89,3.78-1.89,3.78
			c-77.481,158.741-350.554,47.244-380.79,211.655l0,0l0,0l0,0c-19.843-26.457-49.134-33.071-66.142-15.118
			c-8.504-5.669-23.622-7.559-38.74,3.78l0,0l0,0c9.449,0.945,19.843,6.614,28.347,14.173c-8.504-5.669-18.898-4.724-30.236,0
			c12.284-0.945,24.567,0,38.74,7.559v-0.945c-5.669-10.394-14.173-20.788-26.457-21.732c14.173-0.945,26.457,2.835,35.906,11.339
			c-0.945-10.394,6.614-15.118,15.118-15.118c43.465-0.945,61.418,54.804,66.142,72.756c-1.89-20.788-7.559-37.796-16.063-51.024
			l0,0C312.283,77.481,591.97,185.198,649.608,32.126c1.89,40.63-25.512,105.828-80.316,137.009c-0.945,0.945-8.504,3.78-8.504,3.78
			s0.945,4.724,0.945,8.504c0,1.89,0,3.78,0,4.724c-1.89,35.906-41.575,44.41-66.142,40.63
			c-33.071-4.724-78.426-22.677-140.788,2.835l0,0c-18.898,7.559-38.74,20.788-58.583,42.52
			c160.631-127.56,279.687,152.127,460.161,51.969l0,0c-88.82,64.252-302.365,77.481-400.633-34.961
			C405.827,386.46,669.451,453.547,766.774,318.428L766.774,318.428L766.774,318.428z M453.071,239.057
			c83.15-1.89,130.395,67.087,188.033,90.709C571.182,314.648,511.654,264.569,453.071,239.057z"/>
		<path style="fill:#076197;" d="M326.456,396.853c-133.229-67.087-94.489-163.466-161.576-176.694
			C230.077,249.451,175.274,353.388,326.456,396.853z"/>
		<path style="fill:#076197;" d="M229.133,223.939c-3.78,4.724-1.89,12.284,3.78,14.173c5.669,1.89,7.559,0.945,10.394,2.835
			l5.669,3.78c0,0-0.945-2.835-1.89-6.614c-1.89-3.78,0-8.504-3.78-13.228C238.581,220.159,232.912,219.214,229.133,223.939z
			 M233.857,233.388c-1.89-0.945-1.89-3.78-0.945-5.669c1.89-1.89,3.78-1.89,4.724,0
			C239.526,227.718,245.196,239.057,233.857,233.388z"/>
	</g>
	<path style="fill:#91BF29;" d="M180.943,215.435c3.78-22.677,16.063-41.575,37.796-57.638l-4.724-5.669
		c-20.788,18.898-36.851,34.961-40.63,63.308C176.219,216.38,179.053,216.38,180.943,215.435 M177.164,269.293
		c5.669,21.732,13.228,24.567,17.008,21.732c-10.394-22.677-15.118-43.465-14.173-62.363c-1.89-1.89-3.78-3.78-6.614-4.724
		C172.439,236.222,173.384,251.34,177.164,269.293"/>
	<path style="fill:#91BF29;" d="M185.668,200.316c-23.622,19.843,10.394-22.677-1.89-62.363l7.559-1.89
		C198.896,154.962,195.117,174.804,185.668,200.316"/>
	<path style="fill:#91BF29;" d="M210.235,157.796c4.724-53.859,58.583-32.126,75.591-45.355
		c-4.724,30.236-38.74,52.914-72.756,50.079L210.235,157.796z"/>
	<path style="fill:#91BF29;" d="M188.502,153.072c-17.008-39.685-52.914-16.063-68.977-25.512
		c8.504,26.457,41.575,38.74,67.087,33.071L188.502,153.072z"/>
	<path style="fill:#91BF29;" d="M183.778,138.899c-29.292-39.685,6.614-51.969,5.669-69.922
		c28.347,22.677,17.953,57.638,1.89,73.701L183.778,138.899z"/>
	<path style="fill:#91BF29;" d="M128.029,97.324l0.945-3.78c30.236,3.78,50.079,19.843,58.583,38.74
		c0.945,2.835-2.835,4.724-1.89,8.504C170.549,115.276,150.707,102.048,128.029,97.324"/>
	<path style="fill:#91BF29;" d="M132.754,93.544c-14.173-38.74-40.63-13.228-57.638-22.677
		c8.504,23.622,34.016,31.181,55.748,26.457L132.754,93.544z"/>
	<path style="fill:#91BF29;" d="M163.935,107.717c15.118-42.52-22.677-46.3-31.181-63.308c-6.614,26.457,5.669,45.355,21.732,56.693
		L163.935,107.717z"/>
</g>
<g>
	<path style="fill:#076197;" d="M328.656,674.983v-14.337l-6.588-4.514l-10.371,19.826c-0.427,0.854-1.159,1.403-2.196,1.403
		c-1.281,0-2.318-1.037-2.318-2.318c0-0.427,0.122-0.854,0.305-1.22l10.737-20.376c-6.04-4.575-8.175-8.815-8.175-16.898
		c0-1.342,1.037-2.379,2.379-2.379c1.342,0,2.349,1.037,2.379,2.379c0.183,7.564,1.586,10.371,8.479,15.008l5.369,3.599V636.55
		c0-1.342,1.037-2.379,2.379-2.379c1.342,0,2.379,1.037,2.379,2.379v18.606l5.369-3.599c6.894-4.637,8.296-7.443,8.479-15.008
		c0.03-1.342,1.037-2.379,2.379-2.379c1.342,0,2.379,1.037,2.379,2.379c0,8.083-2.135,12.323-8.175,16.898l10.737,20.376
		c0.183,0.366,0.305,0.793,0.305,1.22c0,1.281-1.037,2.318-2.318,2.318c-1.037,0-1.769-0.549-2.196-1.403l-10.371-19.826
		l-6.588,4.514v14.337c0,1.342-1.037,2.379-2.379,2.379C329.693,677.362,328.656,676.325,328.656,674.983z"/>
	<path style="fill:#076197;" d="M363.606,677.118c-1.159,0-2.135-0.977-2.135-2.135c0-1.159,0.976-2.136,2.135-2.136h0.244
		c2.013,0,3.172-0.731,4.271-3.355l2.44-5.856l-12.262-25.621c-0.244-0.55-0.427-1.037-0.427-1.525c0-1.281,0.976-2.318,2.257-2.318
		c0.915,0,1.708,0.488,2.135,1.403l10.554,22.083l9.7-22.083c0.427-0.915,1.22-1.403,2.135-1.403c1.281,0,2.257,1.037,2.257,2.318
		c0,0.488-0.183,0.976-0.427,1.525l-13.177,30.99c-2.684,6.344-4.636,8.113-9.089,8.113H363.606z"/>
	<path style="fill:#076197;" d="M393.129,636.916c0-1.464,1.037-2.501,2.501-2.501h12.323c6.649,0,13.299,4.087,13.299,12.688
		c0,8.663-6.65,12.689-13.299,12.689h-10.065v15.19c0,1.342-1.037,2.379-2.379,2.379s-2.379-1.037-2.379-2.379V636.916z
		 M407.222,638.685h-9.303v16.837h9.303c5.247,0,9.272-2.807,9.272-8.419S412.468,638.685,407.222,638.685z"/>
	<path style="fill:#076197;" d="M456.876,674.983c0,1.342-1.037,2.379-2.379,2.379s-2.379-1.037-2.379-2.379v-17.691h-18.973v17.691
		c0,1.342-1.037,2.379-2.379,2.379c-1.343,0-2.38-1.037-2.38-2.379V636.55c0-1.342,1.037-2.379,2.38-2.379
		c1.342,0,2.379,1.037,2.379,2.379v16.472h18.973V636.55c0-1.342,1.037-2.379,2.379-2.379s2.379,1.037,2.379,2.379V674.983z"/>
	<path style="fill:#076197;" d="M481.946,636.733l12.933,37.273c0.122,0.366,0.184,0.671,0.184,0.977
		c0,1.342-1.037,2.379-2.38,2.379c-1.098,0-1.982-0.732-2.318-1.708l-3.172-9.09h-16.898l-3.111,9.09
		c-0.335,0.976-1.22,1.708-2.318,1.708c-1.342,0-2.379-1.037-2.379-2.379c0-0.306,0.062-0.61,0.184-0.977l12.933-37.273
		c0.61-1.77,1.708-2.563,3.172-2.563C480.238,634.171,481.336,634.964,481.946,636.733z M471.758,662.294h13.971l-6.955-20.192
		L471.758,662.294z"/>
	<path style="fill:#076197;" d="M499.817,673.58c2.745,0,4.148-1.647,4.148-5.125v-31.539c0-1.464,1.037-2.501,2.501-2.501h22.267
		c1.465,0,2.502,1.037,2.502,2.501v38.067c0,1.342-1.037,2.379-2.38,2.379c-1.342,0-2.379-1.037-2.379-2.379v-36.298h-17.753v30.197
		c0,6.161-3.111,8.968-9.09,8.968h-0.365c-1.221,0-2.136-0.915-2.136-2.136c0-1.159,0.915-2.135,2.136-2.135H499.817z"/>
</g>
</svg>
