<?xml version="1.0" encoding="utf-8"?>
<!-- Generator: Adobe Illustrator 24.0.2, SVG Export Plug-In . SVG Version: 6.00 Build 0)  -->
<svg version="1.1" id="Слой_1" xmlns="http://www.w3.org/2000/svg" xmlns:xlink="http://www.w3.org/1999/xlink" x="0px" y="0px"
	 viewBox="0 0 222.2 250.6" enable-background="new 0 0 222.2 250.6" xml:space="preserve">
<path fill="#F58A97" d="M222.2,111.1C222.2,49.7,172.4,0,111.1,0C49.7,0,0.1,49.6,0,110.9c-0.1,46.6,28.6,86.5,69.3,103.1v32.9
	c0,3,3.4,4.8,5.8,3.1l40.4-27.9C174.8,219.8,222.2,171,222.2,111.1L222.2,111.1z M222.2,111.1"/>
<path fill="#F07281" d="M102.7,226.4c0-10.2-5.5-19.5-14.2-24.6c-33-19.3-55.1-55.1-55-96.1C33.5,56.1,65.8,14.3,110.5,0
	C49.4,0.3,0.1,49.8,0,110.9c-0.1,46.6,28.6,86.5,69.3,103.1v32.9c0,3,3.4,4.8,5.8,3.1l27.6-19.1V226.4z M102.7,226.4"/>
<path fill="#F9F7F8" d="M132.4,113.7L154.2,92c2-2,2-5.1,0-7.1L139.3,70c-2-2-5.1-2-7.1,0l-21.7,21.7L88.8,70c-2-2-5.1-2-7.1,0
	L66.8,84.9c-1.9,2-1.9,5.1,0,7.1l21.7,21.7l-21.7,21.7c-1.9,1.9-1.9,5.1,0,7.1l14.9,14.9c1.9,2,5.1,2,7.1,0l21.7-21.7l21.7,21.7
	c2,2,5.1,2,7.1,0l14.9-14.9c2-2,2-5.1,0-7.1L132.4,113.7z M132.4,113.7"/>
</svg>
