<svg xmlns="http://www.w3.org/2000/svg" style="display: none;">
  
    <symbol id="bolt" viewBox="0 0 32.745 45">
		<path style="fill:#086198;" d="M32.627,18.647c-0.227-0.516-0.735-0.848-1.298-0.848h-11.78l5.674-15.906
			c0.226-0.635-0.026-1.341-0.601-1.689c-0.577-0.348-1.319-0.243-1.776,0.252L0.376,24.823c-0.382,0.413-0.482,1.014-0.256,1.529
			c0.226,0.516,0.735,0.848,1.298,0.848h7.658c0.782,0,1.417-0.634,1.417-1.417c0-0.782-0.635-1.417-1.417-1.417H4.652L20.217,7.488
			L16.203,18.74c-0.154,0.434-0.082,0.916,0.184,1.293c0.266,0.376,0.705,0.6,1.166,0.6h10.539L12.53,37.51l4.015-11.25
			c0.155-0.434,0.089-0.916-0.177-1.293c-0.265-0.376-0.697-0.6-1.157-0.6h-0.015c-0.665,0-1.22,0.46-1.37,1.079L7.524,43.106
			c-0.228,0.634,0.024,1.34,0.601,1.689C8.353,44.933,8.607,45,8.858,45c0.386,0,0.767-0.157,1.042-0.457l22.47-24.366
			C32.752,19.764,32.852,19.163,32.627,18.647L32.627,18.647z M32.627,18.647"/>
	</symbol>

	<symbol id="echo" viewBox="0 0 49.688 42.359">
		<g>
			<g>
				<path style="fill:#086198;" d="M30.411,15.635c-1.482-1.479-3.456-2.294-5.559-2.294c-2.103,0-4.077,0.815-5.559,2.294
					c-1.486,1.482-2.304,3.454-2.304,5.552s0.818,4.07,2.303,5.552c1.482,1.48,3.456,2.295,5.56,2.295
					c2.103,0,4.077-0.814,5.559-2.294c1.486-1.482,2.304-3.455,2.304-5.552S31.897,17.118,30.411,15.635z M28.09,24.413
					c-0.865,0.862-2.015,1.337-3.238,1.337c-1.224,0-2.373-0.475-3.237-1.337c-0.863-0.861-1.339-2.007-1.339-3.226
					c0-1.218,0.475-2.364,1.338-3.226c0.864-0.863,2.014-1.337,3.238-1.337c1.224,0,2.373,0.475,3.236,1.337
					c0.863,0.86,1.339,2.006,1.339,3.226C29.427,22.406,28.952,23.551,28.09,24.413z"/>
				<path style="fill:#086198;" d="M36.658,9.185c-0.311-0.31-0.723-0.48-1.162-0.48c-0.44,0-0.853,0.171-1.163,0.483
					c-0.31,0.311-0.48,0.724-0.48,1.163c0,0.439,0.172,0.851,0.482,1.161c2.59,2.585,4.016,6.022,4.016,9.677
					s-1.426,7.091-4.016,9.676c-0.311,0.311-0.482,0.723-0.483,1.162s0.17,0.852,0.48,1.162c0.621,0.623,1.703,0.623,2.325,0.003
					c3.212-3.207,4.981-7.469,4.981-12.003C41.639,16.653,39.87,12.391,36.658,9.185z"/>
				<path style="fill:#086198;" d="M11.336,21.187c0-3.654,1.426-7.09,4.016-9.676c0.311-0.311,0.482-0.723,0.483-1.162
					c0-0.439-0.17-0.852-0.48-1.162c-0.311-0.312-0.724-0.483-1.163-0.483c-0.438,0-0.851,0.171-1.161,0.48
					C9.819,12.39,8.05,16.653,8.049,21.187c0,4.534,1.769,8.797,4.982,12.004c0.622,0.62,1.704,0.62,2.325-0.003
					c0.31-0.311,0.48-0.724,0.48-1.162c-0.001-0.439-0.172-0.851-0.483-1.161C12.762,28.278,11.336,24.841,11.336,21.187z"/>
				<path style="fill:#086198;" d="M41.095,0.481c-0.31-0.31-0.723-0.48-1.162-0.48c-0.439,0-0.853,0.171-1.164,0.483
					c-0.639,0.641-0.638,1.684,0.003,2.324c4.919,4.909,7.629,11.437,7.629,18.38s-2.709,13.471-7.628,18.379
					c-0.642,0.641-0.643,1.684-0.003,2.325c0.62,0.62,1.703,0.622,2.326,0.001c5.541-5.53,8.593-12.884,8.593-20.706
					S46.636,6.012,41.095,0.481z"/>
				<path style="fill:#086198;" d="M3.287,21.187c0-6.943,2.709-13.471,7.628-18.38c0.311-0.31,0.482-0.723,0.483-1.162
					c0-0.439-0.17-0.851-0.48-1.162C10.608,0.172,10.194,0,9.754,0C9.316,0,8.904,0.171,8.594,0.48C3.052,6.011,0,13.365,0,21.187
					c0,7.823,3.052,15.177,8.594,20.708c0.621,0.619,1.704,0.618,2.325-0.003c0.309-0.31,0.48-0.723,0.48-1.162
					c-0.001-0.439-0.172-0.852-0.483-1.162C5.996,34.659,3.287,28.131,3.287,21.187z"/>
			</g>
		</g>
	</symbol>

	<symbol id="star" viewBox="0 0 45 42.728">
		<path style="fill:#086198;" d="M44.115,18.933c1.733-1.689,0.775-4.634-1.619-4.982l-11.99-1.743
			c-0.1-0.014-0.186-0.077-0.231-0.167L25.235,1.827c-1.202-2.436-4.678-2.435-5.88,0l-5.041,10.214
			c-0.044,0.091-0.131,0.153-0.23,0.168L2.81,13.847c-2.689,0.39-3.762,3.697-1.817,5.593l8.156,7.95
			c0.072,0.07,0.105,0.172,0.088,0.271L7.312,38.888c-0.459,2.677,2.354,4.72,4.758,3.457c10.879-5.72,10.16-5.409,10.367-5.301
			l10.082,5.301c2.403,1.263,5.217-0.779,4.758-3.457l-1.925-11.228c-0.017-0.099,0.016-0.2,0.088-0.27L44.115,18.933z M32.421,28.164
			l1.925,11.227c0.043,0.254-0.217,0.441-0.444,0.322l-10.082-5.3c-0.478-0.251-1.002-0.377-1.526-0.377
			c-0.524,0-1.048,0.125-1.526,0.377l-10.082,5.3c-0.227,0.12-0.487-0.069-0.444-0.322l1.926-11.227
			c0.182-1.064-0.17-2.149-0.943-2.903l-8.156-7.95c-0.184-0.179-0.085-0.485,0.169-0.522L14.51,15.15
			c1.068-0.155,1.991-0.826,2.469-1.794L22.02,3.143c0.113-0.23,0.435-0.231,0.548,0l5.041,10.214
			c0.478,0.968,1.401,1.638,2.469,1.794l11.886,1.728l-8.6,8.383C32.591,26.015,32.238,27.1,32.421,28.164L32.421,28.164z
			M32.421,28.164"/>
	</symbol>

	<symbol id="play" viewBox="0 0 44.25 44.242">
		<g>
			<g>
				<path style="fill:#086198;" d="M29.328,21.546l-9.349-6.791c-0.129-0.093-0.281-0.143-0.441-0.143
					c-0.118,0-0.235,0.028-0.34,0.081c-0.253,0.129-0.411,0.387-0.411,0.672v13.578c0,0.289,0.154,0.541,0.413,0.672
					c0.213,0.107,0.552,0.1,0.773-0.067l9.355-6.79c0.19-0.143,0.307-0.369,0.307-0.601C29.64,21.916,29.525,21.691,29.328,21.546z"/>
				<path style="fill:#086198;" d="M22.126,0C9.926,0,0,9.926,0,22.126c0,12.195,9.926,22.116,22.126,22.116
					c12.199,0,22.124-9.921,22.124-22.116C44.25,9.926,34.325,0,22.126,0z M22.126,41.24c-10.541,0-19.117-8.575-19.117-19.115
					c0-10.541,8.576-19.116,19.117-19.116c10.54,0,19.114,8.575,19.114,19.116C41.24,32.665,32.666,41.24,22.126,41.24z"/>
			</g>
		</g>
	</symbol>


	<symbol id="play-white" viewBox="0 0 44.25 44.242">
		<g>
			<g>
				<path style="fill:#fff;" d="M29.328,21.546l-9.349-6.791c-0.129-0.093-0.281-0.143-0.441-0.143
					c-0.118,0-0.235,0.028-0.34,0.081c-0.253,0.129-0.411,0.387-0.411,0.672v13.578c0,0.289,0.154,0.541,0.413,0.672
					c0.213,0.107,0.552,0.1,0.773-0.067l9.355-6.79c0.19-0.143,0.307-0.369,0.307-0.601C29.64,21.916,29.525,21.691,29.328,21.546z"/>
				<path style="fill:#fff;" d="M22.126,0C9.926,0,0,9.926,0,22.126c0,12.195,9.926,22.116,22.126,22.116
					c12.199,0,22.124-9.921,22.124-22.116C44.25,9.926,34.325,0,22.126,0z M22.126,41.24c-10.541,0-19.117-8.575-19.117-19.115
					c0-10.541,8.576-19.116,19.117-19.116c10.54,0,19.114,8.575,19.114,19.116C41.24,32.665,32.666,41.24,22.126,41.24z"/>
			</g>
		</g>
	</symbol>

	<symbol id="heart" viewBox="-49 170.836 512 452.328">
		<path style="fill:#076197;" d="M327,170.836c-53.948,0-88.103,32.22-107.255,59.25c-4.969,7.014-9.196,14.047-12.745,20.665
			c-3.549-6.618-7.775-13.651-12.745-20.665c-19.152-27.03-53.307-59.25-107.255-59.25c-38.358,0-73.391,15.781-98.645,44.435
			C-35.733,242.605-49,279.213-49,318.351c0,42.603,16.633,82.228,52.345,124.7c31.917,37.96,77.834,77.088,131.005,122.397
			c19.813,16.884,40.302,34.344,62.115,53.429l0.655,0.574c2.828,2.476,6.354,3.713,9.88,3.713c3.526,0,7.052-1.238,9.88-3.713
			l0.655-0.574c21.813-19.085,42.302-36.544,62.118-53.431c53.168-45.306,99.085-84.434,131.002-122.395
			C446.367,400.578,463,360.954,463,318.351c0-39.138-13.267-75.746-37.356-103.081C400.391,186.616,365.358,170.836,327,170.836z
			M260.193,542.614c-17.08,14.554-34.658,29.533-53.193,45.646c-18.534-16.111-36.113-31.091-53.196-45.648
			C49.745,453.939-19,395.358-19,318.351c0-31.83,10.605-61.394,29.862-83.245c19.478-22.099,46.517-34.27,76.138-34.27
			c41.129,0,67.716,25.338,82.776,46.594c13.509,19.064,20.558,38.282,22.962,45.659c2.011,6.175,7.768,10.354,14.262,10.354
			s12.251-4.179,14.262-10.354c2.404-7.377,9.453-26.595,22.962-45.66c15.06-21.255,41.647-46.593,82.776-46.593
			c29.621,0,56.66,12.171,76.137,34.27C422.395,256.957,433,286.521,433,318.351C433,395.358,364.255,453.939,260.193,542.614z"/>
	</symbol>


	<symbol id="invalid" viewBox="0 0 76.33 76.33">
		<defs>
			<clipPath id="clip-path" transform="translate(0)">
			<rect width="76.33" height="76.33" style="fill: none"/>
			</clipPath>
		</defs>
		<g style="clip-path: url(#clip-path)">
			<path d="M53.58,47.88l-2.13-5.5a4.54,4.54,0,0,0-4.26-2.91H45l-.38-.37v-.71h3.16a2.2,2.2,0,1,0,0-4.4H44.58A3.85,3.85,0,0,0,43,31a3.68,3.68,0,1,0-4.46,0,3.84,3.84,0,0,0-1.59,3.11v2.37a8.83,8.83,0,0,0-1.27.19v-3.3a.74.74,0,0,0-.74-.74H33.41a2.18,2.18,0,0,0-.61-1.49l-3.9-5a3.59,3.59,0,0,0-.63-.76,3.69,3.69,0,1,0-5.54-3.19,3.65,3.65,0,0,0,1.21,2.73A3.65,3.65,0,0,0,22.15,28v9.77a7.16,7.16,0,0,0,1.16,3.91l.61.94V55.33a.73.73,0,0,0,.73.73h5.52a.74.74,0,0,0,.74-.73,3.68,3.68,0,0,0-1.47-2.94h0v-1a9.84,9.84,0,0,0,16.26.71h3.57A2.59,2.59,0,0,0,49,53.34a2.72,2.72,0,0,0,5.44,0,2.59,2.59,0,0,0-.31-1.24h1.26a.74.74,0,0,0,.73-.74v-.51a3,3,0,0,0-2.5-3M40.76,25.8A2.22,2.22,0,1,1,38.54,28a2.23,2.23,0,0,1,2.22-2.22m-2.35,8.26a2.35,2.35,0,0,1,4.7,0v.66a.73.73,0,0,0,.74.73h3.89a.74.74,0,0,1,0,1.47H43.85a.74.74,0,0,0-.74.74v.28a9.74,9.74,0,0,0-4.7-1.53Zm-5.54,0H34.2v3a10,10,0,0,0-4.76,4V34l.21.21a2.21,2.21,0,0,0,3.11,0l.11-.12M26.41,19.92a2.22,2.22,0,1,1-2.21,2.22,2.22,2.22,0,0,1,2.21-2.22m-1.87,21a5.71,5.71,0,0,1-.92-3.11v-.51H28V51.65H25.38V42.4a.8.8,0,0,0-.11-.4Zm.84,13.71V53.12h1.86a2.21,2.21,0,0,1,2.07,1.47Zm3.85-22.92a.74.74,0,0,0-1.26.52v3.6H23.62V28a2.18,2.18,0,0,1,2.18-2.17,2.15,2.15,0,0,1,1.86,1.05l.05.08,4,5.06a.13.13,0,0,0,.06.07.75.75,0,0,1,0,1,.73.73,0,0,1-.52.21.72.72,0,0,1-.52-.21Zm8.58,22.92a8.37,8.37,0,1,1,8.37-8.36,8.37,8.37,0,0,1-8.37,8.36m9.8-9.24h0L50,50.63H46.6a9.74,9.74,0,0,0,1-4.4c0-.3,0-.59,0-.88m4.07,9.24a1.25,1.25,0,1,1,1.25-1.25,1.25,1.25,0,0,1-1.25,1.25m0-4h-.06l-2.87-6.32a.74.74,0,0,0-.67-.43h-.72a9.76,9.76,0,0,0-1.26-2.94h1.09a3.08,3.08,0,0,1,2.89,2l2.3,5.93a.74.74,0,0,0,.69.47,1.55,1.55,0,0,1,1.53,1.32Z" transform="translate(0)" style="fill: #75b5d1"/>
			<path d="M40.89,46.22a3.09,3.09,0,1,0-3.08,3.09,3.08,3.08,0,0,0,3.08-3.09m-4.7,0a1.62,1.62,0,1,1,1.62,1.62,1.62,1.62,0,0,1-1.62-1.62" transform="translate(0)" style="fill: #75b5d1"/>
			<path d="M43.92,45.49a.74.74,0,0,0-.74.73A5.37,5.37,0,0,1,40.32,51a.73.73,0,0,0,.34,1.38.72.72,0,0,0,.35-.08,6.83,6.83,0,0,0,3.64-6.06.73.73,0,0,0-.73-.73" transform="translate(0)" style="fill: #75b5d1"/>
			<path d="M37.82,51.6h0a.74.74,0,0,0,0,1.47h0a.73.73,0,0,0,.73-.74.74.74,0,0,0-.74-.73" transform="translate(0)" style="fill: #75b5d1"/>
			<path d="M38.16,76.33A38.17,38.17,0,1,1,76.33,38.16,38.21,38.21,0,0,1,38.16,76.33M38.16,1A37.17,37.17,0,1,0,75.33,38.16,37.2,37.2,0,0,0,38.16,1" transform="translate(0)" style="fill: #cee5f0"/>
		</g>
	</symbol>


	<symbol id="bus" viewBox="0 0 76.33 76.33">
		<defs>
			<clipPath id="clip-path" transform="translate(0 0)">
			<rect width="76.33" height="76.33" style="fill: none"/>
			</clipPath>
		</defs>
		<g style="clip-path: url(#clip-path)">
			<path d="M52.9,20.34h-19a2.85,2.85,0,0,0-2.7,3V47.7a.65.65,0,0,0,0,.19h0l1.4,3.23a1.13,1.13,0,0,0,1,.69h.5v2.38a1.71,1.71,0,0,0,.11.59H27.08V44.11a1.79,1.79,0,0,0-1.79-1.79V32.18a4.75,4.75,0,1,0-1.18,0V42.32a1.79,1.79,0,0,0-1.79,1.79V54.8H20.54a.6.6,0,0,0,0,1.19H55a.6.6,0,1,0,0-1.19H52.52a1.7,1.7,0,0,0,.1-.59V51.83h.5a1.13,1.13,0,0,0,1-.69l1.41-3.23h0a.45.45,0,0,0,0-.2V23.31a2.85,2.85,0,0,0-2.7-3M21.13,27.47A3.57,3.57,0,1,1,24.7,31a3.57,3.57,0,0,1-3.57-3.56m11.29-4.16a1.67,1.67,0,0,1,1.52-1.78h19a1.67,1.67,0,0,1,1.51,1.78V47.08H47.28V45.89a1.78,1.78,0,0,0-1.78-1.78H41.34a1.79,1.79,0,0,0-1.79,1.78v1.19H32.42ZM46.09,47.08H40.74V45.89a.6.6,0,0,1,.6-.6H45.5a.6.6,0,0,1,.59.6ZM23.51,54.8V44.11a.6.6,0,0,1,.6-.6h1.18a.6.6,0,0,1,.6.6V54.8ZM36,54.8a.59.59,0,0,1-.59-.59V51.83h2.37v2.38a.59.59,0,0,1-.59.59Zm11.88-3v2.38a1.71,1.71,0,0,0,.11.59H38.85a1.71,1.71,0,0,0,.11-.59V51.83Zm3.57,2.38a.6.6,0,0,1-.6.59H49.65a.6.6,0,0,1-.59-.59V51.83h2.38Zm1.62-3.57H33.77l-1-2.38H54.1Z" transform="translate(0 0)" style="fill: #75b5d1"/>
			<path d="M35.4,26.87h16a1.78,1.78,0,0,0,1.78-1.78V24.5a1.78,1.78,0,0,0-1.78-1.78h-16a1.78,1.78,0,0,0-1.79,1.78v.59a1.78,1.78,0,0,0,1.79,1.78m-.6-2.37a.6.6,0,0,1,.6-.6h16a.59.59,0,0,1,.59.6v.59a.59.59,0,0,1-.59.6h-16a.6.6,0,0,1-.6-.6Z" transform="translate(0 0)" style="fill: #75b5d1"/>
			<path d="M36,45.89a2.38,2.38,0,1,0-2.38-2.38A2.39,2.39,0,0,0,36,45.89m0-3.57a1.19,1.19,0,1,1-1.19,1.19A1.19,1.19,0,0,1,36,42.32" transform="translate(0 0)" style="fill: #75b5d1"/>
			<path d="M50.84,41.14a2.38,2.38,0,1,0,2.38,2.37,2.37,2.37,0,0,0-2.38-2.37m0,3.56A1.19,1.19,0,1,1,52,43.51a1.18,1.18,0,0,1-1.19,1.19" transform="translate(0 0)" style="fill: #75b5d1"/>
			<path d="M35.4,40h16a1.79,1.79,0,0,0,1.78-1.79V29.84a1.78,1.78,0,0,0-1.78-1.78h-16a1.79,1.79,0,0,0-1.79,1.78v8.32A1.79,1.79,0,0,0,35.4,40m-.6-10.11a.6.6,0,0,1,.6-.59h16a.59.59,0,0,1,.59.59v8.32a.59.59,0,0,1-.59.6h-16a.6.6,0,0,1-.6-.6Z" transform="translate(0 0)" style="fill: #75b5d1"/>
			<path d="M38.16,76.33A38.17,38.17,0,1,1,76.33,38.16,38.21,38.21,0,0,1,38.16,76.33M38.16,1A37.17,37.17,0,1,0,75.33,38.16,37.2,37.2,0,0,0,38.16,1" transform="translate(0 0)" style="fill: #cee5f0"/>
		</g>
	</symbol>


	<symbol id="family" viewBox="0 0 76.33 76.33">
		<defs>
			<clipPath id="clip-path" transform="translate(0 0)">
			<rect width="76.33" height="76.33" style="fill: none"/>
			</clipPath>
		</defs>
		<g style="clip-path: url(#clip-path)">
			<path d="M38.16,76.33A38.17,38.17,0,1,1,76.33,38.16,38.21,38.21,0,0,1,38.16,76.33M38.16,1A37.17,37.17,0,1,0,75.33,38.16,37.2,37.2,0,0,0,38.16,1" transform="translate(0 0)" style="fill: #cee5f0"/>
			<path d="M28.2,34.16a2.46,2.46,0,0,0,1.91-.94.63.63,0,0,0-.09-.88.64.64,0,0,0-.88.09,1.21,1.21,0,0,1-.94.49,1.23,1.23,0,0,1-.94-.49.63.63,0,0,0-1,.79,2.46,2.46,0,0,0,1.91.94" transform="translate(0 0)" style="fill: #75b5d1"/>
			<path d="M25.35,30.6A.63.63,0,0,0,26,30v-.71a.63.63,0,0,0-1.25,0V30a.62.62,0,0,0,.62.62" transform="translate(0 0)" style="fill: #75b5d1"/>
			<path d="M31.05,30.6a.62.62,0,0,0,.62-.62v-.71a.62.62,0,0,0-.62-.62.61.61,0,0,0-.62.62V30a.62.62,0,0,0,.62.62" transform="translate(0 0)" style="fill: #75b5d1"/>
			<path d="M48.84,37.72a2.46,2.46,0,0,0,1.91-.94.63.63,0,0,0-.1-.88.62.62,0,0,0-.87.09,1.16,1.16,0,0,1-1.88,0A.63.63,0,0,0,47,35.9a.64.64,0,0,0-.09.88,2.46,2.46,0,0,0,1.91.94" transform="translate(0 0)" style="fill: #75b5d1"/>
			<path d="M46,34.16a.63.63,0,0,0,.63-.62v-.71a.63.63,0,1,0-1.25,0v.71a.62.62,0,0,0,.62.62" transform="translate(0 0)" style="fill: #75b5d1"/>
			<path d="M51.68,34.16a.63.63,0,0,0,.63-.62v-.71a.63.63,0,1,0-1.25,0v.71a.62.62,0,0,0,.62.62" transform="translate(0 0)" style="fill: #75b5d1"/>
			<path d="M57.69,44.52l-4.88-2-.07,0a12.63,12.63,0,0,0,5-2.11.59.59,0,0,0,.22-.57,82.63,82.63,0,0,1-.7-9.87,8.45,8.45,0,1,0-16.9,0c0,1.28-.06,2.84-.15,4.32L38.88,35l-4-2h0a7.26,7.26,0,0,0,.36-1.75,2,2,0,0,0,1.44-1.95,2,2,0,0,0-.71-1.55V23.58a3.45,3.45,0,0,0-1.53-2.86,2.73,2.73,0,0,0-2.65-2H26.07a5.62,5.62,0,0,0-5.61,5.61v3.43a2,2,0,0,0,.73,3.5A7.06,7.06,0,0,0,24,36.34v1.72L18.87,39.6a2.74,2.74,0,0,0-2,2.64v6.95a.63.63,0,0,0,.63.63h.09V57a.62.62,0,0,0,1.24,0v-7.2h2.31V57a.63.63,0,0,0,1.25,0V46.28A2.8,2.8,0,0,0,22,44.75l-1.07-1.59a.62.62,0,1,0-1,.69l1.06,1.59a1.48,1.48,0,0,1,.25.84v2.29h-3V42.24a1.49,1.49,0,0,1,1.08-1.44l2.14-.65a7,7,0,0,0,10.16,4.56,2,2,0,0,0,1.65.84h.09v.09a5.6,5.6,0,0,0,2.85,4.87v1a.09.09,0,0,1-.06.08l-2.33.78A2.74,2.74,0,0,0,31.85,55v2a.62.62,0,0,0,.62.62.61.61,0,0,0,.62-.62V55a1.5,1.5,0,0,1,1-1.43l.68-.23a4.89,4.89,0,0,0,8.13,0l.68.23a1.5,1.5,0,0,1,1,1.43v2a.62.62,0,0,0,1.24,0V55A2.73,2.73,0,0,0,44,52.39l-2.33-.78a.09.09,0,0,1-.06-.08v-1a5.6,5.6,0,0,0,2.64-3.36,6.31,6.31,0,0,0,10.58-2.42l2.38,1a1.5,1.5,0,0,1,1,1.4V50H55.87v-.8a.63.63,0,0,0-1.25,0V57a.63.63,0,0,0,1.25,0V51.24h1.6V57a.62.62,0,0,0,1.24,0V51.24h.09a.65.65,0,0,0,.44-.18.62.62,0,0,0,.18-.44V47.08a2.75,2.75,0,0,0-1.73-2.56M41.63,30A7.21,7.21,0,0,1,56,30a82.36,82.36,0,0,0,.67,9.67,13.29,13.29,0,0,1-4.4,1.7v-1a6.76,6.76,0,0,0,.94-.64,7,7,0,0,0,2.44-3.91,6.79,6.79,0,0,0,.18-1.56c0-3.52-2.55-4-5-4.51a10.13,10.13,0,0,1-4.48-1.67.61.61,0,0,0-.66-.07.62.62,0,0,0-.35.56s0,1.65-2.38,2.24a.62.62,0,0,0-.45.75.63.63,0,0,0,.76.46,4.14,4.14,0,0,0,3.09-2.42A13,13,0,0,0,50.62,31c2.63.52,4,.9,4,3.29a6.21,6.21,0,0,1-.14,1.29,5.86,5.86,0,0,1-2,3.21,5.79,5.79,0,0,1-7,.2,7.18,7.18,0,0,0-1.7-2.63V33.54a.6.6,0,0,0-.3-.53.61.61,0,0,0-.6,0l-1.35.67c.08-1.29.11-2.53.11-3.67m.89,4.57V36.8l-2.25-1.13Zm-7.29,0,2.25,1.12L35.23,36.8ZM34,36.32a7.14,7.14,0,0,0-1.6,2.37V36.34A7.2,7.2,0,0,0,34,34.68ZM22.42,30.69a.62.62,0,0,0-.62-.62.8.8,0,0,1,0-1.6h1.42a.61.61,0,0,0,.59-.43l.57-1.71c1.43,0,5.87-.24,8.37-1.49A.62.62,0,0,0,33,24a.63.63,0,0,0-.84-.28c-2.68,1.34-8.2,1.36-8.26,1.36a.63.63,0,0,0-.59.42l-.57,1.71H21.71V24.29a4.36,4.36,0,0,1,4.36-4.36h5.69a1.5,1.5,0,0,1,1.49,1.27.63.63,0,0,0,.31.45,2.22,2.22,0,0,1,1.13,1.93v3.64H33.9a.63.63,0,1,0,0,1.25h.71a.8.8,0,1,1,0,1.6.63.63,0,0,0-.63.62,5.78,5.78,0,0,1-11.56,0m5.78,7a7.06,7.06,0,0,0,2.94-.64v1.44a2.94,2.94,0,1,1-5.87,0h0V37.08a7,7,0,0,0,2.93.64M22.56,39.8l1.54-.47a4.18,4.18,0,0,0,7.81,1.12,7,7,0,0,0-.06.92V42a2,2,0,0,0-.71,1.54,5.72,5.72,0,0,1-2.94.8,5.81,5.81,0,0,1-5.64-4.5m18.74,13,.4.14a3.65,3.65,0,0,1-5.64,0l.39-.14a1.32,1.32,0,0,0,.91-1.26V51a5.47,5.47,0,0,0,1.52.21A5.4,5.4,0,0,0,40.39,51v.5a1.32,1.32,0,0,0,.91,1.26M38.88,50a4.36,4.36,0,0,1-4.36-4.35v-.72a.62.62,0,0,0-.62-.62h-.72a.8.8,0,0,1-.4-1.49.44.44,0,0,0,.15-.12c1.54,0,6.53-.33,9.81-2.21a.62.62,0,0,0,.24-.85.64.64,0,0,0-.85-.23c-2.88,1.64-7.39,2-9,2v-.07a5.78,5.78,0,0,1,1-3.23.64.64,0,0,0,.2.2.63.63,0,0,0,.33.09.71.71,0,0,0,.28-.06l4-2,4,2a.67.67,0,0,0,.28.06.62.62,0,0,0,.32-.09.55.55,0,0,0,.2-.2,5.78,5.78,0,0,1,1,3.23v.91a.61.61,0,0,0,.31.53.8.8,0,0,1-.4,1.49h-.71a.62.62,0,0,0-.62.62v.72A4.36,4.36,0,0,1,38.88,50m10-2.13a5.1,5.1,0,0,1-4.26-2.31A2,2,0,0,0,45.9,42v-.59a6.28,6.28,0,0,0,0-.75,7.08,7.08,0,0,0,3,.66,6.94,6.94,0,0,0,2.22-.37v.92a2.05,2.05,0,0,0,1.29,1.9l1.34.53a5.06,5.06,0,0,1-4.85,3.6" transform="translate(0 0)" style="fill: #75b5d1"/>
			<path d="M40.69,46.57a.62.62,0,0,0-.87.1,1.23,1.23,0,0,1-.94.48,1.2,1.2,0,0,1-.94-.48.63.63,0,0,0-.88-.1.62.62,0,0,0-.09.88,2.4,2.4,0,0,0,3.81,0,.62.62,0,0,0-.09-.88" transform="translate(0 0)" style="fill: #75b5d1"/>
			<path d="M36.75,43.59a.63.63,0,1,1-.62.63.63.63,0,0,1,.62-.63" transform="translate(0 0)" style="fill: #75b5d1"/>
			<path d="M41,43.59a.63.63,0,0,1,0,1.25.63.63,0,0,1,0-1.25" transform="translate(0 0)" style="fill: #75b5d1"/>
		</g>
	</symbol>

	<symbol id="forest" viewBox="0 0 76.33 76.33">
		<defs>
			<clipPath id="clip-path" transform="translate(0)">
			<rect width="76.33" height="76.33" style="fill: none"/>
			</clipPath>
		</defs>
		<g style="clip-path: url(#clip-path)">
			<path d="M57,45.79a.63.63,0,0,0,0-1.25h-.63a.63.63,0,0,0-.63-.63.63.63,0,0,0-.63.63H45a.63.63,0,1,0-1.25,0h-.63a.63.63,0,1,0,0,1.25h.63v1.89h-.63a.63.63,0,1,0,0,1.25h.63v.63h-.63a.63.63,0,0,0-.63.63.63.63,0,0,0,.63.63h.63V52.7H33.12V47.51a6.24,6.24,0,0,0,3,.79,6.46,6.46,0,0,0,6.37-6.54A6.52,6.52,0,0,0,39,35.89a5.75,5.75,0,0,0-3.43-9A4.84,4.84,0,0,0,31.24,20h-.06a4.39,4.39,0,0,0-8.69.1,3.14,3.14,0,0,0,.59,6.22h3.66a3.39,3.39,0,0,0,.2.53,5.67,5.67,0,0,0-4.54,5.6,5.82,5.82,0,0,0,1.11,3.42,6.54,6.54,0,0,0-3.57,5.87,6.46,6.46,0,0,0,6.37,6.54,6.18,6.18,0,0,0,3-.79V52.7H20.57a.63.63,0,1,0,0,1.25H57a.63.63,0,0,0,0-1.25h-.63V50.82H57a.63.63,0,0,0,.62-.63.63.63,0,0,0-.62-.63h-.63v-.63H57a.63.63,0,0,0,0-1.25h-.63V45.79ZM23.08,25.09a1.89,1.89,0,0,1,0-3.77.63.63,0,0,0,.44-.18.64.64,0,0,0,.19-.45,3.13,3.13,0,0,1,6.22-.48,4.83,4.83,0,0,0-3.42,4.66,1.7,1.7,0,0,0,0,.22ZM21.2,41.76a5.25,5.25,0,0,1,3.55-5,.62.62,0,0,0,.25-1,4.48,4.48,0,0,1-1.34-3.22A4.37,4.37,0,0,1,27.91,28a.64.64,0,0,0,.62-.34.63.63,0,0,0-.05-.66A3.48,3.48,0,1,1,34,27a.65.65,0,0,0,0,.66.64.64,0,0,0,.57.34,4.38,4.38,0,0,1,4.3,4.44,4.52,4.52,0,0,1-1.34,3.22.61.61,0,0,0-.17.59.62.62,0,0,0,.41.45,5.31,5.31,0,0,1-1.56,10.32,5,5,0,0,1-4.22-2.33l4.13-4.13a.63.63,0,0,0-.88-.89L31.86,43V36.64l3-3a.63.63,0,0,0-.89-.89l-2.07,2.07V32a.63.63,0,1,0-1.25,0v2.88L28.54,32.8a.63.63,0,0,0-.88.89l2.95,3V43L27.29,39.7a.63.63,0,0,0-.89.89l4.13,4.13a5,5,0,0,1-4.22,2.33,5.2,5.2,0,0,1-5.11-5.29M30.61,52.7V46.58a6.66,6.66,0,0,0,.63-.67,6.56,6.56,0,0,0,.62.67V52.7Zm24.47,0H45V50.82h10Zm0-3.14H45v-.63h10Zm0-1.88H45V45.79h10Z" transform="translate(0)" style="fill: #75b5d1"/>
			<path d="M55.05,25.77a4.39,4.39,0,0,0-8.71,0A3.14,3.14,0,0,0,46.93,32h7.53a3.14,3.14,0,0,0,.59-6.22m-.59,5H46.93a1.88,1.88,0,1,1,0-3.76.67.67,0,0,0,.44-.18.63.63,0,0,0,.18-.45,3.14,3.14,0,0,1,6.28,0,.63.63,0,0,0,.18.45.67.67,0,0,0,.45.18,1.88,1.88,0,0,1,0,3.76" transform="translate(0)" style="fill: #75b5d1"/>
			<path d="M38.16,76.33A38.17,38.17,0,1,1,76.33,38.16,38.21,38.21,0,0,1,38.16,76.33M38.16,1A37.17,37.17,0,1,0,75.33,38.16,37.2,37.2,0,0,0,38.16,1" transform="translate(0)" style="fill: #cee5f0"/>
		</g>
	</symbol>

	<symbol id="chair" viewBox="0 0 76.33 76.33">
		<defs>
			<clipPath id="clip-path" transform="translate(0)">
			<rect width="76.33" height="76.33" style="fill: none"/>
			</clipPath>
		</defs>
		<g style="clip-path: url(#clip-path)">
			<path d="M43.11,36.14V34.68a10.52,10.52,0,0,0-21,0v1.46a3.71,3.71,0,0,0,0,7v8.26a.61.61,0,0,0,.61.62h.76l.5,2a.62.62,0,0,0,.6.47h1.86A.62.62,0,0,0,27,54l.5-2H37.68l.5,2a.62.62,0,0,0,.6.47h1.86a.62.62,0,0,0,.6-.47l.5-2h.75a.62.62,0,0,0,.62-.62V43.13a3.71,3.71,0,0,0,0-7m-19.8-1.46a9.28,9.28,0,1,1,18.56,0v1.24a3.66,3.66,0,0,0-1.23.22V34.68a8,8,0,0,0-16.09,0v1.46a3.72,3.72,0,0,0-1.24-.22ZM27,43.35V39.63a3.78,3.78,0,0,0-1.24-2.76V34.68a6.81,6.81,0,0,1,13.61,0v2.19a3.71,3.71,0,0,0-1.24,2.76v3.72Zm11.13,3.71H27V44.58H38.16ZM25.92,53.25H25L24.72,52h1.51Zm14.23,0h-.89L39,52h1.5Zm2.22-11.19a.61.61,0,0,0-.49.6v8.11H23.31V42.66a.61.61,0,0,0-.49-.6,2.48,2.48,0,1,1,3-2.43v8a.61.61,0,0,0,.62.61H38.78a.61.61,0,0,0,.62-.61v-8a2.48,2.48,0,1,1,3,2.43" transform="translate(0)" style="fill: #75b5d1"/>
			<path d="M33,31.15a.65.65,0,0,0-.88,0,.86.86,0,0,0-.13.2.66.66,0,0,0,0,.48,1.37,1.37,0,0,0,.13.2.61.61,0,0,0,1-.2.57.57,0,0,0,0-.48.63.63,0,0,0-.13-.2" transform="translate(0)" style="fill: #75b5d1"/>
			<path d="M31.18,33.63a.65.65,0,0,0-.88,0,.53.53,0,0,0-.13.2.55.55,0,0,0,0,.47.53.53,0,0,0,.13.2.63.63,0,0,0,.2.13.62.62,0,0,0,.68-.13.69.69,0,0,0,.13-.2.64.64,0,0,0,0-.47.69.69,0,0,0-.13-.2" transform="translate(0)" style="fill: #75b5d1"/>
			<path d="M34,34.5a.62.62,0,0,0,.78.08.62.62,0,0,0,.23-.75.46.46,0,0,0-.13-.2.61.61,0,0,0-.68-.14.62.62,0,0,0-.38.58.93.93,0,0,0,0,.23,1.43,1.43,0,0,0,.14.2" transform="translate(0)" style="fill: #75b5d1"/>
			<path d="M33,36.1a.65.65,0,0,0-.88,0,1.37,1.37,0,0,0-.13.2.64.64,0,0,0,0,.47,1.07,1.07,0,0,0,.13.21.92.92,0,0,0,.21.13A.6.6,0,0,0,33,37a.57.57,0,0,0,.13-.21.55.55,0,0,0,0-.47.63.63,0,0,0-.13-.2" transform="translate(0)" style="fill: #75b5d1"/>
			<path d="M29.32,36.1a.86.86,0,0,0-.2-.13.62.62,0,0,0-.68.13.86.86,0,0,0-.13.2.64.64,0,0,0,0,.47.54.54,0,0,0,.34.34.64.64,0,0,0,.47,0,.58.58,0,0,0,.33-.34.55.55,0,0,0,0-.47.63.63,0,0,0-.13-.2" transform="translate(0)" style="fill: #75b5d1"/>
			<path d="M36.75,36.1a.65.65,0,0,0-.88,0,.63.63,0,0,0-.13.2.55.55,0,0,0,0,.47.57.57,0,0,0,.13.21.86.86,0,0,0,.2.13.64.64,0,0,0,.47,0,.57.57,0,0,0,.34-.34.64.64,0,0,0,0-.47,1.37,1.37,0,0,0-.13-.2" transform="translate(0)" style="fill: #75b5d1"/>
			<path d="M31.18,38.58l-.1-.08-.11,0a.21.21,0,0,0-.11,0,.49.49,0,0,0-.24,0l-.12,0-.11,0-.09.08a.53.53,0,0,0-.13.2.6.6,0,0,0,.13.67.63.63,0,0,0,.2.13.42.42,0,0,0,.24.05.62.62,0,0,0,.44-.18.6.6,0,0,0,.13-.67.69.69,0,0,0-.13-.2" transform="translate(0)" style="fill: #75b5d1"/>
			<path d="M34.22,38.45a.53.53,0,0,0-.34.33.59.59,0,0,0-.05.23.63.63,0,0,0,.18.44.62.62,0,0,0,.44.18.52.52,0,0,0,.24-.05.54.54,0,0,0,.33-.33.6.6,0,0,0,0-.24.62.62,0,0,0-.18-.43.6.6,0,0,0-.67-.13" transform="translate(0)" style="fill: #75b5d1"/>
			<path d="M33,41.05l-.1-.07a.21.21,0,0,0-.1-.06l-.12,0a.49.49,0,0,0-.24,0l-.11,0a.24.24,0,0,0-.11.06l-.1.07a1.37,1.37,0,0,0-.13.2.51.51,0,0,0,0,.24.61.61,0,0,0,.37.58.63.63,0,0,0,.68-.14.61.61,0,0,0,.13-.68.63.63,0,0,0-.13-.2" transform="translate(0)" style="fill: #75b5d1"/>
			<path d="M29.32,41.05a.65.65,0,0,0-.88,0,.86.86,0,0,0-.13.2.62.62,0,0,0,.13.68.74.74,0,0,0,.21.13.6.6,0,0,0,.67-.13.62.62,0,0,0,.13-.68.63.63,0,0,0-.13-.2" transform="translate(0)" style="fill: #75b5d1"/>
			<path d="M36.75,41.05a.65.65,0,0,0-.68-.13.57.57,0,0,0-.33.33.52.52,0,0,0-.05.24.61.61,0,0,0,.85.57.74.74,0,0,0,.21-.13.65.65,0,0,0,.13-.68,1.37,1.37,0,0,0-.13-.2" transform="translate(0)" style="fill: #75b5d1"/>
			<path d="M29.32,31.15a.65.65,0,0,0-.88,0,.86.86,0,0,0-.13.2.66.66,0,0,0,0,.48.86.86,0,0,0,.13.2.61.61,0,0,0,1-.2.57.57,0,0,0,0-.48.63.63,0,0,0-.13-.2" transform="translate(0)" style="fill: #75b5d1"/>
			<path d="M36.54,31a.59.59,0,0,0-.47,0,.67.67,0,0,0-.38.58.52.52,0,0,0,.05.24.61.61,0,0,0,1,.2,1.37,1.37,0,0,0,.13-.2,1,1,0,0,0,0-.24.61.61,0,0,0-.39-.57" transform="translate(0)" style="fill: #75b5d1"/>
			<path d="M56.72,27.8l-1.24-9.9a.62.62,0,0,0-.61-.54H45a.63.63,0,0,0-.62.54l-1.23,9.9a.59.59,0,0,0,.15.49.61.61,0,0,0,.46.21H49.3V50.77H47.44a1.85,1.85,0,0,0-1.85,1.86v1.23a.61.61,0,0,0,.61.62h7.43a.62.62,0,0,0,.62-.62V52.63a1.86,1.86,0,0,0-1.86-1.86H50.54V28.5H56.1a.64.64,0,0,0,.47-.21.63.63,0,0,0,.15-.49M52.39,52a.62.62,0,0,1,.62.62v.61H46.82v-.61a.62.62,0,0,1,.62-.62Zm-8-24.75,1.08-8.66h8.81l1.08,8.66Z" transform="translate(0)" style="fill: #75b5d1"/>
			<path d="M38.16,76.33A38.17,38.17,0,1,1,76.33,38.16,38.21,38.21,0,0,1,38.16,76.33M38.16,1A37.17,37.17,0,1,0,75.33,38.16,37.2,37.2,0,0,0,38.16,1" transform="translate(0)" style="fill: #cee5f0"/>
		</g>
	</symbol>

	<symbol id="less-3" viewBox="0 0 76.33 76.33">
		<defs>
			<clipPath id="clip-path" transform="translate(0 0)">
			<rect width="76.33" height="76.33" style="fill: none"/>
			</clipPath>
		</defs>
		<g style="clip-path: url(#clip-path)">
			<path d="M38.16,76.33A38.17,38.17,0,1,1,76.33,38.16,38.21,38.21,0,0,1,38.16,76.33M38.16,1A37.17,37.17,0,1,0,75.33,38.16,37.2,37.2,0,0,0,38.16,1" transform="translate(0 0)" style="fill: #cee5f0"/>
			<path d="M19.7,21.07H39.36v4.58a.65.65,0,0,0,.65.66H44.6V36.47h1.31V25.65a.69.69,0,0,0-.19-.46L40.48,20a.67.67,0,0,0-.47-.19H22.32V18.45h24.9V37.78h1.31v-20a.65.65,0,0,0-.66-.65H21.66a.65.65,0,0,0-.65.65v2H19a.65.65,0,0,0-.65.65v36.7a.65.65,0,0,0,.65.65h18V56.45H19.7Zm21,.92,3,3h-3Z" transform="translate(0 0)" style="fill: #76b4d0"/>
			<rect x="21.01" y="27.62" width="17.04" height="1.31" style="fill: #76b4d0"/>
			<rect x="21.01" y="30.24" width="17.04" height="1.31" style="fill: #76b4d0"/>
			<rect x="21.01" y="32.86" width="17.04" height="1.31" style="fill: #76b4d0"/>
			<rect x="21.01" y="35.48" width="13.1" height="1.31" style="fill: #76b4d0"/>
			<rect x="21.01" y="38.1" width="13.1" height="1.31" style="fill: #76b4d0"/>
			<rect x="21.01" y="40.73" width="13.1" height="1.31" style="fill: #76b4d0"/>
			<rect x="21.01" y="48.59" width="13.1" height="1.31" style="fill: #76b4d0"/>
			<rect x="21.01" y="51.21" width="13.1" height="1.31" style="fill: #76b4d0"/>
			<rect x="21.01" y="53.83" width="13.1" height="1.31" style="fill: #76b4d0"/>
			<rect x="21.66" y="22.38" width="1.31" height="1.31" style="fill: #76b4d0"/>
			<rect x="24.28" y="22.38" width="1.31" height="1.31" style="fill: #76b4d0"/>
			<rect x="26.91" y="22.38" width="1.31" height="1.31" style="fill: #76b4d0"/>
			<rect x="29.53" y="22.38" width="8.52" height="1.31" style="fill: #76b4d0"/>
			<polygon points="45.21 55.21 38.43 50.14 45.21 45.1 46.43 46.35 41.07 50.17 46.43 53.97 45.21 55.21" style="fill: #76b4d0"/>
		</g>
		<text transform="translate(46.43 59.1)" style="font-size: 27.07469940185547px;fill: #76b4d0;font-family: CoreSans">3</text>
	</symbol>

	<symbol id="more-3" viewBox="0 0 76.33 76.33">
		<defs>
		<clipPath id="clip-path" transform="translate(0 0)">
			<rect width="76.33" height="76.33" style="fill: none"/>
		</clipPath>
		</defs>
		<g style="clip-path: url(#clip-path)">
		<path d="M38.16,76.33A38.17,38.17,0,1,1,76.33,38.16,38.21,38.21,0,0,1,38.16,76.33M38.16,1A37.17,37.17,0,1,0,75.33,38.16,37.2,37.2,0,0,0,38.16,1" transform="translate(0 0)" style="fill: #cee5f0"/>
		<path d="M19.7,21.07H39.36v4.58a.65.65,0,0,0,.65.66H44.6V36.47h1.31V25.65a.69.69,0,0,0-.19-.46L40.48,20a.67.67,0,0,0-.47-.19H22.32V18.45h24.9V37.78h1.31v-20a.65.65,0,0,0-.66-.65H21.66a.65.65,0,0,0-.65.65v2H19a.65.65,0,0,0-.65.65v36.7a.65.65,0,0,0,.65.65h18V56.45H19.7Zm21,.92,3,3h-3Z" transform="translate(0 0)" style="fill: #76b4d0"/>
		<rect x="21.01" y="27.62" width="17.04" height="1.31" style="fill: #76b4d0"/>
		<rect x="21.01" y="30.24" width="17.04" height="1.31" style="fill: #76b4d0"/>
		<rect x="21.01" y="32.86" width="17.04" height="1.31" style="fill: #76b4d0"/>
		<rect x="21.01" y="35.48" width="13.1" height="1.31" style="fill: #76b4d0"/>
		<rect x="21.01" y="38.1" width="13.1" height="1.31" style="fill: #76b4d0"/>
		<rect x="21.01" y="40.73" width="13.1" height="1.31" style="fill: #76b4d0"/>
		<rect x="21.01" y="48.59" width="13.1" height="1.31" style="fill: #76b4d0"/>
		<rect x="21.01" y="51.21" width="13.1" height="1.31" style="fill: #76b4d0"/>
		<rect x="21.01" y="53.83" width="13.1" height="1.31" style="fill: #76b4d0"/>
		<rect x="21.66" y="22.38" width="1.31" height="1.31" style="fill: #76b4d0"/>
		<rect x="24.28" y="22.38" width="1.31" height="1.31" style="fill: #76b4d0"/>
		<rect x="26.91" y="22.38" width="1.31" height="1.31" style="fill: #76b4d0"/>
		<rect x="29.53" y="22.38" width="8.52" height="1.31" style="fill: #76b4d0"/>
		<polygon points="40.11 45.1 46.89 50.14 40.11 55.21 38.91 53.97 44.25 50.17 38.91 46.35 40.11 45.1" style="fill: #76b4d0"/>
		</g>
		<text transform="translate(46.89 59.1)" style="font-size: 27.07469940185547px;fill: #76b4d0;font-family: CoreSans">3</text>
	</symbol>

	<symbol id="gos" viewBox="0 0 76.33 76.33">
		<defs>
		<clipPath id="clip-path" transform="translate(0 0)">
		<rect width="76.33" height="76.33" style="fill: none"/>
		</clipPath>
		</defs>
		<rect x="37.25" y="38.43" width="1.82" height="1.82" style="fill: #76b4d0"/>
		<rect x="37.25" y="16.84" width="1.82" height="1.82" style="fill: #76b4d0"/>
		<rect x="32.17" y="19.38" width="1.82" height="1.82" style="fill: #76b4d0"/>
		<rect x="42.33" y="19.38" width="1.82" height="1.82" style="fill: #76b4d0"/>
		<g style="clip-path: url(#clip-path)">
		<path d="M59.48,30.09V28.27H52.14a6,6,0,0,0-5.87,4.8l-.06.28H44.16V26.28H46.7V24.46H43.25a6,6,0,0,0-4.8,2.4l-.29.39-.28-.39a6,6,0,0,0-4.8-2.4H29.63v1.82h2.54v7.07H30.12l-.06-.28a6,6,0,0,0-5.87-4.8H16.85v1.82h2.54v3.26H16.85v1.82h2.54v3.26H16.85v1.82h2.6l.06.29a6,6,0,0,0,1.08,2.4l.43.57H16.85v1.83H32.17V48.6H27.09v1.82h6a5.9,5.9,0,0,1,2.12.39l.84.33-.83.34a7.68,7.68,0,0,0-4.73,7.1v.91H45.85v-.91a7.68,7.68,0,0,0-4.73-7.1l-.83-.34.84-.33a5.9,5.9,0,0,1,2.12-.39h6V48.6H44.16V45.34H59.48V43.51H55.31l.43-.57a6,6,0,0,0,1.08-2.4l.06-.29h2.6V38.43H56.94V35.17h2.54V33.35H56.94V30.09Zm-38.27,0h3a4.18,4.18,0,0,1,3.93,2.78l.17.48H21.21Zm11,13.42H25.38a4.17,4.17,0,0,1-3.93-2.78l-.17-.48h7.63V38.43h-7.7V35.17h11ZM34,26.35l.48.17a4.17,4.17,0,0,1,2.78,3.93v2.9H34Zm9.88,30.87.11.45H39.07V55.12H37.25v2.55h-4.9l.11-.45a5.86,5.86,0,0,1,11.41,0m-1.54-8.58-.3,0a7.74,7.74,0,0,0-3.64,1.64l-.23.18-.22-.18a7.74,7.74,0,0,0-3.64-1.64l-.31,0v-3.3h8.34Zm0-5.13H34V35.17h8.34Zm0-10.16H39.07v-2.9a4.18,4.18,0,0,1,2.78-3.93l.48-.17Zm12.79,5.08h-7.7v1.82h7.63l-.17.48A4.17,4.17,0,0,1,51,43.51H44.16V35.17h11Zm0-5.08H48l.18-.48a4.17,4.17,0,0,1,3.93-2.78h3Z" transform="translate(0 0)" style="fill: #76b4d0"/>
		<path d="M38.16,76.33A38.17,38.17,0,1,1,76.33,38.16,38.21,38.21,0,0,1,38.16,76.33M38.16,1A37.17,37.17,0,1,0,75.33,38.16,37.2,37.2,0,0,0,38.16,1" transform="translate(0 0)" style="fill: #cee5f0"/>
		</g>
	</symbol>


</svg>
