<svg id="Layer_1" data-name="Layer 1" xmlns="http://www.w3.org/2000/svg" viewBox="0 0 22 12.55">
  <title>vk</title>
  <path d="M21.88,11.33l-.07-.14a11.77,11.77,0,0,0-2.19-2.53l0,0h0v0h0a12.64,12.64,0,0,1-.93-.93.9.9,0,0,1-.16-.93,8.59,8.59,0,0,1,1-1.5l.75-1C21.57,2.52,22.14,1.39,22,.91L21.9.79A.72.72,0,0,0,21.54.6a2.1,2.1,0,0,0-.73,0l-3.3,0a.44.44,0,0,0-.23,0l-.15,0-.05,0,0,0a.46.46,0,0,0-.13.12,1.28,1.28,0,0,0-.11.2A18.64,18.64,0,0,1,15.56,3.6c-.28.47-.54.88-.77,1.23a6.55,6.55,0,0,1-.6.77,4.58,4.58,0,0,1-.44.39c-.13.1-.22.14-.29.13l-.2,0A.78.78,0,0,1,13,5.79a1.61,1.61,0,0,1-.13-.45c0-.17,0-.33,0-.46s0-.31,0-.55,0-.4,0-.48c0-.29,0-.61,0-.94s0-.61,0-.81,0-.41,0-.63a3.22,3.22,0,0,0,0-.52,2.29,2.29,0,0,0-.12-.37.64.64,0,0,0-.24-.27,1.21,1.21,0,0,0-.38-.16A8,8,0,0,0,10.58,0,7.5,7.5,0,0,0,7.85.28a1.45,1.45,0,0,0-.44.34c-.14.17-.16.26-.06.28a1.4,1.4,0,0,1,1,.49l.06.14a1.68,1.68,0,0,1,.16.52,5,5,0,0,1,.11.84,8.48,8.48,0,0,1,0,1.43c0,.4-.08.71-.11.93a1.73,1.73,0,0,1-.16.54A2.29,2.29,0,0,1,8.26,6s0,0-.06,0a.81.81,0,0,1-.31.06A.69.69,0,0,1,7.5,6,2.68,2.68,0,0,1,7,5.55a6.19,6.19,0,0,1-.56-.78,12.9,12.9,0,0,1-.64-1.2l-.18-.33c-.12-.21-.28-.52-.47-.93s-.38-.8-.53-1.19A.68.68,0,0,0,4.37.76l0,0A.67.67,0,0,0,4.13.63,1.12,1.12,0,0,0,3.87.55L.73.57A.8.8,0,0,0,.08.79L0,.86A.42.42,0,0,0,0,1a.8.8,0,0,0,.07.31C.53,2.43,1,3.47,1.56,4.47s1,1.8,1.41,2.41.8,1.19,1.21,1.73.69.89.82,1.05l.31.34.29.27a5.34,5.34,0,0,0,.81.66,12.69,12.69,0,0,0,1.18.76,6.43,6.43,0,0,0,1.5.61,5.16,5.16,0,0,0,1.68.18h1.31a.88.88,0,0,0,.61-.25l0-.05a.66.66,0,0,0,.09-.22,1,1,0,0,0,0-.31,3.51,3.51,0,0,1,.08-.89,2.14,2.14,0,0,1,.19-.59,1.11,1.11,0,0,1,.25-.34,1.08,1.08,0,0,1,.19-.17l.09,0a.73.73,0,0,1,.65.18,3.93,3.93,0,0,1,.7.66c.22.27.48.56.78.89a5.94,5.94,0,0,0,.8.73l.23.14a2.64,2.64,0,0,0,.6.25,1.22,1.22,0,0,0,.64.06l2.93,0a1.29,1.29,0,0,0,.68-.15A.54.54,0,0,0,22,12a.85.85,0,0,0,0-.39,1.46,1.46,0,0,0-.08-.31Zm0,0" style="fill: #fff"/>
</svg>
